SplineFontDB: 3.2
FontName: RobotoLegacy-CondBoldItalic
FullName: Roboto Legacy Cond Bold Italic
FamilyName: Roboto Legacy Cond
Weight: Bold
Copyright: Font data copyright Google 2011
Version: 1.00000; 2011
ItalicAngle: 0
UnderlinePosition: -200
UnderlineWidth: 100
Ascent: 1536
Descent: 512
InvalidEm: 0
sfntRevision: 0x00010000
LayerCount: 2
Layer: 0 1 "Back" 1
Layer: 1 1 "Fore" 0
XUID: [1021 474 -1613799265 12211]
StyleMap: 0x0021
FSType: 4
OS2Version: 3
OS2_WeightWidthSlopeOnly: 0
OS2_UseTypoMetrics: 0
CreationTime: 1221222574
ModificationTime: 1744076381
PfmFamily: 81
TTFWeight: 700
TTFWidth: 3
LineGap: 0
VLineGap: 0
Panose: 0 0 0 0 0 0 0 0 0 0
OS2TypoAscent: 1536
OS2TypoAOffset: 0
OS2TypoDescent: -512
OS2TypoDOffset: 0
OS2TypoLinegap: 102
OS2WinAscent: 1946
OS2WinAOffset: 0
OS2WinDescent: 512
OS2WinDOffset: 0
HheadAscent: 1900
HheadAOffset: 0
HheadDescent: -500
HheadDOffset: 0
OS2SubXSize: 1434
OS2SubYSize: 1331
OS2SubXOff: 0
OS2SubYOff: 287
OS2SupXSize: 1434
OS2SupYSize: 1331
OS2SupXOff: 0
OS2SupYOff: 977
OS2StrikeYSize: 102
OS2StrikeYPos: 512
OS2CapHeight: 1456
OS2XHeight: 1082
OS2Vendor: 'pyrs'
OS2CodePages: 2000019f.4f010000
OS2UnicodeRanges: e00002ef.5000205b.00000020.00000000
Lookup: 1 0 0 "'smcp' Lowercase to Small Capitals lookup 0" { "'smcp' Lowercase to Small Capitals lookup 0 subtable"  } ['smcp' ('DFLT' <'dflt' > ) ]
Lookup: 4 0 1 "'liga' Standard Ligatures lookup 1" { "'liga' Standard Ligatures lookup 1 subtable"  } ['liga' ('DFLT' <'dflt' > ) ]
Lookup: 258 0 0 "'kern' Horizontal Kerning lookup 0" { "'kern' Horizontal Kerning lookup 0 per glyph data 0"  "'kern' Horizontal Kerning lookup 0 per glyph data 1"  "'kern' Horizontal Kerning lookup 0 per glyph data 2"  "'kern' Horizontal Kerning lookup 0 kerning class 3"  } ['kern' ('DFLT' <'dflt' > ) ]
MarkAttachClasses: 1
DEI: 91125
KernClass2: 32+ 29 "'kern' Horizontal Kerning lookup 0 kerning class 3"

StartChar: exclam
Encoding: 33 33 4
Width: 508
GlyphClass: 1
Flags: W
LayerCount: 2
Fore
SplineSet
393 504 m 1,0,-1
 110 504 l 1,1,-1
 252 1456 l 1,2,-1
 535 1456 l 1,3,-1
 393 504 l 1,0,-1
315 0 m 1,4,-1
 36 0 l 1,5,-1
 74 253 l 1,6,-1
 353 253 l 1,7,-1
 315 0 l 1,4,-1
EndSplineSet
EndChar

StartChar: quotedbl
Encoding: 34 34 5
Width: 783
GlyphClass: 1
Flags: W
LayerCount: 2
Fore
SplineSet
444 1190 m 1,0,-1
 314 939 l 1,1,-1
 191 939 l 1,2,-1
 223 1178 l 1,3,-1
 262 1456 l 1,4,-1
 481 1456 l 1,5,-1
 444 1190 l 1,0,-1
760 1190 m 1,6,-1
 630 939 l 1,7,-1
 508 939 l 1,8,-1
 542 1186 l 1,9,-1
 580 1456 l 1,10,-1
 797 1456 l 1,11,-1
 760 1190 l 1,6,-1
EndSplineSet
EndChar

StartChar: numbersign
Encoding: 35 35 6
Width: 1050
GlyphClass: 1
Flags: W
LayerCount: 2
Fore
SplineSet
531 410 m 1,0,-1
 387 410 l 1,1,-1
 266 0 l 1,2,-1
 94 0 l 1,3,-1
 215 410 l 1,4,-1
 25 410 l 1,5,-1
 49 573 l 1,6,-1
 264 573 l 1,7,-1
 354 876 l 1,8,-1
 159 876 l 1,9,-1
 184 1040 l 1,10,-1
 402 1040 l 1,11,-1
 526 1456 l 1,12,-1
 698 1456 l 1,13,-1
 574 1040 l 1,14,-1
 718 1040 l 1,15,-1
 842 1456 l 1,16,-1
 1013 1456 l 1,17,-1
 889 1040 l 1,18,-1
 1079 1040 l 1,19,-1
 1054 876 l 1,20,-1
 841 876 l 1,21,-1
 751 573 l 1,22,-1
 944 573 l 1,23,-1
 920 410 l 1,24,-1
 702 410 l 1,25,-1
 581 0 l 1,26,-1
 409 0 l 1,27,-1
 531 410 l 1,0,-1
436 573 m 1,28,-1
 579 573 l 1,29,-1
 669 876 l 1,30,-1
 526 876 l 1,31,-1
 436 573 l 1,28,-1
EndSplineSet
EndChar

StartChar: dollar
Encoding: 36 36 7
Width: 1069
GlyphClass: 1
Flags: W
LayerCount: 2
Fore
SplineSet
669 380 m 0,0,1
 681 469 681 469 653.5 516 c 128,-1,2
 626 563 626 563 539 613 c 1,3,4
 350 691 350 691 268.5 790 c 128,-1,5
 187 889 187 889 213 1073 c 0,6,7
 237 1247 237 1247 347 1352 c 128,-1,8
 457 1457 457 1457 625 1474 c 1,9,-1
 655 1685 l 1,10,-1
 800 1685 l 1,11,-1
 769 1470 l 1,12,13
 918 1443 918 1443 993.5 1327 c 128,-1,14
 1069 1211 1069 1211 1044 1027 c 1,15,-1
 763 1027 l 1,16,17
 779 1143 779 1143 749.5 1200 c 128,-1,18
 720 1257 720 1257 652 1257 c 0,19,20
 585 1257 585 1257 546 1206 c 128,-1,21
 507 1155 507 1155 495 1072 c 0,22,23
 483 991 483 991 510.5 946 c 128,-1,24
 538 901 538 901 628 845 c 1,25,26
 813 773 813 773 895 669 c 128,-1,27
 977 565 977 565 951 382 c 0,28,29
 926 203 926 203 818.5 101.5 c 128,-1,30
 711 0 711 0 542 -17 c 1,31,-1
 515 -214 l 1,32,-1
 369 -214 l 1,33,-1
 396 -16 l 1,34,35
 235 4 235 4 141 115 c 128,-1,36
 47 226 47 226 78 440 c 1,37,-1
 359 440 l 1,38,39
 339 304 339 304 378.5 250.5 c 128,-1,40
 418 197 418 197 500 197 c 0,41,42
 571 197 571 197 614 247.5 c 128,-1,43
 657 298 657 298 669 380 c 0,0,1
EndSplineSet
EndChar

StartChar: percent
Encoding: 37 37 8
Width: 1376
GlyphClass: 1
Flags: W
LayerCount: 2
Fore
SplineSet
187 1176 m 2,0,1
 207 1310 207 1310 294.5 1393.5 c 128,-1,2
 382 1477 382 1477 520 1477 c 0,3,4
 652 1477 652 1477 717 1390.5 c 128,-1,5
 782 1304 782 1304 763 1176 c 2,6,-1
 752 1099 l 2,7,8
 731 965 731 965 644.5 882.5 c 128,-1,9
 558 800 558 800 420 800 c 0,10,11
 288 800 288 800 222 886 c 128,-1,12
 156 972 156 972 176 1099 c 2,13,-1
 187 1176 l 2,0,1
361 1099 m 2,14,15
 351 1038 351 1038 372 998.5 c 128,-1,16
 393 959 393 959 444 959 c 0,17,18
 491 959 491 959 524 999.5 c 128,-1,19
 557 1040 557 1040 566 1099 c 2,20,-1
 577 1176 l 2,21,22
 586 1238 586 1238 566 1278 c 128,-1,23
 546 1318 546 1318 496 1318 c 0,24,25
 449 1318 449 1318 415 1276 c 128,-1,26
 381 1234 381 1234 372 1176 c 2,27,-1
 361 1099 l 2,14,15
687 357 m 2,28,29
 706 490 706 490 794.5 573.5 c 128,-1,30
 883 657 883 657 1021 657 c 0,31,32
 1153 657 1153 657 1217.5 570.5 c 128,-1,33
 1282 484 1282 484 1264 357 c 2,34,-1
 1252 280 l 2,35,36
 1231 145 1231 145 1144.5 62.5 c 128,-1,37
 1058 -20 1058 -20 920 -20 c 0,38,39
 788 -20 788 -20 721.5 66.5 c 128,-1,40
 655 153 655 153 675 280 c 2,41,-1
 687 357 l 2,28,29
860 280 m 2,42,43
 850 220 850 220 874 179.5 c 128,-1,44
 898 139 898 139 944 139 c 0,45,46
 998 139 998 139 1027 178 c 128,-1,47
 1056 217 1056 217 1066 280 c 2,48,-1
 1078 357 l 2,49,50
 1086 419 1086 419 1066 458.5 c 128,-1,51
 1046 498 1046 498 997 498 c 0,52,53
 949 498 949 498 914.5 456.5 c 128,-1,54
 880 415 880 415 872 357 c 2,55,-1
 860 280 l 2,42,43
386 110 m 1,56,-1
 262 183 l 1,57,-1
 1045 1321 l 1,58,-1
 1168 1248 l 1,59,-1
 386 110 l 1,56,-1
EndSplineSet
EndChar

StartChar: ampersand
Encoding: 38 38 9
Width: 1236
GlyphClass: 1
Flags: W
LayerCount: 2
Fore
SplineSet
329 780 m 1,0,1
 283 870 283 870 264.5 945.5 c 128,-1,2
 246 1021 246 1021 258 1099 c 0,3,4
 286 1287 286 1287 396.5 1382 c 128,-1,5
 507 1477 507 1477 679 1477 c 0,6,7
 818 1477 818 1477 896.5 1378.5 c 128,-1,8
 975 1280 975 1280 954 1142 c 0,9,10
 938 1034 938 1034 891 961.5 c 128,-1,11
 844 889 844 889 761 827 c 2,12,-1
 655 753 l 1,13,-1
 846 445 l 1,14,15
 883 502 883 502 909.5 568.5 c 128,-1,16
 936 635 936 635 947 708 c 1,17,-1
 1171 708 l 1,18,19
 1149 562 1149 562 1100.5 447 c 128,-1,20
 1052 332 1052 332 970 244 c 1,21,-1
 1121 0 l 1,22,-1
 801 0 l 1,23,-1
 748 86 l 1,24,25
 663 32 663 32 580 5.5 c 128,-1,26
 497 -21 497 -21 405 -21 c 0,27,28
 216 -21 216 -21 113 93.5 c 128,-1,29
 10 208 10 208 37 388 c 0,30,31
 55 512 55 512 121.5 594 c 128,-1,32
 188 676 188 676 320 774 c 1,33,-1
 329 780 l 1,0,1
455 199 m 0,34,35
 500 199 500 199 548 212.5 c 128,-1,36
 596 226 596 226 644 254 c 1,37,-1
 433 596 l 1,38,39
 380 545 380 545 355.5 498 c 128,-1,40
 331 451 331 451 325 404 c 0,41,42
 310 312 310 312 346.5 255.5 c 128,-1,43
 383 199 383 199 455 199 c 0,34,35
508 1103 m 0,44,45
 501 1061 501 1061 512 1018.5 c 128,-1,46
 523 976 523 976 550 927 c 1,47,-1
 611 967 l 2,48,49
 666 1004 666 1004 688.5 1042 c 128,-1,50
 711 1080 711 1080 719 1126 c 0,51,52
 727 1180 727 1180 706.5 1218 c 128,-1,53
 686 1256 686 1256 637 1256 c 0,54,55
 590 1256 590 1256 553.5 1211 c 128,-1,56
 517 1166 517 1166 508 1103 c 0,44,45
EndSplineSet
EndChar

StartChar: quotesingle
Encoding: 39 39 10
Width: 411
GlyphClass: 1
Flags: W
LayerCount: 2
Fore
SplineSet
421 1188 m 1,0,-1
 288 907 l 1,1,-1
 133 907 l 1,2,-1
 169 1175 l 1,3,-1
 208 1456 l 1,4,-1
 459 1456 l 1,5,-1
 421 1188 l 1,0,-1
EndSplineSet
EndChar

StartChar: parenleft
Encoding: 40 40 11
Width: 637
GlyphClass: 1
Flags: W
LayerCount: 2
Fore
SplineSet
118 591 m 1,0,1
 173 991 173 991 342 1257 c 128,-1,2
 511 1523 511 1523 693 1608 c 1,3,-1
 699 1607 l 1,4,-1
 730 1468 l 1,5,6
 609 1370 609 1370 503.5 1148 c 128,-1,7
 398 926 398 926 351 593 c 2,8,-1
 347 565 l 2,9,10
 298 218 298 218 341 5 c 128,-1,11
 384 -208 384 -208 480 -311 c 1,12,-1
 411 -449 l 1,13,-1
 405 -448 l 1,14,15
 249 -365 249 -365 154.5 -92 c 128,-1,16
 60 181 60 181 114 567 c 1,17,-1
 118 591 l 1,0,1
EndSplineSet
EndChar

StartChar: parenright
Encoding: 41 41 12
Width: 637
GlyphClass: 1
Flags: W
LayerCount: 2
Fore
SplineSet
546 567 m 1,0,1
 491 176 491 176 316.5 -94.5 c 128,-1,2
 142 -365 142 -365 -44 -449 c 1,3,-1
 -50 -448 l 1,4,-1
 -83 -311 l 1,5,6
 38 -213 38 -213 144 9.5 c 128,-1,7
 250 232 250 232 297 565 c 2,8,-1
 301 593 l 2,9,10
 349 939 349 939 305 1154 c 128,-1,11
 261 1369 261 1369 167 1470 c 1,12,-1
 238 1608 l 1,13,-1
 244 1607 l 1,14,15
 404 1526 404 1526 503 1245 c 128,-1,16
 602 964 602 964 550 591 c 1,17,-1
 546 567 l 1,0,1
EndSplineSet
EndChar

StartChar: asterisk
Encoding: 42 42 13
Width: 780
GlyphClass: 1
Flags: W
LayerCount: 2
Fore
SplineSet
266 664 m 1,0,-1
 75 743 l 1,1,-1
 150 904 l 1,2,-1
 352 826 l 1,3,-1
 394 1081 l 1,4,-1
 559 1081 l 1,5,-1
 528 817 l 1,6,-1
 745 897 l 1,7,-1
 770 734 l 1,8,-1
 551 652 l 1,9,-1
 640 444 l 1,10,-1
 491 344 l 1,11,-1
 388 555 l 1,12,-1
 227 351 l 1,13,-1
 106 448 l 1,14,-1
 266 664 l 1,0,-1
EndSplineSet
EndChar

StartChar: plus
Encoding: 43 43 14
Width: 1010
GlyphClass: 1
Flags: W
LayerCount: 2
Fore
SplineSet
678 806 m 1,0,-1
 992 806 l 1,1,-1
 955 560 l 1,2,-1
 641 560 l 1,3,-1
 579 146 l 1,4,-1
 312 146 l 1,5,-1
 374 560 l 1,6,-1
 57 560 l 1,7,-1
 94 806 l 1,8,-1
 411 806 l 1,9,-1
 471 1206 l 1,10,-1
 738 1206 l 1,11,-1
 678 806 l 1,0,-1
EndSplineSet
EndChar

StartChar: comma
Encoding: 44 44 15
Width: 495
GlyphClass: 1
Flags: W
LayerCount: 2
Fore
SplineSet
314 4 m 1,0,-1
 121 -305 l 1,1,-1
 -68 -305 l 1,2,-1
 41 12 l 1,3,-1
 76 246 l 1,4,-1
 350 246 l 1,5,-1
 314 4 l 1,0,-1
EndSplineSet
EndChar

StartChar: hyphen
Encoding: 45 45 16
Width: 782
GlyphClass: 1
Flags: W
LayerCount: 2
Fore
SplineSet
636 514 m 1,0,-1
 130 514 l 1,1,-1
 163 735 l 1,2,-1
 669 735 l 1,3,-1
 636 514 l 1,0,-1
EndSplineSet
EndChar

StartChar: period
Encoding: 46 46 17
Width: 545
GlyphClass: 1
Flags: W
LayerCount: 2
Fore
SplineSet
324 0 m 1,0,-1
 46 0 l 1,1,-1
 84 253 l 1,2,-1
 362 253 l 1,3,-1
 324 0 l 1,0,-1
EndSplineSet
EndChar

StartChar: slash
Encoding: 47 47 18
Width: 722
GlyphClass: 1
Flags: W
LayerCount: 2
Fore
SplineSet
164 -125 m 1,0,-1
 -111 -125 l 1,1,-1
 568 1456 l 1,2,-1
 845 1456 l 1,3,-1
 164 -125 l 1,0,-1
EndSplineSet
EndChar

StartChar: zero
Encoding: 48 48 19
Width: 1075
GlyphClass: 1
Flags: W
LayerCount: 2
Fore
SplineSet
985 528 m 2,0,1
 945 261 945 261 802.5 120 c 128,-1,2
 660 -21 660 -21 456 -21 c 0,3,4
 259 -21 259 -21 153.5 126.5 c 128,-1,5
 48 274 48 274 87 528 c 2,6,-1
 147 927 l 2,7,8
 187 1192 187 1192 330 1334.5 c 128,-1,9
 473 1477 473 1477 679 1477 c 0,10,11
 874 1477 874 1477 978.5 1328.5 c 128,-1,12
 1083 1180 1083 1180 1045 927 c 2,13,-1
 985 528 l 2,0,1
766 952 m 2,14,15
 788 1102 788 1102 755.5 1179 c 128,-1,16
 723 1256 723 1256 645 1256 c 0,17,18
 569 1256 569 1256 512 1175.5 c 128,-1,19
 455 1095 455 1095 434 952 c 2,20,-1
 367 505 l 2,21,22
 344 352 344 352 376 275.5 c 128,-1,23
 408 199 408 199 489 199 c 0,24,25
 563 199 563 199 619.5 279 c 128,-1,26
 676 359 676 359 699 505 c 2,27,-1
 766 952 l 2,14,15
EndSplineSet
EndChar

StartChar: one
Encoding: 49 49 20
Width: 1075
GlyphClass: 1
Flags: W
LayerCount: 2
Fore
SplineSet
660 0 m 1,0,-1
 377 0 l 1,1,-1
 559 1211 l 1,2,-1
 292 1204 l 1,3,-1
 324 1421 l 1,4,-1
 882 1477 l 1,5,-1
 660 0 l 1,0,-1
EndSplineSet
EndChar

StartChar: two
Encoding: 50 50 21
Width: 1075
GlyphClass: 1
Flags: W
LayerCount: 2
Fore
SplineSet
923 0 m 1,0,-1
 31 0 l 1,1,-1
 57 188 l 1,2,-1
 532 697 l 2,3,4
 635 813 635 813 683.5 897 c 128,-1,5
 732 981 732 981 742 1050 c 0,6,7
 756 1148 756 1148 727.5 1202 c 128,-1,8
 699 1256 699 1256 622 1256 c 0,9,10
 546 1256 546 1256 491.5 1184.5 c 128,-1,11
 437 1113 437 1113 423 1005 c 1,12,-1
 146 1005 l 1,13,-1
 144 1011 l 1,14,15
 168 1213 168 1213 307.5 1345 c 128,-1,16
 447 1477 447 1477 653 1477 c 0,17,18
 852 1477 852 1477 953 1361.5 c 128,-1,19
 1054 1246 1054 1246 1027 1051 c 0,20,21
 1008 913 1008 913 930.5 807 c 128,-1,22
 853 701 853 701 666 507 c 1,23,-1
 433 225 l 1,24,-1
 435 220 l 1,25,-1
 954 220 l 1,26,-1
 923 0 l 1,0,-1
EndSplineSet
EndChar

StartChar: three
Encoding: 51 51 22
Width: 1075
GlyphClass: 1
Flags: W
LayerCount: 2
Fore
SplineSet
1066 1065 m 0,0,1
 1049 959 1049 959 983.5 875.5 c 128,-1,2
 918 792 918 792 818 746 c 1,3,4
 915 702 915 702 959 615 c 128,-1,5
 1003 528 1003 528 986 405 c 0,6,7
 954 198 954 198 806.5 88.5 c 128,-1,8
 659 -21 659 -21 447 -21 c 0,9,10
 272 -21 272 -21 150.5 87.5 c 128,-1,11
 29 196 29 196 63 394 c 1,12,-1
 65 399 l 1,13,-1
 341 399 l 1,14,15
 327 310 327 310 366.5 254.5 c 128,-1,16
 406 199 406 199 480 199 c 0,17,18
 562 199 562 199 625.5 258.5 c 128,-1,19
 689 318 689 318 703 409 c 0,20,21
 721 532 721 532 681 585 c 128,-1,22
 641 638 641 638 545 638 c 2,23,-1
 398 638 l 1,24,-1
 407 700 l 1,25,-1
 420 786 l 1,26,-1
 430 852 l 1,27,-1
 577 852 l 2,28,29
 660 852 660 852 712.5 908 c 128,-1,30
 765 964 765 964 780 1061 c 0,31,32
 793 1147 793 1147 756.5 1201.5 c 128,-1,33
 720 1256 720 1256 640 1256 c 0,34,35
 577 1256 577 1256 524.5 1206.5 c 128,-1,36
 472 1157 472 1157 461 1079 c 1,37,-1
 186 1079 l 1,38,-1
 184 1085 l 1,39,40
 206 1264 206 1264 346.5 1370.5 c 128,-1,41
 487 1477 487 1477 674 1477 c 0,42,43
 874 1477 874 1477 984.5 1369 c 128,-1,44
 1095 1261 1095 1261 1066 1065 c 0,0,1
EndSplineSet
EndChar

StartChar: four
Encoding: 52 52 23
Width: 1075
GlyphClass: 1
Flags: W
LayerCount: 2
Fore
SplineSet
879 542 m 1,0,-1
 1018 542 l 1,1,-1
 985 320 l 1,2,-1
 846 320 l 1,3,-1
 798 0 l 1,4,-1
 514 0 l 1,5,-1
 562 320 l 1,6,-1
 37 320 l 1,7,-1
 49 493 l 1,8,-1
 731 1456 l 1,9,-1
 1016 1456 l 1,10,-1
 879 542 l 1,0,-1
307 542 m 1,11,-1
 595 542 l 1,12,-1
 674 1066 l 1,13,-1
 668 1068 l 1,14,-1
 634 1011 l 1,15,-1
 307 542 l 1,11,-1
EndSplineSet
EndChar

StartChar: five
Encoding: 53 53 24
Width: 1075
GlyphClass: 1
Flags: W
LayerCount: 2
Fore
SplineSet
140 643 m 1,0,-1
 338 1456 l 1,1,-1
 1084 1456 l 1,2,-1
 1050 1229 l 1,3,-1
 536 1229 l 1,4,-1
 448 876 l 1,5,6
 490 907 490 907 548.5 928 c 128,-1,7
 607 949 607 949 671 951 c 0,8,9
 855 954 855 954 935 826 c 128,-1,10
 1015 698 1015 698 981 467 c 0,11,12
 947 246 947 246 819 112.5 c 128,-1,13
 691 -21 691 -21 460 -21 c 0,14,15
 282 -21 282 -21 163 86.5 c 128,-1,16
 44 194 44 194 76 378 c 1,17,-1
 78 383 l 1,18,-1
 356 397 l 1,19,20
 341 300 341 300 379 249.5 c 128,-1,21
 417 199 417 199 493 199 c 0,22,23
 577 199 577 199 627 268 c 128,-1,24
 677 337 677 337 697 465 c 0,25,26
 717 599 717 599 685.5 672.5 c 128,-1,27
 654 746 654 746 566 746 c 0,28,29
 500 746 500 746 456.5 713 c 128,-1,30
 413 680 413 680 391 626 c 1,31,-1
 140 643 l 1,0,-1
EndSplineSet
EndChar

StartChar: six
Encoding: 54 54 25
Width: 1075
GlyphClass: 1
Flags: W
LayerCount: 2
Fore
SplineSet
756 1477 m 0,0,1
 830 1477 830 1477 893 1461.5 c 128,-1,2
 956 1446 956 1446 1016 1415 c 1,3,-1
 936 1206 l 1,4,5
 881 1229 881 1229 834.5 1240.5 c 128,-1,6
 788 1252 788 1252 724 1252 c 0,7,8
 616 1252 616 1252 530 1153.5 c 128,-1,9
 444 1055 444 1055 418 879 c 2,10,-1
 412 840 l 1,11,12
 471 893 471 893 547 921.5 c 128,-1,13
 623 950 623 950 712 950 c 0,14,15
 873 950 873 950 948.5 816 c 128,-1,16
 1024 682 1024 682 993 468 c 0,17,18
 959 244 959 244 816 111.5 c 128,-1,19
 673 -21 673 -21 472 -21 c 256,20,21
 271 -21 271 -21 159 135.5 c 128,-1,22
 47 292 47 292 88 558 c 2,23,-1
 135 873 l 2,24,25
 177 1160 177 1160 349 1318.5 c 128,-1,26
 521 1477 521 1477 756 1477 c 0,0,1
583 733 m 0,27,28
 519 733 519 733 467.5 708 c 128,-1,29
 416 683 416 683 382 640 c 1,30,-1
 369 554 l 2,31,32
 342 379 342 379 379.5 289 c 128,-1,33
 417 199 417 199 505 199 c 0,34,35
 577 199 577 199 635 276.5 c 128,-1,36
 693 354 693 354 710 468 c 0,37,38
 729 596 729 596 694.5 664.5 c 128,-1,39
 660 733 660 733 583 733 c 0,27,28
EndSplineSet
EndChar

StartChar: seven
Encoding: 55 55 26
Width: 1075
GlyphClass: 1
Flags: W
LayerCount: 2
Fore
SplineSet
1103 1235 m 1,0,1
 844 966 844 966 731.5 731 c 128,-1,2
 619 496 619 496 572 178 c 2,3,-1
 545 0 l 1,4,-1
 261 0 l 1,5,-1
 288 178 l 2,6,7
 336 497 336 497 469.5 743.5 c 128,-1,8
 603 990 603 990 831 1235 c 1,9,-1
 171 1235 l 1,10,-1
 204 1456 l 1,11,-1
 1136 1456 l 1,12,-1
 1103 1235 l 1,0,1
EndSplineSet
EndChar

StartChar: eight
Encoding: 56 56 27
Width: 1075
GlyphClass: 1
Flags: W
LayerCount: 2
Fore
SplineSet
1047 1078 m 0,0,1
 1029 965 1029 965 966 882 c 128,-1,2
 903 799 903 799 807 753 c 1,3,4
 906 703 906 703 956.5 612.5 c 128,-1,5
 1007 522 1007 522 991 406 c 0,6,7
 959 195 959 195 816 87 c 128,-1,8
 673 -21 673 -21 470 -21 c 0,9,10
 269 -21 269 -21 148 92.5 c 128,-1,11
 27 206 27 206 58 406 c 0,12,13
 76 530 76 530 155.5 621 c 128,-1,14
 235 712 235 712 357 759 c 1,15,16
 271 807 271 807 229 889.5 c 128,-1,17
 187 972 187 972 204 1078 c 0,18,19
 234 1278 234 1278 367 1377.5 c 128,-1,20
 500 1477 500 1477 694 1477 c 0,21,22
 872 1477 872 1477 973.5 1373 c 128,-1,23
 1075 1269 1075 1269 1047 1078 c 0,0,1
710 419 m 0,24,25
 725 522 725 522 684.5 583 c 128,-1,26
 644 644 644 644 569 644 c 0,27,28
 489 644 489 644 423.5 580.5 c 128,-1,29
 358 517 358 517 344 419 c 0,30,31
 328 315 328 315 373 257 c 128,-1,32
 418 199 418 199 503 199 c 0,33,34
 575 199 575 199 634.5 259 c 128,-1,35
 694 319 694 319 710 419 c 0,24,25
762 1065 m 0,36,37
 775 1156 775 1156 747.5 1206 c 128,-1,38
 720 1256 720 1256 660 1256 c 0,39,40
 594 1256 594 1256 546.5 1205.5 c 128,-1,41
 499 1155 499 1155 486 1065 c 0,42,43
 471 971 471 971 503.5 918 c 128,-1,44
 536 865 536 865 603 865 c 0,45,46
 660 865 660 865 704 919.5 c 128,-1,47
 748 974 748 974 762 1065 c 0,36,37
EndSplineSet
EndChar

StartChar: nine
Encoding: 57 57 28
Width: 1075
GlyphClass: 1
Flags: W
LayerCount: 2
Fore
SplineSet
439 199 m 0,0,1
 526 199 526 199 597.5 281 c 128,-1,2
 669 363 669 363 691 506 c 2,3,-1
 705 599 l 1,4,5
 654 541 654 541 591 511.5 c 128,-1,6
 528 482 528 482 461 482 c 0,7,8
 287 482 287 482 200 616 c 128,-1,9
 113 750 113 750 147 971 c 0,10,11
 180 1195 180 1195 325.5 1336 c 128,-1,12
 471 1477 471 1477 668 1477 c 0,13,14
 859 1477 859 1477 967 1327 c 128,-1,15
 1075 1177 1075 1177 1037 917 c 2,16,-1
 977 523 l 2,17,18
 938 264 938 264 779.5 121.5 c 128,-1,19
 621 -21 621 -21 406 -21 c 0,20,21
 341 -21 341 -21 268.5 -4.5 c 128,-1,22
 196 12 196 12 138 42 c 1,23,-1
 216 247 l 1,24,25
 268 222 268 222 320 210.5 c 128,-1,26
 372 199 372 199 439 199 c 0,0,1
545 690 m 0,27,28
 600 690 600 690 649 719 c 128,-1,29
 698 748 698 748 734 796 c 1,30,-1
 760 967 l 2,31,32
 782 1113 782 1113 747 1184.5 c 128,-1,33
 712 1256 712 1256 635 1256 c 0,34,35
 564 1256 564 1256 504.5 1171.5 c 128,-1,36
 445 1087 445 1087 429 971 c 0,37,38
 408 841 408 841 437.5 765.5 c 128,-1,39
 467 690 467 690 545 690 c 0,27,28
EndSplineSet
EndChar

StartChar: less
Encoding: 60 60 31
Width: 910
GlyphClass: 1
Flags: W
LayerCount: 2
Fore
SplineSet
303 547 m 1,0,-1
 303 541 l 1,1,-1
 768 333 l 1,2,-1
 728 69 l 1,3,-1
 34 435 l 1,4,-1
 56 579 l 1,5,-1
 68 657 l 1,6,-1
 871 1023 l 1,7,-1
 832 760 l 1,8,-1
 303 547 l 1,0,-1
EndSplineSet
EndChar

StartChar: equal
Encoding: 61 61 32
Width: 1036
GlyphClass: 1
Flags: W
LayerCount: 2
Fore
SplineSet
937 760 m 1,0,-1
 154 760 l 1,1,-1
 187 983 l 1,2,-1
 970 983 l 1,3,-1
 937 760 l 1,0,-1
872 329 m 1,4,-1
 89 329 l 1,5,-1
 123 552 l 1,6,-1
 906 552 l 1,7,-1
 872 329 l 1,4,-1
EndSplineSet
EndChar

StartChar: greater
Encoding: 62 62 33
Width: 921
GlyphClass: 1
Flags: W
LayerCount: 2
Fore
SplineSet
610 539 m 1,0,-1
 610 545 l 1,1,-1
 140 755 l 1,2,-1
 180 1017 l 1,3,-1
 880 652 l 1,4,-1
 858 506 l 1,5,-1
 857 506 l 1,6,-1
 846 429 l 1,7,-1
 36 63 l 1,8,-1
 76 325 l 1,9,-1
 610 539 l 1,0,-1
EndSplineSet
EndChar

StartChar: question
Encoding: 63 63 34
Width: 907
GlyphClass: 1
Flags: W
LayerCount: 2
Fore
SplineSet
257 413 m 1,0,1
 278 549 278 549 326 613.5 c 128,-1,2
 374 678 374 678 499 772 c 1,3,4
 565 829 565 829 608.5 896.5 c 128,-1,5
 652 964 652 964 666 1051 c 0,6,7
 680 1149 680 1149 650 1201.5 c 128,-1,8
 620 1254 620 1254 548 1254 c 0,9,10
 494 1254 494 1254 445.5 1206.5 c 128,-1,11
 397 1159 397 1159 382 1072 c 1,12,-1
 109 1072 l 1,13,-1
 107 1078 l 1,14,15
 134 1273 134 1273 265 1375 c 128,-1,16
 396 1477 396 1477 582 1477 c 0,17,18
 776 1477 776 1477 877 1361.5 c 128,-1,19
 978 1246 978 1246 949 1053 c 0,20,21
 929 922 929 922 850 818.5 c 128,-1,22
 771 715 771 715 660 639 c 1,23,24
 600 593 600 593 575.5 545 c 128,-1,25
 551 497 551 497 539 413 c 1,26,-1
 257 413 l 1,0,1
475 0 m 1,27,-1
 195 0 l 1,28,-1
 231 243 l 1,29,-1
 511 243 l 1,30,-1
 475 0 l 1,27,-1
EndSplineSet
EndChar

StartChar: at
Encoding: 64 64 35
Width: 1642
GlyphClass: 1
Flags: W
LayerCount: 2
Fore
SplineSet
1558 516 m 0,0,1
 1516 296 1516 296 1384 137.5 c 128,-1,2
 1252 -21 1252 -21 1036 -21 c 0,3,4
 967 -21 967 -21 921 24 c 128,-1,5
 875 69 875 69 865 151 c 1,6,7
 813 66 813 66 748.5 24 c 128,-1,8
 684 -18 684 -18 608 -18 c 0,9,10
 484 -18 484 -18 430.5 102 c 128,-1,11
 377 222 377 222 423 416 c 0,12,13
 484 668 484 668 614.5 820.5 c 128,-1,14
 745 973 745 973 897 973 c 0,15,16
 999 973 999 973 1063.5 946 c 128,-1,17
 1128 919 1128 919 1196 866 c 1,18,-1
 1193 863 l 1,19,-1
 1197 863 l 1,20,-1
 1066 293 l 2,21,22
 1045 194 1045 194 1056 158.5 c 128,-1,23
 1067 123 1067 123 1095 130 c 1,24,-1
 1101 129 l 1,25,26
 1195 124 1195 124 1274.5 236 c 128,-1,27
 1354 348 1354 348 1386 516 c 0,28,29
 1453 869 1453 869 1347.5 1066 c 128,-1,30
 1242 1263 1242 1263 959 1263 c 0,31,32
 698 1263 698 1263 501 1048.5 c 128,-1,33
 304 834 304 834 238 478 c 0,34,35
 169 125 169 125 283.5 -82 c 128,-1,36
 398 -289 398 -289 670 -289 c 0,37,38
 743 -289 743 -289 829 -269.5 c 128,-1,39
 915 -250 915 -250 977 -220 c 1,40,-1
 990 -364 l 1,41,42
 924 -406 924 -406 827 -429.5 c 128,-1,43
 730 -453 730 -453 642 -453 c 0,44,45
 297 -453 297 -453 134 -201.5 c 128,-1,46
 -29 50 -29 50 49 478 c 0,47,48
 129 906 129 906 381 1160 c 128,-1,49
 633 1414 633 1414 986 1414 c 0,50,51
 1321 1414 1321 1414 1477.5 1170.5 c 128,-1,52
 1634 927 1634 927 1558 516 c 0,0,1
640 416 m 0,53,54
 612 288 612 288 626.5 219.5 c 128,-1,55
 641 151 641 151 695 151 c 0,56,57
 742 151 742 151 785.5 180 c 128,-1,58
 829 209 829 209 871 286 c 0,59,60
 871 288 871 288 871 289.5 c 128,-1,61
 871 291 871 291 872 293 c 2,62,-1
 987 793 l 1,63,64
 969 799 969 799 949.5 802.5 c 128,-1,65
 930 806 930 806 909 806 c 0,66,67
 816 806 816 806 750.5 708 c 128,-1,68
 685 610 685 610 640 416 c 0,53,54
EndSplineSet
EndChar

StartChar: A
Encoding: 65 65 36
Width: 1141
GlyphClass: 1
Flags: W
LayerCount: 2
Fore
SplineSet
726 315 m 1,0,-1
 362 315 l 1,1,-1
 232 0 l 1,2,-1
 -62 0 l 1,3,-1
 569 1456 l 1,4,-1
 861 1456 l 1,5,-1
 1056 0 l 1,6,-1
 761 0 l 1,7,-1
 726 315 l 1,0,-1
453 537 m 1,8,-1
 701 537 l 1,9,-1
 649 997 l 1,10,-1
 643 998 l 1,11,-1
 453 537 l 1,8,-1
EndSplineSet
Substitution2: "'smcp' Lowercase to Small Capitals lookup 0 subtable" A.smcp
EndChar

StartChar: B
Encoding: 66 66 37
Width: 1142
GlyphClass: 1
Flags: W
LayerCount: 2
Fore
SplineSet
32 0 m 1,0,-1
 250 1456 l 1,1,-1
 667 1456 l 2,2,3
 887 1456 887 1456 1003 1355.5 c 128,-1,4
 1119 1255 1119 1255 1090 1059 c 0,5,6
 1073 952 1073 952 1015.5 872.5 c 128,-1,7
 958 793 958 793 861 755 c 1,8,9
 975 728 975 728 1022 636 c 128,-1,10
 1069 544 1069 544 1052 424 c 0,11,12
 1018 207 1018 207 883 103.5 c 128,-1,13
 748 0 748 0 520 0 c 2,14,-1
 32 0 l 1,0,-1
410 645 m 1,15,-1
 347 220 l 1,16,-1
 553 220 l 2,17,18
 642 220 642 220 698.5 272 c 128,-1,19
 755 324 755 324 770 424 c 0,20,21
 786 535 786 535 749.5 590 c 128,-1,22
 713 645 713 645 616 645 c 2,23,-1
 410 645 l 1,15,-1
439 840 m 1,24,-1
 579 840 l 2,25,26
 671 840 671 840 730 889.5 c 128,-1,27
 789 939 789 939 804 1033 c 0,28,29
 820 1141 820 1141 777.5 1188 c 128,-1,30
 735 1235 735 1235 634 1235 c 2,31,-1
 499 1235 l 1,32,-1
 439 840 l 1,24,-1
EndSplineSet
Substitution2: "'smcp' Lowercase to Small Capitals lookup 0 subtable" B.smcp
EndChar

StartChar: C
Encoding: 67 67 38
Width: 1133
GlyphClass: 1
Flags: W
LayerCount: 2
Fore
SplineSet
1053 452 m 1,0,-1
 1055 446 l 1,1,2
 1023 203 1023 203 884 91 c 128,-1,3
 745 -21 745 -21 513 -21 c 0,4,5
 286 -21 286 -21 165 118.5 c 128,-1,6
 44 258 44 258 82 511 c 2,7,-1
 146 943 l 2,8,9
 186 1207 186 1207 338.5 1342 c 128,-1,10
 491 1477 491 1477 721 1477 c 256,11,12
 951 1477 951 1477 1066 1359.5 c 128,-1,13
 1181 1242 1181 1242 1142 1009 c 1,14,-1
 1140 1004 l 1,15,-1
 865 1004 l 1,16,17
 886 1150 886 1150 845.5 1203 c 128,-1,18
 805 1256 805 1256 687 1256 c 0,19,20
 585 1256 585 1256 518.5 1178.5 c 128,-1,21
 452 1101 452 1101 429 945 c 2,22,-1
 364 511 l 2,23,24
 339 346 339 346 384.5 272.5 c 128,-1,25
 430 199 430 199 546 199 c 0,26,27
 648 199 648 199 703.5 255 c 128,-1,28
 759 311 759 311 781 452 c 1,29,-1
 1053 452 l 1,0,-1
EndSplineSet
Substitution2: "'smcp' Lowercase to Small Capitals lookup 0 subtable" C.smcp
EndChar

StartChar: D
Encoding: 68 68 39
Width: 1173
GlyphClass: 1
Flags: W
LayerCount: 2
Fore
SplineSet
32 0 m 1,0,-1
 250 1456 l 1,1,-1
 699 1456 l 2,2,3
 919 1456 919 1456 1046 1284 c 128,-1,4
 1173 1112 1173 1112 1134 848 c 2,5,-1
 1098 607 l 2,6,7
 1056 329 1056 329 884 164.5 c 128,-1,8
 712 0 712 0 481 0 c 2,9,-1
 32 0 l 1,0,-1
499 1235 m 1,10,-1
 347 220 l 1,11,-1
 514 220 l 2,12,13
 619 220 619 220 704 329 c 128,-1,14
 789 438 789 438 815 607 c 2,15,-1
 852 850 l 2,16,17
 878 1026 878 1026 827.5 1130.5 c 128,-1,18
 777 1235 777 1235 666 1235 c 2,19,-1
 499 1235 l 1,10,-1
EndSplineSet
Substitution2: "'smcp' Lowercase to Small Capitals lookup 0 subtable" D.smcp
EndChar

StartChar: E
Encoding: 69 69 40
Width: 994
GlyphClass: 1
Flags: W
LayerCount: 2
Fore
SplineSet
855 643 m 1,0,-1
 410 643 l 1,1,-1
 347 220 l 1,2,-1
 880 220 l 1,3,-1
 847 0 l 1,4,-1
 32 0 l 1,5,-1
 250 1456 l 1,6,-1
 1063 1456 l 1,7,-1
 1030 1235 l 1,8,-1
 499 1235 l 1,9,-1
 443 863 l 1,10,-1
 888 863 l 1,11,-1
 855 643 l 1,0,-1
EndSplineSet
Substitution2: "'smcp' Lowercase to Small Capitals lookup 0 subtable" E.smcp
EndChar

StartChar: F
Encoding: 70 70 41
Width: 994
GlyphClass: 1
Flags: W
LayerCount: 2
Fore
SplineSet
867 609 m 1,0,-1
 405 609 l 1,1,-1
 314 0 l 1,2,-1
 32 0 l 1,3,-1
 250 1456 l 1,4,-1
 1082 1456 l 1,5,-1
 1049 1235 l 1,6,-1
 499 1235 l 1,7,-1
 438 829 l 1,8,-1
 900 829 l 1,9,-1
 867 609 l 1,0,-1
EndSplineSet
Substitution2: "'smcp' Lowercase to Small Capitals lookup 0 subtable" F.smcp
EndChar

StartChar: G
Encoding: 71 71 42
Width: 1178
GlyphClass: 1
Flags: W
LayerCount: 2
Fore
SplineSet
1036 192 m 1,0,1
 961 105 961 105 834 42 c 128,-1,2
 707 -21 707 -21 521 -21 c 0,3,4
 293 -21 293 -21 167 117.5 c 128,-1,5
 41 256 41 256 79 507 c 2,6,-1
 145 949 l 2,7,8
 184 1211 184 1211 341.5 1344 c 128,-1,9
 499 1477 499 1477 730 1477 c 0,10,11
 959 1477 959 1477 1067.5 1363 c 128,-1,12
 1176 1249 1176 1249 1141 1044 c 1,13,-1
 1138 1038 l 1,14,-1
 873 1038 l 1,15,16
 890 1157 890 1157 848.5 1206.5 c 128,-1,17
 807 1256 807 1256 704 1256 c 0,18,19
 599 1256 599 1256 524.5 1179 c 128,-1,20
 450 1102 450 1102 428 951 c 2,21,-1
 361 507 l 2,22,23
 336 344 336 344 386.5 271.5 c 128,-1,24
 437 199 437 199 554 199 c 0,25,26
 633 199 633 199 684.5 218.5 c 128,-1,27
 736 238 736 238 766 270 c 1,28,-1
 810 564 l 1,29,-1
 588 564 l 1,30,-1
 617 759 l 1,31,-1
 1121 759 l 1,32,-1
 1036 192 l 1,0,1
EndSplineSet
Substitution2: "'smcp' Lowercase to Small Capitals lookup 0 subtable" G.smcp
EndChar

StartChar: H
Encoding: 72 72 43
Width: 1257
GlyphClass: 1
Flags: W
LayerCount: 2
Fore
SplineSet
1064 0 m 1,0,-1
 783 0 l 1,1,-1
 874 607 l 1,2,-1
 405 607 l 1,3,-1
 314 0 l 1,4,-1
 32 0 l 1,5,-1
 250 1456 l 1,6,-1
 532 1456 l 1,7,-1
 438 827 l 1,8,-1
 907 827 l 1,9,-1
 1001 1456 l 1,10,-1
 1282 1456 l 1,11,-1
 1064 0 l 1,0,-1
EndSplineSet
Substitution2: "'smcp' Lowercase to Small Capitals lookup 0 subtable" H.smcp
EndChar

StartChar: I
Encoding: 73 73 44
Width: 538
GlyphClass: 1
Flags: W
LayerCount: 2
Fore
SplineSet
329 0 m 1,0,-1
 48 0 l 1,1,-1
 266 1456 l 1,2,-1
 547 1456 l 1,3,-1
 329 0 l 1,0,-1
EndSplineSet
Substitution2: "'smcp' Lowercase to Small Capitals lookup 0 subtable" I.smcp
EndChar

StartChar: J
Encoding: 74 74 45
Width: 994
GlyphClass: 1
Flags: W
LayerCount: 2
Fore
SplineSet
740 1456 m 1,0,-1
 1022 1456 l 1,1,-1
 872 453 l 2,2,3
 838 228 838 228 704 103.5 c 128,-1,4
 570 -21 570 -21 385 -21 c 0,5,6
 186 -21 186 -21 81.5 94.5 c 128,-1,7
 -23 210 -23 210 13 427 c 1,8,-1
 15 432 l 1,9,-1
 289 432 l 1,10,11
 270 308 270 308 306.5 253.5 c 128,-1,12
 343 199 343 199 418 199 c 0,13,14
 474 199 474 199 523 267.5 c 128,-1,15
 572 336 572 336 590 453 c 2,16,-1
 740 1456 l 1,0,-1
EndSplineSet
Substitution2: "'smcp' Lowercase to Small Capitals lookup 0 subtable" J.smcp
EndChar

StartChar: K
Encoding: 75 75 46
Width: 1103
GlyphClass: 1
Flags: W
LayerCount: 2
Fore
SplineSet
478 606 m 1,0,-1
 403 606 l 1,1,-1
 313 0 l 1,2,-1
 30 0 l 1,3,-1
 248 1456 l 1,4,-1
 531 1456 l 1,5,-1
 441 858 l 1,6,-1
 518 858 l 1,7,-1
 848 1456 l 1,8,-1
 1216 1456 l 1,9,-1
 725 734 l 1,10,-1
 1013 0 l 1,11,-1
 689 0 l 1,12,-1
 478 606 l 1,0,-1
EndSplineSet
Substitution2: "'smcp' Lowercase to Small Capitals lookup 0 subtable" K.smcp
EndChar

StartChar: L
Encoding: 76 76 47
Width: 994
GlyphClass: 1
Flags: W
LayerCount: 2
Fore
SplineSet
347 220 m 1,0,-1
 890 220 l 1,1,-1
 857 0 l 1,2,-1
 32 0 l 1,3,-1
 250 1456 l 1,4,-1
 532 1456 l 1,5,-1
 347 220 l 1,0,-1
EndSplineSet
Substitution2: "'smcp' Lowercase to Small Capitals lookup 0 subtable" L.smcp
EndChar

StartChar: M
Encoding: 77 77 48
Width: 1499
GlyphClass: 1
Flags: W
LayerCount: 2
Fore
SplineSet
721 376 m 1,0,-1
 727 376 l 1,1,-1
 1161 1456 l 1,2,-1
 1530 1456 l 1,3,-1
 1312 0 l 1,4,-1
 1032 0 l 1,5,-1
 1169 916 l 1,6,-1
 1163 918 l 1,7,-1
 763 0 l 1,8,-1
 574 0 l 1,9,-1
 449 911 l 1,10,-1
 443 911 l 1,11,-1
 307 0 l 1,12,-1
 26 0 l 1,13,-1
 244 1456 l 1,14,-1
 611 1456 l 1,15,-1
 721 376 l 1,0,-1
EndSplineSet
Substitution2: "'smcp' Lowercase to Small Capitals lookup 0 subtable" M.smcp
EndChar

StartChar: N
Encoding: 78 78 49
Width: 1256
GlyphClass: 1
Flags: W
LayerCount: 2
Fore
SplineSet
1064 0 m 1,0,-1
 782 0 l 1,1,-1
 459 929 l 1,2,-1
 453 929 l 1,3,-1
 314 0 l 1,4,-1
 32 0 l 1,5,-1
 250 1456 l 1,6,-1
 532 1456 l 1,7,-1
 855 526 l 1,8,-1
 861 526 l 1,9,-1
 1000 1456 l 1,10,-1
 1282 1456 l 1,11,-1
 1064 0 l 1,0,-1
EndSplineSet
Substitution2: "'smcp' Lowercase to Small Capitals lookup 0 subtable" N.smcp
EndChar

StartChar: O
Encoding: 79 79 50
Width: 1230
GlyphClass: 1
Flags: W
LayerCount: 2
Fore
SplineSet
1144 524 m 2,0,1
 1103 257 1103 257 939 118 c 128,-1,2
 775 -21 775 -21 531 -21 c 0,3,4
 299 -21 299 -21 172 124.5 c 128,-1,5
 45 270 45 270 84 524 c 2,6,-1
 145 930 l 2,7,8
 184 1196 184 1196 347.5 1336.5 c 128,-1,9
 511 1477 511 1477 755 1477 c 0,10,11
 987 1477 987 1477 1115 1330 c 128,-1,12
 1243 1183 1243 1183 1205 930 c 2,13,-1
 1144 524 l 2,0,1
924 933 m 2,14,15
 948 1098 948 1098 896.5 1176 c 128,-1,16
 845 1254 845 1254 721 1254 c 0,17,18
 603 1254 603 1254 526 1172.5 c 128,-1,19
 449 1091 449 1091 426 933 c 2,20,-1
 365 524 l 2,21,22
 339 356 339 356 389 278 c 128,-1,23
 439 200 439 200 564 200 c 0,24,25
 682 200 682 200 760 282 c 128,-1,26
 838 364 838 364 863 524 c 2,27,-1
 924 933 l 2,14,15
EndSplineSet
Substitution2: "'smcp' Lowercase to Small Capitals lookup 0 subtable" O.smcp
EndChar

StartChar: P
Encoding: 80 80 51
Width: 1142
GlyphClass: 1
Flags: W
LayerCount: 2
Fore
SplineSet
393 527 m 1,0,-1
 314 0 l 1,1,-1
 32 0 l 1,2,-1
 250 1456 l 1,3,-1
 737 1456 l 2,4,5
 948 1456 948 1456 1060.5 1326 c 128,-1,6
 1173 1196 1173 1196 1143 991 c 0,7,8
 1109 774 1109 774 964.5 650.5 c 128,-1,9
 820 527 820 527 598 527 c 2,10,-1
 393 527 l 1,0,-1
426 748 m 1,11,-1
 631 748 l 2,12,13
 722 748 722 748 784 817 c 128,-1,14
 846 886 846 886 861 989 c 0,15,16
 878 1100 878 1100 839 1167.5 c 128,-1,17
 800 1235 800 1235 704 1235 c 2,18,-1
 499 1235 l 1,19,-1
 426 748 l 1,11,-1
EndSplineSet
Substitution2: "'smcp' Lowercase to Small Capitals lookup 0 subtable" P.smcp
EndChar

StartChar: Q
Encoding: 81 81 52
Width: 1261
GlyphClass: 1
Flags: W
LayerCount: 2
Fore
SplineSet
1144 524 m 2,0,1
 1128 422 1128 422 1093 337.5 c 128,-1,2
 1058 253 1058 253 1007 189 c 1,3,-1
 1152 -10 l 1,4,-1
 947 -158 l 1,5,-1
 805 33 l 1,6,7
 744 6 744 6 675 -7.5 c 128,-1,8
 606 -21 606 -21 531 -21 c 0,9,10
 299 -21 299 -21 172 124.5 c 128,-1,11
 45 270 45 270 84 524 c 2,12,-1
 145 930 l 2,13,14
 184 1196 184 1196 347.5 1336.5 c 128,-1,15
 511 1477 511 1477 755 1477 c 0,16,17
 987 1477 987 1477 1115 1330 c 128,-1,18
 1243 1183 1243 1183 1205 930 c 2,19,-1
 1144 524 l 2,0,1
924 933 m 2,20,21
 948 1098 948 1098 896.5 1176 c 128,-1,22
 845 1254 845 1254 721 1254 c 0,23,24
 603 1254 603 1254 526 1172.5 c 128,-1,25
 449 1091 449 1091 426 933 c 2,26,-1
 365 524 l 2,27,28
 339 356 339 356 389 278 c 128,-1,29
 439 200 439 200 564 200 c 0,30,31
 682 200 682 200 760 282 c 128,-1,32
 838 364 838 364 863 524 c 2,33,-1
 924 933 l 2,20,21
EndSplineSet
Substitution2: "'smcp' Lowercase to Small Capitals lookup 0 subtable" Q.smcp
EndChar

StartChar: R
Encoding: 82 82 53
Width: 1130
GlyphClass: 1
Flags: W
LayerCount: 2
Fore
SplineSet
401 584 m 1,0,-1
 314 0 l 1,1,-1
 32 0 l 1,2,-1
 250 1455 l 1,3,-1
 686 1455 l 2,4,5
 895 1455 895 1455 1006.5 1340.5 c 128,-1,6
 1118 1226 1118 1226 1088 1027 c 0,7,8
 1070 908 1070 908 1006 827 c 128,-1,9
 942 746 942 746 833 698 c 1,10,11
 938 659 938 659 976.5 570 c 128,-1,12
 1015 481 1015 481 997 353 c 2,13,-1
 981 247 l 2,14,15
 971 184 971 184 975.5 118 c 128,-1,16
 980 52 980 52 1011 21 c 1,17,-1
 1008 0 l 1,18,-1
 716 0 l 1,19,20
 687 32 687 32 687.5 104.5 c 128,-1,21
 688 177 688 177 699 249 c 2,22,-1
 715 351 l 2,23,24
 732 466 732 466 695.5 525 c 128,-1,25
 659 584 659 584 572 584 c 2,26,-1
 401 584 l 1,0,-1
434 804 m 1,27,-1
 587 804 l 2,28,29
 675 804 675 804 731.5 859 c 128,-1,30
 788 914 788 914 804 1013 c 0,31,32
 820 1119 820 1119 782 1177 c 128,-1,33
 744 1235 744 1235 653 1235 c 2,34,-1
 499 1235 l 1,35,-1
 434 804 l 1,27,-1
EndSplineSet
Substitution2: "'smcp' Lowercase to Small Capitals lookup 0 subtable" R.smcp
EndChar

StartChar: S
Encoding: 83 83 54
Width: 1101
GlyphClass: 1
Flags: W
LayerCount: 2
Fore
SplineSet
750 351 m 0,0,1
 764 449 764 449 720 501.5 c 128,-1,2
 676 554 676 554 551 614 c 1,3,4
 332 695 332 695 228 807.5 c 128,-1,5
 124 920 124 920 152 1102 c 0,6,7
 178 1276 178 1276 316 1376.5 c 128,-1,8
 454 1477 454 1477 648 1477 c 0,9,10
 862 1477 862 1477 980.5 1358 c 128,-1,11
 1099 1239 1099 1239 1064 1032 c 1,12,-1
 1061 1026 l 1,13,-1
 788 1026 l 1,14,15
 803 1129 803 1129 754.5 1192.5 c 128,-1,16
 706 1256 706 1256 614 1256 c 0,17,18
 549 1256 549 1256 496 1211.5 c 128,-1,19
 443 1167 443 1167 435 1104 c 0,20,21
 420 1010 420 1010 468.5 960.5 c 128,-1,22
 517 911 517 911 669 845 c 1,23,24
 871 767 871 767 965 654.5 c 128,-1,25
 1059 542 1059 542 1031 353 c 0,26,27
 1003 171 1003 171 867.5 75 c 128,-1,28
 732 -21 732 -21 533 -21 c 0,29,30
 324 -21 324 -21 182.5 87 c 128,-1,31
 41 195 41 195 80 422 c 1,32,-1
 82 428 l 1,33,-1
 355 428 l 1,34,35
 336 302 336 302 402 250.5 c 128,-1,36
 468 199 468 199 566 199 c 0,37,38
 631 199 631 199 685 242.5 c 128,-1,39
 739 286 739 286 750 351 c 0,0,1
EndSplineSet
Substitution2: "'smcp' Lowercase to Small Capitals lookup 0 subtable" S.smcp
EndChar

StartChar: T
Encoding: 84 84 55
Width: 1014
GlyphClass: 1
Flags: W
LayerCount: 2
Fore
SplineSet
1093 1235 m 1,0,-1
 751 1235 l 1,1,-1
 566 0 l 1,2,-1
 283 0 l 1,3,-1
 468 1235 l 1,4,-1
 135 1235 l 1,5,-1
 168 1456 l 1,6,-1
 1126 1456 l 1,7,-1
 1093 1235 l 1,0,-1
EndSplineSet
Substitution2: "'smcp' Lowercase to Small Capitals lookup 0 subtable" T.smcp
EndChar

StartChar: U
Encoding: 85 85 56
Width: 1229
GlyphClass: 1
Flags: W
LayerCount: 2
Fore
SplineSet
1266 1456 m 1,0,-1
 1124 505 l 2,1,2
 1085 248 1085 248 924 113.5 c 128,-1,3
 763 -21 763 -21 531 -21 c 0,4,5
 311 -21 311 -21 186 119.5 c 128,-1,6
 61 260 61 260 98 505 c 2,7,-1
 240 1456 l 1,8,-1
 521 1456 l 1,9,-1
 379 505 l 2,10,11
 355 351 355 351 405 275 c 128,-1,12
 455 199 455 199 564 199 c 0,13,14
 669 199 669 199 744 278 c 128,-1,15
 819 357 819 357 842 505 c 2,16,-1
 984 1456 l 1,17,-1
 1266 1456 l 1,0,-1
EndSplineSet
Substitution2: "'smcp' Lowercase to Small Capitals lookup 0 subtable" U.smcp
EndChar

StartChar: V
Encoding: 86 86 57
Width: 1141
GlyphClass: 1
Flags: W
LayerCount: 2
Fore
SplineSet
530 372 m 1,0,-1
 533 313 l 1,1,-1
 539 312 l 1,2,-1
 559 369 l 1,3,-1
 974 1456 l 1,4,-1
 1271 1456 l 1,5,-1
 636 0 l 1,6,-1
 343 0 l 1,7,-1
 146 1456 l 1,8,-1
 443 1456 l 1,9,-1
 530 372 l 1,0,-1
EndSplineSet
Substitution2: "'smcp' Lowercase to Small Capitals lookup 0 subtable" V.smcp
EndChar

StartChar: W
Encoding: 87 87 58
Width: 1566
GlyphClass: 1
Flags: W
LayerCount: 2
Fore
SplineSet
1103 534 m 1,0,-1
 1109 533 l 1,1,-1
 1396 1456 l 1,2,-1
 1683 1456 l 1,3,-1
 1180 0 l 1,4,-1
 918 0 l 1,5,-1
 840 901 l 1,6,-1
 834 902 l 1,7,-1
 487 0 l 1,8,-1
 225 0 l 1,9,-1
 156 1456 l 1,10,-1
 445 1456 l 1,11,-1
 456 531 l 1,12,-1
 462 530 l 1,13,-1
 809 1456 l 1,14,-1
 1031 1456 l 1,15,-1
 1103 534 l 1,0,-1
EndSplineSet
Substitution2: "'smcp' Lowercase to Small Capitals lookup 0 subtable" W.smcp
EndChar

StartChar: X
Encoding: 88 88 59
Width: 1141
GlyphClass: 1
Flags: W
LayerCount: 2
Fore
SplineSet
626 941 m 1,0,-1
 632 940 l 1,1,-1
 916 1456 l 1,2,-1
 1243 1456 l 1,3,-1
 773 734 l 1,4,-1
 1049 0 l 1,5,-1
 708 0 l 1,6,-1
 573 525 l 1,7,-1
 567 526 l 1,8,-1
 275 0 l 1,9,-1
 -53 0 l 1,10,-1
 428 734 l 1,11,-1
 173 1456 l 1,12,-1
 499 1456 l 1,13,-1
 626 941 l 1,0,-1
EndSplineSet
Substitution2: "'smcp' Lowercase to Small Capitals lookup 0 subtable" X.smcp
EndChar

StartChar: Y
Encoding: 89 89 60
Width: 1141
GlyphClass: 1
Flags: W
LayerCount: 2
Fore
SplineSet
610 823 m 1,0,-1
 616 822 l 1,1,-1
 962 1456 l 1,2,-1
 1270 1456 l 1,3,-1
 705 519 l 1,4,-1
 627 0 l 1,5,-1
 346 0 l 1,6,-1
 427 537 l 1,7,-1
 147 1456 l 1,8,-1
 455 1456 l 1,9,-1
 610 823 l 1,0,-1
EndSplineSet
Substitution2: "'smcp' Lowercase to Small Capitals lookup 0 subtable" Y.smcp
EndChar

StartChar: Z
Encoding: 90 90 61
Width: 1012
GlyphClass: 1
Flags: W
LayerCount: 2
Fore
SplineSet
352 220 m 1,0,-1
 914 220 l 1,1,-1
 881 0 l 1,2,-1
 15 0 l 1,3,-1
 0 142 l 1,4,-1
 659 1235 l 1,5,-1
 177 1235 l 1,6,-1
 210 1456 l 1,7,-1
 1034 1456 l 1,8,-1
 1014 1319 l 1,9,-1
 352 220 l 1,0,-1
EndSplineSet
Substitution2: "'smcp' Lowercase to Small Capitals lookup 0 subtable" Z.smcp
EndChar

StartChar: bracketleft
Encoding: 91 91 62
Width: 533
GlyphClass: 1
Flags: W
LayerCount: 2
Fore
SplineSet
642 1482 m 1,0,-1
 525 1482 l 1,1,-1
 300 -127 l 1,2,-1
 417 -127 l 1,3,-1
 388 -337 l 1,4,-1
 -14 -337 l 1,5,-1
 270 1693 l 1,6,-1
 672 1693 l 1,7,-1
 642 1482 l 1,0,-1
EndSplineSet
EndChar

StartChar: backslash
Encoding: 92 92 63
Width: 765
GlyphClass: 1
Flags: W
LayerCount: 2
Fore
SplineSet
138 1456 m 1,0,-1
 416 1456 l 1,1,-1
 702 -125 l 1,2,-1
 422 -125 l 1,3,-1
 138 1456 l 1,0,-1
EndSplineSet
EndChar

StartChar: bracketright
Encoding: 93 93 64
Width: 533
GlyphClass: 1
Flags: W
LayerCount: 2
Fore
SplineSet
181 1693 m 1,0,-1
 583 1693 l 1,1,-1
 299 -337 l 1,2,-1
 -103 -337 l 1,3,-1
 -74 -127 l 1,4,-1
 44 -127 l 1,5,-1
 269 1482 l 1,6,-1
 151 1482 l 1,7,-1
 181 1693 l 1,0,-1
EndSplineSet
EndChar

StartChar: asciicircum
Encoding: 94 94 65
Width: 793
GlyphClass: 1
Flags: W
LayerCount: 2
Fore
SplineSet
286 729 m 1,0,-1
 68 729 l 1,1,-1
 434 1456 l 1,2,-1
 639 1456 l 1,3,-1
 786 729 l 1,4,-1
 568 729 l 1,5,-1
 495 1153 l 1,6,-1
 494 1165 l 1,7,-1
 488 1166 l 1,8,-1
 484 1153 l 1,9,-1
 286 729 l 1,0,-1
EndSplineSet
EndChar

StartChar: underscore
Encoding: 95 95 66
Width: 802
GlyphClass: 1
Flags: W
LayerCount: 2
Fore
SplineSet
681 -214 m 1,0,-1
 -106 -214 l 1,1,-1
 -74 0 l 1,2,-1
 713 0 l 1,3,-1
 681 -214 l 1,0,-1
EndSplineSet
EndChar

StartChar: grave
Encoding: 96 96 67
Width: 633
GlyphClass: 1
Flags: W
LayerCount: 2
Fore
SplineSet
643 1252 m 1,0,-1
 397 1252 l 1,1,-1
 186 1513 l 1,2,-1
 189 1518 l 1,3,-1
 502 1518 l 1,4,-1
 643 1252 l 1,0,-1
EndSplineSet
EndChar

StartChar: a
Encoding: 97 97 68
Width: 957
GlyphClass: 1
Flags: W
LayerCount: 2
Fore
SplineSet
554 0 m 1,0,1
 544 37 544 37 539.5 79 c 128,-1,2
 535 121 535 121 537 164 c 1,3,4
 489 83 489 83 422.5 31 c 128,-1,5
 356 -21 356 -21 271 -21 c 0,6,7
 129 -21 129 -21 60 66.5 c 128,-1,8
 -9 154 -9 154 12 303 c 0,9,10
 36 467 36 467 152.5 551.5 c 128,-1,11
 269 636 269 636 479 636 c 2,12,-1
 602 636 l 1,13,-1
 616 726 l 2,14,15
 628 809 628 809 605 851.5 c 128,-1,16
 582 894 582 894 522 894 c 0,17,18
 472 894 472 894 438.5 858.5 c 128,-1,19
 405 823 405 823 396 759 c 1,20,-1
 124 760 l 1,21,-1
 123 766 l 1,22,23
 139 911 139 911 263.5 1006.5 c 128,-1,24
 388 1102 388 1102 571 1102 c 0,25,26
 735 1102 735 1102 829.5 1003.5 c 128,-1,27
 924 905 924 905 898 724 c 2,28,-1
 831 280 l 2,29,30
 819 200 819 200 820 134 c 128,-1,31
 821 68 821 68 834 0 c 1,32,-1
 554 0 l 1,0,1
375 188 m 0,33,34
 429 188 429 188 479.5 223.5 c 128,-1,35
 530 259 530 259 553 308 c 1,36,-1
 578 476 l 1,37,-1
 455 476 l 2,38,39
 387 476 387 476 346 429.5 c 128,-1,40
 305 383 305 383 295 314 c 0,41,42
 286 255 286 255 307.5 221.5 c 128,-1,43
 329 188 329 188 375 188 c 0,33,34
EndSplineSet
Substitution2: "'smcp' Lowercase to Small Capitals lookup 0 subtable" A.smcp
EndChar

StartChar: b
Encoding: 98 98 69
Width: 1008
GlyphClass: 1
Flags: W
LayerCount: 2
Fore
SplineSet
949 514 m 2,0,1
 911 260 911 260 798.5 119.5 c 128,-1,2
 686 -21 686 -21 506 -21 c 0,3,4
 430 -21 430 -21 377.5 16.5 c 128,-1,5
 325 54 325 54 294 126 c 1,6,-1
 255 0 l 1,7,-1
 14 0 l 1,8,-1
 248 1560 l 1,9,-1
 529 1560 l 1,10,-1
 443 986 l 1,11,12
 490 1042 490 1042 547.5 1072 c 128,-1,13
 605 1102 605 1102 673 1102 c 0,14,15
 845 1102 845 1102 917.5 946 c 128,-1,16
 990 790 990 790 952 535 c 2,17,-1
 949 514 l 2,0,1
670 535 m 2,18,19
 695 703 695 703 675.5 791.5 c 128,-1,20
 656 880 656 880 568 880 c 0,21,22
 520 880 520 880 480.5 853.5 c 128,-1,23
 441 827 441 827 412 780 c 1,24,-1
 337 282 l 1,25,26
 352 241 352 241 384 220.5 c 128,-1,27
 416 200 416 200 467 200 c 0,28,29
 553 200 553 200 598.5 281.5 c 128,-1,30
 644 363 644 363 667 514 c 2,31,-1
 670 535 l 2,18,19
EndSplineSet
Substitution2: "'smcp' Lowercase to Small Capitals lookup 0 subtable" B.smcp
EndChar

StartChar: c
Encoding: 99 99 70
Width: 921
GlyphClass: 1
Flags: W
LayerCount: 2
Fore
SplineSet
442 199 m 0,0,1
 500 199 500 199 538.5 244 c 128,-1,2
 577 289 577 289 590 371 c 1,3,-1
 845 371 l 1,4,-1
 847 365 l 1,5,6
 824 189 824 189 701 84 c 128,-1,7
 578 -21 578 -21 409 -21 c 0,8,9
 206 -21 206 -21 111 133.5 c 128,-1,10
 16 288 16 288 52 526 c 2,11,-1
 56 555 l 2,12,13
 93 804 93 804 228 953 c 128,-1,14
 363 1102 363 1102 576 1102 c 0,15,16
 745 1102 745 1102 836 987.5 c 128,-1,17
 927 873 927 873 899 681 c 1,18,-1
 636 681 l 1,19,20
 650 774 650 774 627 827.5 c 128,-1,21
 604 881 604 881 543 881 c 0,22,23
 459 881 459 881 409 790 c 128,-1,24
 359 699 359 699 338 555 c 2,25,-1
 334 526 l 2,26,27
 310 370 310 370 331 284.5 c 128,-1,28
 352 199 352 199 442 199 c 0,0,1
EndSplineSet
Substitution2: "'smcp' Lowercase to Small Capitals lookup 0 subtable" C.smcp
EndChar

StartChar: d
Encoding: 100 100 71
Width: 1008
GlyphClass: 1
Flags: W
LayerCount: 2
Fore
SplineSet
56 535 m 2,0,1
 96 800 96 800 212.5 951 c 128,-1,2
 329 1102 329 1102 505 1102 c 0,3,4
 568 1102 568 1102 616 1069.5 c 128,-1,5
 664 1037 664 1037 697 977 c 1,6,-1
 785 1560 l 1,7,-1
 1067 1560 l 1,8,-1
 833 0 l 1,9,-1
 592 0 l 1,10,-1
 589 122 l 1,11,12
 536 52 536 52 472.5 15.5 c 128,-1,13
 409 -21 409 -21 335 -21 c 0,14,15
 170 -21 170 -21 93.5 127 c 128,-1,16
 17 275 17 275 53 514 c 2,17,-1
 56 535 l 2,0,1
333 514 m 2,18,19
 310 361 310 361 333.5 280.5 c 128,-1,20
 357 200 357 200 441 200 c 0,21,22
 486 200 486 200 525 223 c 128,-1,23
 564 246 564 246 594 289 c 1,24,-1
 668 782 l 1,25,26
 651 828 651 828 619.5 854 c 128,-1,27
 588 880 588 880 544 880 c 0,28,29
 466 880 466 880 412.5 783.5 c 128,-1,30
 359 687 359 687 336 535 c 2,31,-1
 333 514 l 2,18,19
EndSplineSet
Substitution2: "'smcp' Lowercase to Small Capitals lookup 0 subtable" D.smcp
EndChar

StartChar: e
Encoding: 101 101 72
Width: 937
GlyphClass: 1
Flags: W
LayerCount: 2
Fore
SplineSet
425 -21 m 0,0,1
 220 -21 220 -21 119.5 128.5 c 128,-1,2
 19 278 19 278 54 508 c 2,3,-1
 60 549 l 2,4,5
 98 803 98 803 233 952.5 c 128,-1,6
 368 1102 368 1102 576 1102 c 0,7,8
 759 1102 759 1102 845 969.5 c 128,-1,9
 931 837 931 837 898 615 c 2,10,-1
 875 461 l 1,11,-1
 329 461 l 1,12,13
 317 338 317 338 354 268.5 c 128,-1,14
 391 199 391 199 491 199 c 0,15,16
 572 199 572 199 634 219 c 128,-1,17
 696 239 696 239 765 280 c 1,18,-1
 812 104 l 1,19,20
 746 51 746 51 641.5 15 c 128,-1,21
 537 -21 537 -21 425 -21 c 0,0,1
543 881 m 0,22,23
 475 881 475 881 429.5 818 c 128,-1,24
 384 755 384 755 359 647 c 1,25,-1
 627 647 l 1,26,-1
 631 672 l 2,27,28
 646 775 646 775 627 828 c 128,-1,29
 608 881 608 881 543 881 c 0,22,23
EndSplineSet
Substitution2: "'smcp' Lowercase to Small Capitals lookup 0 subtable" E.smcp
EndChar

StartChar: f
Encoding: 102 102 73
Width: 638
GlyphClass: 1
Flags: W
LayerCount: 2
Fore
SplineSet
78 0 m 1,0,-1
 210 881 l 1,1,-1
 75 881 l 1,2,-1
 105 1082 l 1,3,-1
 240 1082 l 1,4,-1
 259 1204 l 2,5,6
 286 1392 286 1392 394 1486.5 c 128,-1,7
 502 1581 502 1581 676 1581 c 0,8,9
 708 1581 708 1581 741.5 1575.5 c 128,-1,10
 775 1570 775 1570 815 1560 c 1,11,-1
 761 1348 l 1,12,13
 741 1353 741 1353 722.5 1356 c 128,-1,14
 704 1359 704 1359 678 1359 c 0,15,16
 624 1359 624 1359 587.5 1318 c 128,-1,17
 551 1277 551 1277 541 1204 c 2,18,-1
 522 1082 l 1,19,-1
 696 1082 l 1,20,-1
 666 881 l 1,21,-1
 492 881 l 1,22,-1
 360 0 l 1,23,-1
 78 0 l 1,0,-1
EndSplineSet
Substitution2: "'smcp' Lowercase to Small Capitals lookup 0 subtable" F.smcp
EndChar

StartChar: g
Encoding: 103 103 74
Width: 1008
GlyphClass: 1
Flags: W
LayerCount: 2
Fore
SplineSet
57 535 m 2,0,1
 97 800 97 800 213.5 951 c 128,-1,2
 330 1102 330 1102 506 1102 c 0,3,4
 579 1102 579 1102 630.5 1063 c 128,-1,5
 682 1024 682 1024 713 952 c 1,6,-1
 752 1082 l 1,7,-1
 997 1082 l 1,8,-1
 836 6 l 2,9,10
 802 -213 802 -213 663 -325 c 128,-1,11
 524 -437 524 -437 303 -437 c 0,12,13
 234 -437 234 -437 156 -414.5 c 128,-1,14
 78 -392 78 -392 15 -355 c 1,15,-1
 94 -141 l 1,16,17
 149 -173 149 -173 206.5 -189 c 128,-1,18
 264 -205 264 -205 336 -205 c 0,19,20
 427 -205 427 -205 481.5 -152.5 c 128,-1,21
 536 -100 536 -100 553 7 c 2,22,-1
 565 87 l 1,23,24
 516 34 516 34 459.5 6.5 c 128,-1,25
 403 -21 403 -21 336 -21 c 0,26,27
 171 -21 171 -21 94.5 127 c 128,-1,28
 18 275 18 275 54 514 c 2,29,-1
 57 535 l 2,0,1
336 514 m 2,30,31
 313 360 313 360 336 280 c 128,-1,32
 359 200 359 200 443 200 c 0,33,34
 490 200 490 200 528 221 c 128,-1,35
 566 242 566 242 594 283 c 1,36,-1
 671 789 l 1,37,38
 655 832 655 832 623.5 856 c 128,-1,39
 592 880 592 880 546 880 c 0,40,41
 468 880 468 880 415 784 c 128,-1,42
 362 688 362 688 339 535 c 2,43,-1
 336 514 l 2,30,31
EndSplineSet
Substitution2: "'smcp' Lowercase to Small Capitals lookup 0 subtable" G.smcp
EndChar

StartChar: h
Encoding: 104 104 75
Width: 1008
GlyphClass: 1
Flags: W
LayerCount: 2
Fore
SplineSet
431 957 m 1,0,1
 484 1027 484 1027 550.5 1064.5 c 128,-1,2
 617 1102 617 1102 690 1102 c 0,3,4
 830 1102 830 1102 899 987 c 128,-1,5
 968 872 968 872 934 637 c 2,6,-1
 838 0 l 1,7,-1
 556 0 l 1,8,-1
 652 639 l 2,9,10
 672 778 672 778 651 829 c 128,-1,11
 630 880 630 880 567 880 c 0,12,13
 519 880 519 880 479 859 c 128,-1,14
 439 838 439 838 408 801 c 1,15,-1
 288 0 l 1,16,-1
 7 0 l 1,17,-1
 241 1560 l 1,18,-1
 522 1560 l 1,19,-1
 431 957 l 1,0,1
EndSplineSet
Substitution2: "'smcp' Lowercase to Small Capitals lookup 0 subtable" H.smcp
EndChar

StartChar: i
Encoding: 105 105 76
Width: 497
GlyphClass: 1
Flags: W
LayerCount: 2
Fore
SplineSet
309 0 m 1,0,-1
 27 0 l 1,1,-1
 189 1082 l 1,2,-1
 471 1082 l 1,3,-1
 309 0 l 1,0,-1
511 1345 m 1,4,-1
 229 1345 l 1,5,-1
 261 1560 l 1,6,-1
 543 1560 l 1,7,-1
 511 1345 l 1,4,-1
EndSplineSet
Substitution2: "'smcp' Lowercase to Small Capitals lookup 0 subtable" I.smcp
EndChar

StartChar: j
Encoding: 106 106 77
Width: 489
GlyphClass: 1
Flags: W
LayerCount: 2
Fore
SplineSet
477 1082 m 1,0,-1
 309 -37 l 2,1,2
 279 -236 279 -236 174.5 -336.5 c 128,-1,3
 70 -437 70 -437 -94 -437 c 0,4,5
 -127 -437 -127 -437 -156.5 -432.5 c 128,-1,6
 -186 -428 -186 -428 -220 -419 c 1,7,-1
 -174 -202 l 1,8,9
 -153 -208 -153 -208 -135 -211.5 c 128,-1,10
 -117 -215 -117 -215 -95 -215 c 0,11,12
 -50 -215 -50 -215 -18.5 -170 c 128,-1,13
 13 -125 13 -125 27 -37 c 2,14,-1
 195 1082 l 1,15,-1
 477 1082 l 1,0,-1
512 1347 m 1,16,-1
 229 1347 l 1,17,-1
 261 1560 l 1,18,-1
 544 1560 l 1,19,-1
 512 1347 l 1,16,-1
EndSplineSet
Substitution2: "'smcp' Lowercase to Small Capitals lookup 0 subtable" J.smcp
EndChar

StartChar: k
Encoding: 107 107 78
Width: 973
GlyphClass: 1
Flags: W
LayerCount: 2
Fore
SplineSet
415 454 m 1,0,-1
 364 454 l 1,1,-1
 296 0 l 1,2,-1
 14 0 l 1,3,-1
 248 1560 l 1,4,-1
 530 1560 l 1,5,-1
 396 672 l 1,6,-1
 443 672 l 1,7,-1
 700 1082 l 1,8,-1
 1025 1082 l 1,9,-1
 658 594 l 1,10,-1
 907 0 l 1,11,-1
 584 0 l 1,12,-1
 415 454 l 1,0,-1
EndSplineSet
Substitution2: "'smcp' Lowercase to Small Capitals lookup 0 subtable" K.smcp
EndChar

StartChar: l
Encoding: 108 108 79
Width: 497
GlyphClass: 1
Flags: W
LayerCount: 2
Fore
SplineSet
309 0 m 1,0,-1
 27 0 l 1,1,-1
 261 1560 l 1,2,-1
 543 1560 l 1,3,-1
 309 0 l 1,0,-1
EndSplineSet
Substitution2: "'smcp' Lowercase to Small Capitals lookup 0 subtable" L.smcp
EndChar

StartChar: m
Encoding: 109 109 80
Width: 1530
GlyphClass: 1
Flags: W
LayerCount: 2
Fore
SplineSet
430 948 m 1,0,1
 485 1022 485 1022 557 1062 c 128,-1,2
 629 1102 629 1102 716 1102 c 0,3,4
 796 1102 796 1102 852 1057.5 c 128,-1,5
 908 1013 908 1013 929 924 c 1,6,7
 984 1009 984 1009 1059 1055.5 c 128,-1,8
 1134 1102 1134 1102 1226 1102 c 0,9,10
 1357 1102 1357 1102 1421 986.5 c 128,-1,11
 1485 871 1485 871 1451 639 c 2,12,-1
 1355 0 l 1,13,-1
 1073 0 l 1,14,-1
 1169 639 l 2,15,16
 1190 781 1190 781 1169 830.5 c 128,-1,17
 1148 880 1148 880 1087 880 c 0,18,19
 1044 880 1044 880 1006.5 853.5 c 128,-1,20
 969 827 969 827 939 781 c 1,21,22
 938 764 938 764 936 745.5 c 128,-1,23
 934 727 934 727 931 705 c 2,24,-1
 825 0 l 1,25,-1
 544 0 l 1,26,-1
 640 639 l 2,27,28
 661 779 661 779 640 829.5 c 128,-1,29
 619 880 619 880 557 880 c 0,30,31
 516 880 516 880 480.5 858.5 c 128,-1,32
 445 837 445 837 415 797 c 1,33,-1
 296 0 l 1,34,-1
 14 0 l 1,35,-1
 176 1082 l 1,36,-1
 439 1082 l 1,37,-1
 430 948 l 1,0,1
EndSplineSet
Substitution2: "'smcp' Lowercase to Small Capitals lookup 0 subtable" M.smcp
EndChar

StartChar: n
Encoding: 110 110 81
Width: 1008
GlyphClass: 1
Flags: W
LayerCount: 2
Fore
SplineSet
424 937 m 1,0,1
 482 1016 482 1016 555 1059 c 128,-1,2
 628 1102 628 1102 710 1102 c 0,3,4
 843 1102 843 1102 908 993.5 c 128,-1,5
 973 885 973 885 939 657 c 2,6,-1
 840 0 l 1,7,-1
 558 0 l 1,8,-1
 657 657 l 2,9,10
 675 784 675 784 653.5 832 c 128,-1,11
 632 880 632 880 571 880 c 0,12,13
 525 880 525 880 484 856.5 c 128,-1,14
 443 833 443 833 410 791 c 1,15,-1
 291 0 l 1,16,-1
 9 0 l 1,17,-1
 171 1082 l 1,18,-1
 434 1082 l 1,19,-1
 424 937 l 1,0,1
EndSplineSet
Substitution2: "'smcp' Lowercase to Small Capitals lookup 0 subtable" N.smcp
EndChar

StartChar: o
Encoding: 111 111 82
Width: 1008
GlyphClass: 1
Flags: W
LayerCount: 2
Fore
SplineSet
62 551 m 1,0,1
 99 804 99 804 237 953 c 128,-1,2
 375 1102 375 1102 588 1102 c 0,3,4
 790 1102 790 1102 888.5 947 c 128,-1,5
 987 792 987 792 952 551 c 1,6,-1
 948 528 l 1,7,8
 910 275 910 275 771.5 127 c 128,-1,9
 633 -21 633 -21 422 -21 c 0,10,11
 219 -21 219 -21 120.5 133 c 128,-1,12
 22 287 22 287 58 528 c 1,13,-1
 62 551 l 1,0,1
339 528 m 1,14,15
 316 371 316 371 340 285 c 128,-1,16
 364 199 364 199 455 199 c 0,17,18
 538 199 538 199 591 289.5 c 128,-1,19
 644 380 644 380 666 528 c 2,20,-1
 670 551 l 2,21,22
 693 705 693 705 668.5 793 c 128,-1,23
 644 881 644 881 555 881 c 0,24,25
 470 881 470 881 417 788.5 c 128,-1,26
 364 696 364 696 343 551 c 1,27,-1
 339 528 l 1,14,15
EndSplineSet
Substitution2: "'smcp' Lowercase to Small Capitals lookup 0 subtable" O.smcp
EndChar

StartChar: p
Encoding: 112 112 83
Width: 1008
GlyphClass: 1
Flags: W
LayerCount: 2
Fore
SplineSet
949 514 m 2,0,1
 911 263 911 263 795.5 121 c 128,-1,2
 680 -21 680 -21 506 -21 c 0,3,4
 439 -21 439 -21 390 8.5 c 128,-1,5
 341 38 341 38 309 94 c 1,6,-1
 233 -416 l 1,7,-1
 -48 -416 l 1,8,-1
 176 1082 l 1,9,-1
 434 1082 l 1,10,-1
 430 971 l 1,11,12
 479 1034 479 1034 539 1068 c 128,-1,13
 599 1102 599 1102 672 1102 c 0,14,15
 839 1102 839 1102 914.5 944.5 c 128,-1,16
 990 787 990 787 952 535 c 2,17,-1
 949 514 l 2,0,1
670 535 m 2,18,19
 694 695 694 695 670.5 787.5 c 128,-1,20
 647 880 647 880 566 880 c 0,21,22
 519 880 519 880 480.5 854.5 c 128,-1,23
 442 829 442 829 412 783 c 1,24,-1
 337 277 l 1,25,26
 352 239 352 239 383.5 219 c 128,-1,27
 415 199 415 199 465 199 c 0,28,29
 544 199 544 199 594.5 284 c 128,-1,30
 645 369 645 369 667 514 c 2,31,-1
 670 535 l 2,18,19
EndSplineSet
Substitution2: "'smcp' Lowercase to Small Capitals lookup 0 subtable" P.smcp
EndChar

StartChar: q
Encoding: 113 113 84
Width: 1008
GlyphClass: 1
Flags: W
LayerCount: 2
Fore
SplineSet
56 535 m 2,0,1
 96 800 96 800 212.5 951 c 128,-1,2
 329 1102 329 1102 505 1102 c 0,3,4
 577 1102 577 1102 627.5 1064 c 128,-1,5
 678 1026 678 1026 710 957 c 1,6,-1
 752 1082 l 1,7,-1
 994 1082 l 1,8,-1
 770 -416 l 1,9,-1
 487 -416 l 1,10,-1
 562 85 l 1,11,12
 515 33 515 33 458 6 c 128,-1,13
 401 -21 401 -21 335 -21 c 0,14,15
 170 -21 170 -21 93.5 127 c 128,-1,16
 17 275 17 275 53 514 c 2,17,-1
 56 535 l 2,0,1
333 514 m 2,18,19
 310 361 310 361 333.5 280 c 128,-1,20
 357 199 357 199 441 199 c 0,21,22
 488 199 488 199 525 219 c 128,-1,23
 562 239 562 239 591 279 c 1,24,-1
 668 793 l 1,25,26
 651 835 651 835 620.5 858 c 128,-1,27
 590 881 590 881 544 881 c 0,28,29
 466 881 466 881 412.5 784.5 c 128,-1,30
 359 688 359 688 336 535 c 2,31,-1
 333 514 l 2,18,19
EndSplineSet
Substitution2: "'smcp' Lowercase to Small Capitals lookup 0 subtable" Q.smcp
EndChar

StartChar: r
Encoding: 114 114 85
Width: 637
GlyphClass: 1
Flags: W
LayerCount: 2
Fore
SplineSet
644 838 m 1,0,-1
 548 841 l 2,1,2
 502 841 502 841 466 814.5 c 128,-1,3
 430 788 430 788 406 741 c 1,4,-1
 295 0 l 1,5,-1
 14 0 l 1,6,-1
 176 1082 l 1,7,-1
 439 1082 l 1,8,-1
 429 941 l 1,9,-1
 434 939 l 1,10,11
 472 1016 472 1016 526 1059 c 128,-1,12
 580 1102 580 1102 644 1102 c 0,13,14
 663 1102 663 1102 679 1098.5 c 128,-1,15
 695 1095 695 1095 711 1090 c 1,16,-1
 644 838 l 1,0,-1
EndSplineSet
Substitution2: "'smcp' Lowercase to Small Capitals lookup 0 subtable" R.smcp
EndChar

StartChar: s
Encoding: 115 115 86
Width: 899
GlyphClass: 1
Flags: W
LayerCount: 2
Fore
SplineSet
539 282 m 0,0,1
 546 332 546 332 514.5 364.5 c 128,-1,2
 483 397 483 397 383 447 c 1,3,4
 226 508 226 508 154 585.5 c 128,-1,5
 82 663 82 663 99 784 c 0,6,7
 118 921 118 921 235 1011.5 c 128,-1,8
 352 1102 352 1102 528 1102 c 0,9,10
 703 1102 703 1102 801.5 1004.5 c 128,-1,11
 900 907 900 907 875 762 c 1,12,-1
 873 756 l 1,13,-1
 600 756 l 1,14,15
 610 827 610 827 585.5 867 c 128,-1,16
 561 907 561 907 500 907 c 0,17,18
 452 907 452 907 413 874.5 c 128,-1,19
 374 842 374 842 369 797 c 0,20,21
 361 747 361 747 389.5 719 c 128,-1,22
 418 691 418 691 523 638 c 1,23,24
 687 579 687 579 759 499.5 c 128,-1,25
 831 420 831 420 813 293 c 0,26,27
 792 150 792 150 671 64.5 c 128,-1,28
 550 -21 550 -21 367 -21 c 0,29,30
 185 -21 185 -21 87 88 c 128,-1,31
 -11 197 -11 197 13 332 c 1,32,-1
 15 338 l 1,33,-1
 272 338 l 1,34,35
 262 250 262 250 296.5 211.5 c 128,-1,36
 331 173 331 173 401 173 c 0,37,38
 459 173 459 173 495.5 203 c 128,-1,39
 532 233 532 233 539 282 c 0,0,1
EndSplineSet
Substitution2: "'smcp' Lowercase to Small Capitals lookup 0 subtable" S.smcp
EndChar

StartChar: t
Encoding: 116 116 87
Width: 635
GlyphClass: 1
Flags: W
LayerCount: 2
Fore
SplineSet
547 1351 m 1,0,-1
 506 1082 l 1,1,-1
 653 1082 l 1,2,-1
 623 881 l 1,3,-1
 476 881 l 1,4,-1
 394 330 l 2,5,6
 382 259 382 259 398 231 c 128,-1,7
 414 203 414 203 449 203 c 0,8,9
 468 203 468 203 482.5 205.5 c 128,-1,10
 497 208 497 208 516 214 c 1,11,-1
 507 6 l 1,12,13
 465 -8 465 -8 427.5 -14.5 c 128,-1,14
 390 -21 390 -21 344 -21 c 0,15,16
 211 -21 211 -21 147.5 63.5 c 128,-1,17
 84 148 84 148 111 328 c 2,18,-1
 194 881 l 1,19,-1
 63 881 l 1,20,-1
 93 1082 l 1,21,-1
 224 1082 l 1,22,-1
 265 1351 l 1,23,-1
 547 1351 l 1,0,-1
EndSplineSet
Substitution2: "'smcp' Lowercase to Small Capitals lookup 0 subtable" T.smcp
EndChar

StartChar: u
Encoding: 117 117 88
Width: 1008
GlyphClass: 1
Flags: W
LayerCount: 2
Fore
SplineSet
600 149 m 1,0,1
 546 66 546 66 474 22.5 c 128,-1,2
 402 -21 402 -21 317 -21 c 0,3,4
 176 -21 176 -21 107.5 97 c 128,-1,5
 39 215 39 215 76 458 c 2,6,-1
 169 1082 l 1,7,-1
 451 1082 l 1,8,-1
 357 456 l 2,9,10
 334 305 334 305 354.5 252.5 c 128,-1,11
 375 200 375 200 437 200 c 0,12,13
 485 200 485 200 525.5 219.5 c 128,-1,14
 566 239 566 239 598 277 c 1,15,-1
 718 1082 l 1,16,-1
 1001 1082 l 1,17,-1
 839 0 l 1,18,-1
 608 0 l 1,19,-1
 600 149 l 1,0,1
EndSplineSet
Substitution2: "'smcp' Lowercase to Small Capitals lookup 0 subtable" U.smcp
EndChar

StartChar: v
Encoding: 118 118 89
Width: 920
GlyphClass: 1
Flags: W
LayerCount: 2
Fore
SplineSet
424 400 m 1,0,-1
 425 318 l 1,1,-1
 431 317 l 1,2,-1
 458 400 l 1,3,-1
 692 1082 l 1,4,-1
 987 1082 l 1,5,-1
 517 0 l 1,6,-1
 242 0 l 1,7,-1
 95 1082 l 1,8,-1
 392 1082 l 1,9,-1
 424 400 l 1,0,-1
EndSplineSet
Substitution2: "'smcp' Lowercase to Small Capitals lookup 0 subtable" V.smcp
EndChar

StartChar: w
Encoding: 119 119 90
Width: 1301
GlyphClass: 1
Flags: W
LayerCount: 2
Fore
SplineSet
890 480 m 1,0,-1
 896 479 l 1,1,-1
 1082 1082 l 1,2,-1
 1354 1082 l 1,3,-1
 964 0 l 1,4,-1
 729 0 l 1,5,-1
 657 570 l 1,6,-1
 651 570 l 1,7,-1
 409 0 l 1,8,-1
 173 0 l 1,9,-1
 107 1082 l 1,10,-1
 378 1082 l 1,11,-1
 385 477 l 1,12,-1
 391 476 l 1,13,-1
 639 1082 l 1,14,-1
 822 1082 l 1,15,-1
 890 480 l 1,0,-1
EndSplineSet
Substitution2: "'smcp' Lowercase to Small Capitals lookup 0 subtable" W.smcp
EndChar

StartChar: x
Encoding: 120 120 91
Width: 920
GlyphClass: 1
Flags: W
LayerCount: 2
Fore
SplineSet
486 736 m 1,0,-1
 492 735 l 1,1,-1
 665 1082 l 1,2,-1
 983 1082 l 1,3,-1
 630 547 l 1,4,-1
 830 0 l 1,5,-1
 513 0 l 1,6,-1
 440 356 l 1,7,-1
 434 357 l 1,8,-1
 254 0 l 1,9,-1
 -64 0 l 1,10,-1
 300 547 l 1,11,-1
 106 1082 l 1,12,-1
 421 1082 l 1,13,-1
 486 736 l 1,0,-1
EndSplineSet
Substitution2: "'smcp' Lowercase to Small Capitals lookup 0 subtable" X.smcp
EndChar

StartChar: y
Encoding: 121 121 92
Width: 920
GlyphClass: 1
Flags: W
LayerCount: 2
Fore
SplineSet
430 437 m 1,0,-1
 430 437 l 1,1,-1
 436 436 l 1,2,-1
 694 1082 l 1,3,-1
 997 1082 l 1,4,-1
 438 -163 l 1,5,6
 380 -279 380 -279 298.5 -358 c 128,-1,7
 217 -437 217 -437 75 -437 c 0,8,9
 43 -437 43 -437 15.5 -431.5 c 128,-1,10
 -12 -426 -12 -426 -56 -414 c 1,11,-1
 9 -207 l 1,12,13
 21 -209 21 -209 30.5 -211 c 128,-1,14
 40 -213 40 -213 50 -213 c 0,15,16
 109 -213 109 -213 148.5 -178 c 128,-1,17
 188 -143 188 -143 211 -90 c 2,18,-1
 250 -7 l 1,19,-1
 87 1082 l 1,20,-1
 390 1082 l 1,21,-1
 430 437 l 1,0,-1
EndSplineSet
Substitution2: "'smcp' Lowercase to Small Capitals lookup 0 subtable" Y.smcp
EndChar

StartChar: z
Encoding: 122 122 93
Width: 920
GlyphClass: 1
Flags: W
LayerCount: 2
Fore
SplineSet
350 220 m 1,0,-1
 803 220 l 1,1,-1
 770 0 l 1,2,-1
 -12 0 l 1,3,-1
 13 165 l 1,4,-1
 558 861 l 1,5,-1
 130 861 l 1,6,-1
 163 1082 l 1,7,-1
 923 1082 l 1,8,-1
 899 921 l 1,9,-1
 350 220 l 1,0,-1
EndSplineSet
Substitution2: "'smcp' Lowercase to Small Capitals lookup 0 subtable" Z.smcp
EndChar

StartChar: braceleft
Encoding: 123 123 94
Width: 593
GlyphClass: 1
Flags: W
LayerCount: 2
Fore
SplineSet
373 -367 m 1,0,1
 211 -312 211 -312 155.5 -192 c 128,-1,2
 100 -72 100 -72 125 98 c 2,3,-1
 154 304 l 2,4,5
 167 408 167 408 140.5 462 c 128,-1,6
 114 516 114 516 40 516 c 1,7,-1
 47 566 l 1,8,-1
 68 713 l 1,9,10
 138 713 138 713 182 768.5 c 128,-1,11
 226 824 226 824 240 924 c 2,12,-1
 269 1132 l 2,13,14
 293 1309 293 1309 380.5 1424.5 c 128,-1,15
 468 1540 468 1540 644 1592 c 1,16,-1
 649 1590 l 1,17,-1
 680 1444 l 1,18,19
 610 1412 610 1412 573 1333 c 128,-1,20
 536 1254 536 1254 519 1132 c 2,21,-1
 490 924 l 2,22,23
 474 814 474 814 422 734.5 c 128,-1,24
 370 655 370 655 279 612 c 1,25,26
 355 565 355 565 386 484.5 c 128,-1,27
 417 404 417 404 404 304 c 2,28,-1
 375 98 l 2,29,30
 356 -27 356 -27 370.5 -104 c 128,-1,31
 385 -181 385 -181 447 -213 c 1,32,-1
 373 -367 l 1,0,1
EndSplineSet
EndChar

StartChar: bar
Encoding: 124 124 95
Width: 469
GlyphClass: 1
Flags: W
LayerCount: 2
Fore
SplineSet
223 -270 m 1,0,-1
 6 -270 l 1,1,-1
 264 1456 l 1,2,-1
 481 1456 l 1,3,-1
 223 -270 l 1,0,-1
EndSplineSet
EndChar

StartChar: braceright
Encoding: 125 125 96
Width: 593
GlyphClass: 1
Flags: W
LayerCount: 2
Fore
SplineSet
-65 -213 m 1,0,1
 4 -181 4 -181 41 -102 c 128,-1,2
 78 -23 78 -23 96 98 c 2,3,-1
 125 304 l 2,4,5
 139 413 139 413 192.5 493 c 128,-1,6
 246 573 246 573 339 617 c 1,7,8
 260 661 260 661 228 741.5 c 128,-1,9
 196 822 196 822 211 924 c 2,10,-1
 240 1132 l 2,11,12
 257 1256 257 1256 242.5 1334 c 128,-1,13
 228 1412 228 1412 167 1444 c 1,14,-1
 242 1597 l 1,15,16
 403 1542 403 1542 458 1422.5 c 128,-1,17
 513 1303 513 1303 489 1132 c 2,18,-1
 460 924 l 2,19,20
 445 820 445 820 472 766.5 c 128,-1,21
 499 713 499 713 574 713 c 1,22,-1
 567 661 l 1,23,-1
 563 637 l 1,24,-1
 554 568 l 1,25,-1
 553 568 l 1,26,-1
 546 516 l 1,27,28
 475 516 475 516 431 459.5 c 128,-1,29
 387 403 387 403 374 304 c 2,30,-1
 345 98 l 2,31,32
 320 -78 320 -78 232.5 -194 c 128,-1,33
 145 -310 145 -310 -29 -362 c 1,34,-1
 -34 -360 l 1,35,-1
 -65 -213 l 1,0,1
EndSplineSet
EndChar

StartChar: asciitilde
Encoding: 126 126 97
Width: 1139
GlyphClass: 1
Flags: W
LayerCount: 2
Fore
SplineSet
1078 760 m 1,0,1
 1054 592 1054 592 963 486 c 128,-1,2
 872 380 872 380 753 380 c 0,3,4
 683 380 683 380 624.5 412.5 c 128,-1,5
 566 445 566 445 510 515 c 0,6,7
 474 561 474 561 448 580.5 c 128,-1,8
 422 600 422 600 386 600 c 0,9,10
 348 600 348 600 312 547.5 c 128,-1,11
 276 495 276 495 266 420 c 1,12,-1
 77 446 l 1,13,14
 100 615 100 615 189.5 719 c 128,-1,15
 279 823 279 823 401 823 c 0,16,17
 469 823 469 823 531 789 c 128,-1,18
 593 755 593 755 647 690 c 1,19,20
 678 644 678 644 705 623.5 c 128,-1,21
 732 603 732 603 768 603 c 0,22,23
 805 603 805 603 841.5 657 c 128,-1,24
 878 711 878 711 889 787 c 1,25,-1
 1078 760 l 1,0,1
EndSplineSet
EndChar

StartChar: exclamdown
Encoding: 161 161 99
Width: 535
GlyphClass: 1
Flags: W
LayerCount: 2
Fore
SplineSet
273 -374 m 1,0,-1
 -10 -374 l 1,1,-1
 133 577 l 1,2,-1
 416 577 l 1,3,-1
 273 -374 l 1,0,-1
451 825 m 1,4,-1
 172 825 l 1,5,-1
 210 1082 l 1,6,-1
 489 1082 l 1,7,-1
 451 825 l 1,4,-1
EndSplineSet
EndChar

StartChar: cent
Encoding: 162 162 100
Width: 1042
GlyphClass: 1
Flags: W
LayerCount: 2
Fore
SplineSet
442 199 m 0,0,1
 500 199 500 199 538.5 244 c 128,-1,2
 577 289 577 289 590 371 c 1,3,-1
 846 371 l 1,4,-1
 848 366 l 1,5,6
 829 226 829 226 745 129 c 128,-1,7
 661 32 661 32 538 -3 c 1,8,-1
 502 -245 l 1,9,-1
 318 -245 l 1,10,-1
 352 -17 l 1,11,12
 177 5 177 5 97.5 155.5 c 128,-1,13
 18 306 18 306 52 526 c 2,14,-1
 56 555 l 2,15,16
 91 787 91 787 211 933 c 128,-1,17
 331 1079 331 1079 520 1099 c 1,18,-1
 553 1318 l 1,19,-1
 737 1318 l 1,20,-1
 702 1082 l 1,21,22
 813 1042 813 1042 867 937 c 128,-1,23
 921 832 921 832 899 681 c 1,24,-1
 636 681 l 1,25,26
 650 774 650 774 627 827.5 c 128,-1,27
 604 881 604 881 543 881 c 0,28,29
 459 881 459 881 409 790 c 128,-1,30
 359 699 359 699 338 555 c 2,31,-1
 334 526 l 2,32,33
 310 370 310 370 331 284.5 c 128,-1,34
 352 199 352 199 442 199 c 0,0,1
EndSplineSet
EndChar

StartChar: sterling
Encoding: 163 163 101
Width: 1068
GlyphClass: 1
Flags: W
LayerCount: 2
Fore
SplineSet
518 591 m 1,0,-1
 509 506 l 1,1,2
 496 423 496 423 456 349.5 c 128,-1,3
 416 276 416 276 353 220 c 1,4,-1
 965 220 l 1,5,-1
 932 0 l 1,6,-1
 65 0 l 1,7,-1
 98 220 l 1,8,-1
 107 220 l 1,9,10
 146 232 146 232 176.5 315.5 c 128,-1,11
 207 399 207 399 222 491 c 1,12,-1
 233 591 l 1,13,-1
 100 591 l 1,14,-1
 133 812 l 1,15,-1
 259 812 l 1,16,-1
 284 1026 l 1,17,18
 316 1245 316 1245 439 1361 c 128,-1,19
 562 1477 562 1477 743 1477 c 0,20,21
 926 1477 926 1477 1018 1363.5 c 128,-1,22
 1110 1250 1110 1250 1079 1068 c 1,23,-1
 1076 1063 l 1,24,-1
 802 1063 l 1,25,26
 817 1166 817 1166 789 1211 c 128,-1,27
 761 1256 761 1256 708 1256 c 0,28,29
 659 1256 659 1256 620.5 1195.5 c 128,-1,30
 582 1135 582 1135 566 1026 c 2,31,-1
 542 812 l 1,32,-1
 830 812 l 1,33,-1
 797 591 l 1,34,-1
 518 591 l 1,0,-1
EndSplineSet
EndChar

StartChar: currency
Encoding: 164 164 102
Width: 1278
GlyphClass: 1
Flags: W
LayerCount: 2
Fore
SplineSet
902 103 m 1,0,1
 824 43 824 43 736.5 11.5 c 128,-1,2
 649 -20 649 -20 559 -20 c 0,3,4
 472 -20 472 -20 395.5 13 c 128,-1,5
 319 46 319 46 259 107 c 1,6,-1
 121 -26 l 1,7,-1
 10 108 l 1,8,-1
 160 253 l 1,9,10
 125 329 125 329 113.5 419.5 c 128,-1,11
 102 510 102 510 117 608 c 0,12,13
 133 714 133 714 172.5 808 c 128,-1,14
 212 902 212 902 271 980 c 1,15,-1
 163 1129 l 1,16,-1
 315 1264 l 1,17,-1
 417 1124 l 1,18,19
 492 1177 492 1177 576 1205.5 c 128,-1,20
 660 1234 660 1234 747 1234 c 0,21,22
 829 1234 829 1234 903.5 1203 c 128,-1,23
 978 1172 978 1172 1037 1116 c 1,24,-1
 1190 1265 l 1,25,-1
 1301 1129 l 1,26,-1
 1139 972 l 1,27,28
 1175 893 1175 893 1187.5 800.5 c 128,-1,29
 1200 708 1200 708 1186 608 c 0,30,31
 1170 506 1170 506 1133.5 415.5 c 128,-1,32
 1097 325 1097 325 1043 250 c 1,33,-1
 1148 108 l 1,34,-1
 996 -27 l 1,35,-1
 902 103 l 1,0,1
289 608 m 0,36,37
 259 411 259 411 345 284 c 128,-1,38
 431 157 431 157 586 157 c 0,39,40
 730 157 730 157 858 288.5 c 128,-1,41
 986 420 986 420 1015 608 c 0,42,43
 1044 803 1044 803 958 929.5 c 128,-1,44
 872 1056 872 1056 720 1056 c 0,45,46
 573 1056 573 1056 445 925 c 128,-1,47
 317 794 317 794 289 608 c 0,36,37
EndSplineSet
EndChar

StartChar: yen
Encoding: 165 165 103
Width: 1096
GlyphClass: 1
Flags: W
LayerCount: 2
Fore
SplineSet
598 887 m 1,0,-1
 604 887 l 1,1,-1
 905 1456 l 1,2,-1
 1212 1456 l 1,3,-1
 778 735 l 1,4,-1
 976 735 l 1,5,-1
 952 575 l 1,6,-1
 691 575 l 1,7,-1
 672 445 l 1,8,-1
 933 445 l 1,9,-1
 909 286 l 1,10,-1
 648 286 l 1,11,-1
 605 0 l 1,12,-1
 324 0 l 1,13,-1
 367 286 l 1,14,-1
 88 286 l 1,15,-1
 112 445 l 1,16,-1
 391 445 l 1,17,-1
 410 575 l 1,18,-1
 131 575 l 1,19,-1
 155 735 l 1,20,-1
 378 735 l 1,21,-1
 159 1456 l 1,22,-1
 467 1456 l 1,23,-1
 598 887 l 1,0,-1
EndSplineSet
EndChar

StartChar: brokenbar
Encoding: 166 166 104
Width: 469
GlyphClass: 1
Flags: W
LayerCount: 2
Fore
SplineSet
-10 -270 m 1,0,-1
 109 521 l 1,1,-1
 358 521 l 1,2,-1
 240 -270 l 1,3,-1
 -10 -270 l 1,0,-1
385 698 m 1,4,-1
 136 698 l 1,5,-1
 249 1456 l 1,6,-1
 498 1456 l 1,7,-1
 385 698 l 1,4,-1
EndSplineSet
EndChar

StartChar: section
Encoding: 167 167 105
Width: 1129
GlyphClass: 1
Flags: W
LayerCount: 2
Fore
SplineSet
1024 479 m 0,0,1
 1010 385 1010 385 962.5 317.5 c 128,-1,2
 915 250 915 250 840 208 c 1,3,4
 895 157 895 157 915.5 87 c 128,-1,5
 936 17 936 17 922 -82 c 0,6,7
 894 -266 894 -266 758 -362 c 128,-1,8
 622 -458 622 -458 411 -458 c 0,9,10
 214 -458 214 -458 90.5 -358 c 128,-1,11
 -33 -258 -33 -258 4 -42 c 1,12,-1
 7 -36 l 1,13,-1
 281 -36 l 1,14,15
 263 -149 263 -149 310.5 -193 c 128,-1,16
 358 -237 358 -237 444 -237 c 0,17,18
 523 -237 523 -237 576 -194.5 c 128,-1,19
 629 -152 629 -152 640 -83 c 0,20,21
 650 -12 650 -12 608 27 c 128,-1,22
 566 66 566 66 435 116 c 1,23,24
 233 180 233 180 146 272 c 128,-1,25
 59 364 59 364 85 534 c 0,26,27
 99 627 99 627 146 695.5 c 128,-1,28
 193 764 193 764 270 806 c 1,29,30
 215 857 215 857 194 927.5 c 128,-1,31
 173 998 173 998 188 1097 c 0,32,33
 214 1275 214 1275 352.5 1376 c 128,-1,34
 491 1477 491 1477 702 1477 c 0,35,36
 907 1477 907 1477 1014.5 1364.5 c 128,-1,37
 1122 1252 1122 1252 1088 1054 c 1,38,-1
 1086 1049 l 1,39,-1
 811 1049 l 1,40,41
 825 1142 825 1142 788.5 1199 c 128,-1,42
 752 1256 752 1256 668 1256 c 0,43,44
 583 1256 583 1256 532 1211.5 c 128,-1,45
 481 1167 481 1167 471 1099 c 0,46,47
 459 1020 459 1020 497 982 c 128,-1,48
 535 944 535 944 671 896 c 1,49,50
 875 833 875 833 962 740.5 c 128,-1,51
 1049 648 1049 648 1024 479 c 0,0,1
542 669 m 0,52,53
 514 677 514 677 490.5 685.5 c 128,-1,54
 467 694 467 694 446 703 c 1,55,56
 415 680 415 680 395.5 643.5 c 128,-1,57
 376 607 376 607 370 563 c 0,58,59
 357 478 357 478 393.5 438 c 128,-1,60
 430 398 430 398 565 344 c 0,61,62
 588 336 588 336 611.5 328 c 128,-1,63
 635 320 635 320 660 311 c 1,64,65
 692 334 692 334 713.5 370 c 128,-1,66
 735 406 735 406 743 451 c 0,67,68
 754 527 754 527 712.5 571 c 128,-1,69
 671 615 671 615 542 669 c 0,52,53
EndSplineSet
EndChar

StartChar: dieresis
Encoding: 168 168 106
Width: 1009
GlyphClass: 1
Flags: W
LayerCount: 2
Fore
SplineSet
951 1259 m 1,0,-1
 701 1259 l 1,1,-1
 729 1456 l 1,2,-1
 979 1456 l 1,3,-1
 951 1259 l 1,0,-1
496 1259 m 1,4,-1
 245 1259 l 1,5,-1
 273 1456 l 1,6,-1
 524 1456 l 1,7,-1
 496 1259 l 1,4,-1
EndSplineSet
EndChar

StartChar: copyright
Encoding: 169 169 107
Width: 1456
GlyphClass: 1
Flags: W
LayerCount: 2
Fore
SplineSet
1011 596 m 1,0,-1
 1013 590 l 1,1,2
 993 434 993 434 903.5 358 c 128,-1,3
 814 282 814 282 669 282 c 0,4,5
 531 282 531 282 458.5 389.5 c 128,-1,6
 386 497 386 497 412 669 c 2,7,-1
 430 788 l 2,8,9
 456 967 456 967 556.5 1071 c 128,-1,10
 657 1175 657 1175 803 1175 c 0,11,12
 941 1175 941 1175 1011.5 1094.5 c 128,-1,13
 1082 1014 1082 1014 1056 866 c 1,14,-1
 1053 861 l 1,15,-1
 915 861 l 1,16,17
 930 962 930 962 897.5 1004.5 c 128,-1,18
 865 1047 865 1047 784 1047 c 0,19,20
 705 1047 705 1047 648 975 c 128,-1,21
 591 903 591 903 574 789 c 2,22,-1
 556 669 l 2,23,24
 537 546 537 546 570.5 477.5 c 128,-1,25
 604 409 604 409 688 409 c 0,26,27
 765 409 765 409 812.5 453 c 128,-1,28
 860 497 860 497 875 596 c 1,29,-1
 1011 596 l 1,0,-1
223 729 m 0,30,31
 181 452 181 452 307 274.5 c 128,-1,32
 433 97 433 97 656 97 c 0,33,34
 866 97 866 97 1050.5 281 c 128,-1,35
 1235 465 1235 465 1275 729 c 0,36,37
 1316 1004 1316 1004 1190.5 1180.5 c 128,-1,38
 1065 1357 1065 1357 845 1357 c 0,39,40
 634 1357 634 1357 448 1174 c 128,-1,41
 262 991 262 991 223 729 c 0,30,31
111 729 m 0,42,43
 160 1056 160 1056 376 1266 c 128,-1,44
 592 1476 592 1476 862 1476 c 0,45,46
 1116 1476 1116 1476 1275.5 1258 c 128,-1,47
 1435 1040 1435 1040 1388 729 c 0,48,49
 1339 401 1339 401 1122.5 190 c 128,-1,50
 906 -21 906 -21 638 -21 c 0,51,52
 382 -21 382 -21 223 197.5 c 128,-1,53
 64 416 64 416 111 729 c 0,42,43
EndSplineSet
EndChar

StartChar: ordfeminine
Encoding: 170 170 108
Width: 795
GlyphClass: 1
Flags: W
LayerCount: 2
Fore
SplineSet
545 706 m 1,0,1
 541 727 541 727 540 750.5 c 128,-1,2
 539 774 539 774 541 801 c 1,3,4
 506 753 506 753 454 722.5 c 128,-1,5
 402 692 402 692 337 692 c 0,6,7
 239 692 239 692 190 754 c 128,-1,8
 141 816 141 816 157 920 c 0,9,10
 174 1033 174 1033 255 1091 c 128,-1,11
 336 1149 336 1149 479 1149 c 2,12,-1
 591 1149 l 1,13,-1
 599 1202 l 2,14,15
 609 1269 609 1269 591 1303 c 128,-1,16
 573 1337 573 1337 526 1337 c 0,17,18
 475 1337 475 1337 441 1309 c 128,-1,19
 407 1281 407 1281 400 1230 c 1,20,-1
 251 1243 l 1,21,-1
 250 1249 l 1,22,23
 260 1351 260 1351 342 1414 c 128,-1,24
 424 1477 424 1477 547 1477 c 0,25,26
 659 1477 659 1477 719 1405 c 128,-1,27
 779 1333 779 1333 759 1201 c 2,28,-1
 712 887 l 2,29,30
 704 835 704 835 702.5 791.5 c 128,-1,31
 701 748 701 748 707 706 c 1,32,-1
 545 706 l 1,0,1
397 827 m 0,33,34
 436 827 436 827 487 858.5 c 128,-1,35
 538 890 538 890 557 926 c 1,36,-1
 574 1037 l 1,37,-1
 464 1037 l 2,38,39
 406 1037 406 1037 366 1003.5 c 128,-1,40
 326 970 326 970 319 924 c 0,41,42
 311 876 311 876 330 851.5 c 128,-1,43
 349 827 349 827 397 827 c 0,33,34
EndSplineSet
EndChar

StartChar: logicalnot
Encoding: 172 172 110
Width: 985
GlyphClass: 1
Flags: W
LayerCount: 2
Fore
SplineSet
865 725 m 1,0,-1
 852 639 l 1,1,-1
 812 375 l 1,2,-1
 629 375 l 1,3,-1
 669 639 l 1,4,-1
 132 639 l 1,5,-1
 156 800 l 1,6,-1
 876 800 l 1,7,-1
 865 725 l 1,0,-1
EndSplineSet
EndChar

StartChar: registered
Encoding: 174 174 112
Width: 1455
GlyphClass: 1
Flags: W
LayerCount: 2
Fore
SplineSet
111 729 m 0,0,1
 160 1056 160 1056 376 1266 c 128,-1,2
 592 1476 592 1476 861 1476 c 0,3,4
 1116 1476 1116 1476 1275.5 1258 c 128,-1,5
 1435 1040 1435 1040 1388 729 c 0,6,7
 1339 401 1339 401 1122 190 c 128,-1,8
 905 -21 905 -21 637 -21 c 0,9,10
 382 -21 382 -21 223 197.5 c 128,-1,11
 64 416 64 416 111 729 c 0,0,1
225 729 m 0,12,13
 183 452 183 452 308.5 274.5 c 128,-1,14
 434 97 434 97 655 97 c 0,15,16
 865 97 865 97 1050 281 c 128,-1,17
 1235 465 1235 465 1275 729 c 0,18,19
 1316 1005 1316 1005 1191 1181 c 128,-1,20
 1066 1357 1066 1357 844 1357 c 0,21,22
 633 1357 633 1357 448.5 1174 c 128,-1,23
 264 991 264 991 225 729 c 0,12,13
611 656 m 1,24,-1
 560 316 l 1,25,-1
 420 316 l 1,26,-1
 548 1166 l 1,27,-1
 803 1166 l 2,28,29
 933 1166 933 1166 1004 1097.5 c 128,-1,30
 1075 1029 1075 1029 1057 905 c 0,31,32
 1047 844 1047 844 1014.5 800.5 c 128,-1,33
 982 757 982 757 925 727 c 1,34,35
 973 697 973 697 990 642 c 128,-1,36
 1007 587 1007 587 997 515 c 2,37,-1
 989 459 l 2,38,39
 982 415 982 415 980.5 383.5 c 128,-1,40
 979 352 979 352 985 332 c 1,41,-1
 982 316 l 1,42,-1
 838 316 l 1,43,44
 834 337 834 337 838 374.5 c 128,-1,45
 842 412 842 412 849 460 c 2,46,-1
 857 514 l 2,47,48
 868 590 868 590 843.5 623 c 128,-1,49
 819 656 819 656 751 656 c 2,50,-1
 611 656 l 1,24,-1
630 783 m 1,51,-1
 746 783 l 2,52,53
 808 783 808 783 858.5 815 c 128,-1,54
 909 847 909 847 918 905 c 0,55,56
 929 982 929 982 900 1010.5 c 128,-1,57
 871 1039 871 1039 784 1039 c 2,58,-1
 669 1039 l 1,59,-1
 630 783 l 1,51,-1
EndSplineSet
EndChar

StartChar: macron
Encoding: 175 175 113
AltUni2: 0002c9.ffffffff.0 0002c9.ffffffff.0
Width: 956
GlyphClass: 1
Flags: W
LayerCount: 2
Fore
SplineSet
914 1300 m 1,0,-1
 252 1300 l 1,1,-1
 274 1457 l 1,2,-1
 936 1457 l 1,3,-1
 914 1300 l 1,0,-1
EndSplineSet
EndChar

StartChar: degree
Encoding: 176 176 114
Width: 734
GlyphClass: 1
Flags: W
LayerCount: 2
Fore
SplineSet
220 1204 m 0,0,1
 237 1320 237 1320 321 1398.5 c 128,-1,2
 405 1477 405 1477 509 1477 c 0,3,4
 605 1477 605 1477 667 1396 c 128,-1,5
 729 1315 729 1315 713 1204 c 0,6,7
 695 1087 695 1087 611.5 1010.5 c 128,-1,8
 528 934 528 934 427 934 c 0,9,10
 328 934 328 934 265.5 1013.5 c 128,-1,11
 203 1093 203 1093 220 1204 c 0,0,1
358 1204 m 0,12,13
 349 1146 349 1146 375 1110.5 c 128,-1,14
 401 1075 401 1075 448 1075 c 0,15,16
 491 1075 491 1075 528.5 1111.5 c 128,-1,17
 566 1148 566 1148 575 1204 c 0,18,19
 583 1263 583 1263 558 1300 c 128,-1,20
 533 1337 533 1337 488 1337 c 0,21,22
 444 1337 444 1337 405 1298 c 128,-1,23
 366 1259 366 1259 358 1204 c 0,12,13
EndSplineSet
EndChar

StartChar: plusminus
Encoding: 177 177 115
Width: 1005
GlyphClass: 1
Flags: W
LayerCount: 2
Fore
SplineSet
682 949 m 1,0,-1
 969 949 l 1,1,-1
 937 720 l 1,2,-1
 650 720 l 1,3,-1
 596 335 l 1,4,-1
 348 335 l 1,5,-1
 402 720 l 1,6,-1
 113 720 l 1,7,-1
 145 949 l 1,8,-1
 434 949 l 1,9,-1
 485 1313 l 1,10,-1
 733 1313 l 1,11,-1
 682 949 l 1,0,-1
734 -40 m 1,12,-1
 16 -40 l 1,13,-1
 49 183 l 1,14,-1
 767 183 l 1,15,-1
 734 -40 l 1,12,-1
EndSplineSet
EndChar

StartChar: twosuperior
Encoding: 178 178 116
Width: 756
GlyphClass: 1
Flags: W
LayerCount: 2
Fore
SplineSet
667 667 m 1,0,-1
 122 667 l 1,1,-1
 144 816 l 1,2,-1
 450 1071 l 2,3,4
 506 1122 506 1122 524.5 1156.5 c 128,-1,5
 543 1191 543 1191 550 1234 c 0,6,7
 556 1277 556 1277 542 1303 c 128,-1,8
 528 1329 528 1329 490 1329 c 0,9,10
 450 1329 450 1329 423 1297.5 c 128,-1,11
 396 1266 396 1266 390 1217 c 1,12,-1
 203 1217 l 1,13,-1
 201 1223 l 1,14,15
 212 1333 212 1333 299.5 1406 c 128,-1,16
 387 1479 387 1479 519 1479 c 0,17,18
 641 1479 641 1479 702.5 1414 c 128,-1,19
 764 1349 764 1349 747 1233 c 0,20,21
 734 1147 734 1147 677.5 1085 c 128,-1,22
 621 1023 621 1023 495 922 c 1,23,-1
 395 822 l 1,24,-1
 397 816 l 1,25,-1
 689 816 l 1,26,-1
 667 667 l 1,0,-1
EndSplineSet
EndChar

StartChar: threesuperior
Encoding: 179 179 117
Width: 749
GlyphClass: 1
Flags: W
LayerCount: 2
Fore
SplineSet
353 1135 m 1,0,-1
 446 1135 l 2,1,2
 494 1135 494 1135 522 1161 c 128,-1,3
 550 1187 550 1187 557 1235 c 0,4,5
 563 1276 563 1276 546 1302 c 128,-1,6
 529 1328 529 1328 486 1328 c 0,7,8
 447 1328 447 1328 422 1304.5 c 128,-1,9
 397 1281 397 1281 392 1247 c 1,10,-1
 205 1247 l 1,11,-1
 203 1253 l 1,12,13
 213 1359 213 1359 298.5 1418.5 c 128,-1,14
 384 1478 384 1478 504 1478 c 0,15,16
 632 1478 632 1478 703 1418 c 128,-1,17
 774 1358 774 1358 758 1249 c 0,18,19
 749 1191 749 1191 711.5 1145.5 c 128,-1,20
 674 1100 674 1100 616 1076 c 1,21,22
 673 1052 673 1052 699.5 1004.5 c 128,-1,23
 726 957 726 957 717 890 c 0,24,25
 699 773 699 773 613 714 c 128,-1,26
 527 655 527 655 391 655 c 0,27,28
 265 655 265 655 190.5 718 c 128,-1,29
 116 781 116 781 138 894 c 1,30,-1
 140 900 l 1,31,-1
 329 900 l 1,32,33
 322 853 322 853 342.5 828.5 c 128,-1,34
 363 804 363 804 411 804 c 0,35,36
 451 804 451 804 482 829.5 c 128,-1,37
 513 855 513 855 520 901 c 0,38,39
 528 955 528 955 504.5 982 c 128,-1,40
 481 1009 481 1009 427 1009 c 2,41,-1
 334 1009 l 1,42,-1
 346 1084 l 1,43,-1
 348 1098 l 1,44,-1
 353 1135 l 1,0,-1
EndSplineSet
EndChar

StartChar: acute
Encoding: 180 180 118
Width: 685
GlyphClass: 1
Flags: W
LayerCount: 2
Fore
SplineSet
425 1518 m 1,0,-1
 739 1518 l 1,1,-1
 741 1512 l 1,2,-1
 452 1252 l 1,3,-1
 215 1252 l 1,4,-1
 212 1257 l 1,5,-1
 425 1518 l 1,0,-1
EndSplineSet
EndChar

StartChar: mu
Encoding: 181 181 119
Width: 1124
GlyphClass: 1
Flags: W
LayerCount: 2
Fore
SplineSet
485 1082 m 1,0,-1
 392 458 l 1,1,-1
 389 437 l 2,2,3
 370 295 370 295 396 248.5 c 128,-1,4
 422 202 422 202 493 202 c 0,5,6
 548 202 548 202 591 229.5 c 128,-1,7
 634 257 634 257 665 308 c 1,8,-1
 781 1082 l 1,9,-1
 1062 1082 l 1,10,-1
 900 0 l 1,11,-1
 637 0 l 1,12,-1
 641 51 l 1,13,14
 600 15 600 15 552 -3 c 128,-1,15
 504 -21 504 -21 451 -21 c 0,16,17
 413 -21 413 -21 382 -11 c 128,-1,18
 351 -1 351 -1 326 18 c 1,19,-1
 261 -416 l 1,20,-1
 -20 -416 l 1,21,-1
 204 1082 l 1,22,-1
 485 1082 l 1,0,-1
EndSplineSet
EndChar

StartChar: paragraph
Encoding: 182 182 120
Width: 960
GlyphClass: 1
Flags: W
LayerCount: 2
Fore
SplineSet
467 0 m 1,0,-1
 545 520 l 1,1,-1
 477 520 l 2,2,3
 285 520 285 520 189 651 c 128,-1,4
 93 782 93 782 124 988 c 0,5,6
 156 1202 156 1202 285.5 1329 c 128,-1,7
 415 1456 415 1456 617 1456 c 2,8,-1
 967 1456 l 1,9,-1
 749 0 l 1,10,-1
 467 0 l 1,0,-1
EndSplineSet
EndChar

StartChar: periodcentered
Encoding: 183 183 121
Width: 567
GlyphClass: 1
Flags: W
LayerCount: 2
Fore
SplineSet
423 564 m 1,0,-1
 147 564 l 1,1,-1
 185 822 l 1,2,-1
 461 822 l 1,3,-1
 423 564 l 1,0,-1
EndSplineSet
EndChar

StartChar: cedilla
Encoding: 184 184 122
Width: 496
GlyphClass: 1
Flags: W
LayerCount: 2
Fore
SplineSet
244 6 m 1,0,-1
 225 -53 l 1,1,2
 276 -63 276 -63 306 -104 c 128,-1,3
 336 -145 336 -145 324 -225 c 0,4,5
 307 -337 307 -337 219 -397.5 c 128,-1,6
 131 -458 131 -458 -16 -456 c 1,7,-1
 -21 -453 l 1,8,-1
 -4 -302 l 1,9,10
 32 -302 32 -302 55.5 -281 c 128,-1,11
 79 -260 79 -260 87 -216 c 0,12,13
 93 -172 93 -172 70 -155.5 c 128,-1,14
 47 -139 47 -139 -16 -134 c 1,15,-1
 33 6 l 1,16,-1
 244 6 l 1,0,-1
EndSplineSet
EndChar

StartChar: onesuperior
Encoding: 185 185 123
Width: 516
GlyphClass: 1
Flags: W
LayerCount: 2
Fore
SplineSet
396 665 m 1,0,-1
 197 665 l 1,1,-1
 292 1302 l 1,2,-1
 186 1300 l 1,3,-1
 209 1454 l 1,4,-1
 518 1477 l 1,5,-1
 396 665 l 1,0,-1
EndSplineSet
EndChar

StartChar: ordmasculine
Encoding: 186 186 124
Width: 821
GlyphClass: 1
Flags: W
LayerCount: 2
Fore
SplineSet
196 1142 m 2,0,1
 219 1295 219 1295 314 1386 c 128,-1,2
 409 1477 409 1477 549 1477 c 0,3,4
 682 1477 682 1477 752 1382.5 c 128,-1,5
 822 1288 822 1288 800 1142 c 2,6,-1
 783 1025 l 2,7,8
 759 870 759 870 665 780.5 c 128,-1,9
 571 691 571 691 432 691 c 0,10,11
 298 691 298 691 227.5 784.5 c 128,-1,12
 157 878 157 878 179 1025 c 2,13,-1
 196 1142 l 2,0,1
340 1025 m 2,14,15
 326 933 326 933 353.5 880.5 c 128,-1,16
 381 828 381 828 452 828 c 0,17,18
 517 828 517 828 562.5 883 c 128,-1,19
 608 938 608 938 622 1025 c 2,20,-1
 639 1142 l 2,21,22
 652 1231 652 1231 624.5 1284 c 128,-1,23
 597 1337 597 1337 528 1337 c 0,24,25
 462 1337 462 1337 416 1282 c 128,-1,26
 370 1227 370 1227 357 1142 c 2,27,-1
 340 1025 l 2,14,15
EndSplineSet
EndChar

StartChar: questiondown
Encoding: 191 191 129
Width: 917
GlyphClass: 1
Flags: W
LayerCount: 2
Fore
SplineSet
678 668 m 1,0,1
 656 531 656 531 608 466.5 c 128,-1,2
 560 402 560 402 438 309 c 1,3,4
 370 251 370 251 326 183.5 c 128,-1,5
 282 116 282 116 270 30 c 0,6,7
 254 -67 254 -67 284.5 -119 c 128,-1,8
 315 -171 315 -171 389 -171 c 0,9,10
 442 -171 442 -171 490.5 -124 c 128,-1,11
 539 -77 539 -77 553 9 c 1,12,-1
 827 9 l 1,13,-1
 829 3 l 1,14,15
 801 -191 801 -191 670.5 -292.5 c 128,-1,16
 540 -394 540 -394 356 -394 c 0,17,18
 161 -394 161 -394 59.5 -278.5 c 128,-1,19
 -42 -163 -42 -163 -13 29 c 0,20,21
 7 159 7 159 85.5 262.5 c 128,-1,22
 164 366 164 366 276 442 c 1,23,24
 335 487 335 487 359.5 535 c 128,-1,25
 384 583 384 583 397 668 c 1,26,-1
 678 668 l 1,0,1
460 1082 m 1,27,-1
 740 1082 l 1,28,-1
 704 838 l 1,29,-1
 424 838 l 1,30,-1
 460 1082 l 1,27,-1
EndSplineSet
EndChar

StartChar: AE
Encoding: 198 198 136
Width: 1689
GlyphClass: 1
Flags: W
LayerCount: 2
Fore
SplineSet
1539 0 m 1,0,-1
 756 0 l 1,1,-1
 795 341 l 1,2,-1
 454 341 l 1,3,-1
 262 0 l 1,4,-1
 -66 0 l 1,5,-1
 805 1456 l 1,6,-1
 1705 1456 l 1,7,-1
 1672 1232 l 1,8,-1
 1177 1232 l 1,9,-1
 1135 859 l 1,10,-1
 1546 859 l 1,11,-1
 1512 636 l 1,12,-1
 1110 636 l 1,13,-1
 1063 223 l 1,14,-1
 1572 223 l 1,15,-1
 1539 0 l 1,0,-1
821 573 m 1,16,-1
 879 1085 l 1,17,-1
 874 1087 l 1,18,-1
 584 573 l 1,19,-1
 821 573 l 1,16,-1
EndSplineSet
EndChar

StartChar: Eth
Encoding: 208 208 146
Width: 1173
GlyphClass: 1
Flags: W
LayerCount: 2
Fore
SplineSet
32 0 m 1,0,-1
 130 655 l 1,1,-1
 17 655 l 1,2,-1
 43 827 l 1,3,-1
 156 827 l 1,4,-1
 250 1456 l 1,5,-1
 699 1456 l 2,6,7
 919 1456 919 1456 1046 1284 c 128,-1,8
 1173 1112 1173 1112 1134 848 c 2,9,-1
 1098 607 l 2,10,11
 1056 329 1056 329 884 164.5 c 128,-1,12
 712 0 712 0 481 0 c 2,13,-1
 32 0 l 1,0,-1
605 655 m 1,14,-1
 412 655 l 1,15,-1
 347 220 l 1,16,-1
 514 220 l 2,17,18
 619 220 619 220 704 329 c 128,-1,19
 789 438 789 438 815 607 c 2,20,-1
 852 850 l 2,21,22
 878 1026 878 1026 827.5 1130.5 c 128,-1,23
 777 1235 777 1235 666 1235 c 2,24,-1
 499 1235 l 1,25,-1
 438 827 l 1,26,-1
 631 827 l 1,27,-1
 605 655 l 1,14,-1
EndSplineSet
Substitution2: "'smcp' Lowercase to Small Capitals lookup 0 subtable" Eth.smcp
EndChar

StartChar: multiply
Encoding: 215 215 153
Width: 991
GlyphClass: 1
Flags: W
LayerCount: 2
Fore
SplineSet
35 367 m 1,0,-1
 362 684 l 1,1,-1
 129 1002 l 1,2,-1
 318 1161 l 1,3,-1
 540 857 l 1,4,-1
 854 1161 l 1,5,-1
 995 1002 l 1,6,-1
 667 684 l 1,7,-1
 899 367 l 1,8,-1
 711 208 l 1,9,-1
 488 511 l 1,10,-1
 176 208 l 1,11,-1
 35 367 l 1,0,-1
EndSplineSet
EndChar

StartChar: Oslash
Encoding: 216 216 154
Width: 1232
GlyphClass: 1
Flags: W
LayerCount: 2
Fore
SplineSet
1144 524 m 2,0,1
 1103 257 1103 257 939 118 c 128,-1,2
 775 -21 775 -21 531 -21 c 0,3,4
 462 -21 462 -21 402 -8 c 128,-1,5
 342 5 342 5 291 32 c 1,6,-1
 210 -93 l 1,7,-1
 81 -93 l 1,8,-1
 202 94 l 1,9,10
 125 164 125 164 93.5 273.5 c 128,-1,11
 62 383 62 383 84 524 c 2,12,-1
 145 930 l 2,13,14
 184 1196 184 1196 347.5 1336.5 c 128,-1,15
 511 1477 511 1477 755 1477 c 0,16,17
 840 1477 840 1477 913 1455.5 c 128,-1,18
 986 1434 986 1434 1045 1394 c 1,19,-1
 1125 1516 l 1,20,-1
 1253 1516 l 1,21,-1
 1125 1318 l 1,22,23
 1180 1246 1180 1246 1201 1148 c 128,-1,24
 1222 1050 1222 1050 1205 930 c 2,25,-1
 1144 524 l 2,0,1
365 524 m 2,26,27
 356 468 356 468 355.5 424.5 c 128,-1,28
 355 381 355 381 364 354 c 1,29,-1
 370 352 l 1,30,-1
 900 1170 l 1,31,32
 874 1212 874 1212 829.5 1233 c 128,-1,33
 785 1254 785 1254 721 1254 c 0,34,35
 603 1254 603 1254 526 1172.5 c 128,-1,36
 449 1091 449 1091 426 933 c 2,37,-1
 365 524 l 2,26,27
924 933 m 2,38,39
 927 955 927 955 929 975.5 c 128,-1,40
 931 996 931 996 931 1008 c 1,41,-1
 925 1010 l 1,42,-1
 425 239 l 1,43,44
 450 219 450 219 484.5 209.5 c 128,-1,45
 519 200 519 200 564 200 c 0,46,47
 682 200 682 200 760 282 c 128,-1,48
 838 364 838 364 863 524 c 2,49,-1
 924 933 l 2,38,39
EndSplineSet
EndChar

StartChar: Thorn
Encoding: 222 222 160
Width: 1093
GlyphClass: 1
Flags: W
LayerCount: 2
Fore
SplineSet
531 1456 m 1,0,-1
 490 1185 l 1,1,-1
 663 1185 l 2,2,3
 879 1185 879 1185 989.5 1060 c 128,-1,4
 1100 935 1100 935 1071 738 c 0,5,6
 1039 529 1039 529 897.5 409.5 c 128,-1,7
 756 290 756 290 529 290 c 2,8,-1
 356 290 l 1,9,-1
 313 0 l 1,10,-1
 31 0 l 1,11,-1
 249 1456 l 1,12,-1
 531 1456 l 1,0,-1
457 967 m 1,13,-1
 389 510 l 1,14,-1
 562 510 l 2,15,16
 655 510 655 510 714.5 575.5 c 128,-1,17
 774 641 774 641 788 736 c 0,18,19
 803 836 803 836 765.5 900.5 c 128,-1,20
 728 965 728 965 630 965 c 2,21,-1
 459 965 l 1,22,-1
 457 967 l 1,13,-1
EndSplineSet
EndChar

StartChar: germandbls
Encoding: 223 223 161
Width: 1144
GlyphClass: 1
Flags: W
LayerCount: 2
Fore
SplineSet
321 0 m 1,0,-1
 40 0 l 1,1,-1
 205 1102 l 2,2,3
 240 1333 240 1333 371.5 1449.5 c 128,-1,4
 503 1566 503 1566 708 1566 c 0,5,6
 864 1566 864 1566 959 1470 c 128,-1,7
 1054 1374 1054 1374 1030 1204 c 0,8,9
 1012 1092 1012 1092 954 998.5 c 128,-1,10
 896 905 896 905 886 834 c 0,11,12
 877 774 877 774 978.5 634.5 c 128,-1,13
 1080 495 1080 495 1059 355 c 0,14,15
 1029 158 1029 158 917 68.5 c 128,-1,16
 805 -21 805 -21 604 -21 c 0,17,18
 538 -21 538 -21 473.5 -6 c 128,-1,19
 409 9 409 9 378 35 c 1,20,-1
 461 253 l 1,21,22
 489 230 489 230 533.5 214.5 c 128,-1,23
 578 199 578 199 635 199 c 0,24,25
 689 199 689 199 727.5 238.5 c 128,-1,26
 766 278 766 278 777 345 c 0,27,28
 788 422 788 422 685.5 553.5 c 128,-1,29
 583 685 583 685 605 824 c 0,30,31
 619 923 619 923 678 1019.5 c 128,-1,32
 737 1116 737 1116 749 1191 c 0,33,34
 759 1259 759 1259 729 1303 c 128,-1,35
 699 1347 699 1347 651 1347 c 0,36,37
 596 1347 596 1347 549 1279.5 c 128,-1,38
 502 1212 502 1212 486 1098 c 2,39,-1
 321 0 l 1,0,-1
EndSplineSet
Substitution2: "'smcp' Lowercase to Small Capitals lookup 0 subtable" germandbls.smcp
EndChar

StartChar: ae
Encoding: 230 230 168
Width: 1532
GlyphClass: 1
Flags: W
LayerCount: 2
Fore
SplineSet
1022 -21 m 0,0,1
 916 -21 916 -21 836 18.5 c 128,-1,2
 756 58 756 58 707 133 c 1,3,4
 645 65 645 65 552 22 c 128,-1,5
 459 -21 459 -21 342 -21 c 0,6,7
 179 -21 179 -21 97 70 c 128,-1,8
 15 161 15 161 38 316 c 0,9,10
 62 478 62 478 186 561 c 128,-1,11
 310 644 310 644 527 644 c 2,12,-1
 666 644 l 1,13,-1
 676 706 l 2,14,15
 688 791 688 791 665 836 c 128,-1,16
 642 881 642 881 585 881 c 0,17,18
 526 881 526 881 484 842 c 128,-1,19
 442 803 442 803 434 746 c 1,20,-1
 164 763 l 1,21,-1
 162 769 l 1,22,23
 179 919 179 919 305 1010.5 c 128,-1,24
 431 1102 431 1102 621 1102 c 0,25,26
 701 1102 701 1102 768 1078 c 128,-1,27
 835 1054 835 1054 881 1008 c 1,28,29
 940 1054 940 1054 1013.5 1078 c 128,-1,30
 1087 1102 1087 1102 1172 1102 c 0,31,32
 1350 1102 1350 1102 1439.5 969.5 c 128,-1,33
 1529 837 1529 837 1496 616 c 2,34,-1
 1473 459 l 1,35,-1
 923 459 l 1,36,37
 910 334 910 334 947.5 266.5 c 128,-1,38
 985 199 985 199 1088 199 c 0,39,40
 1162 199 1162 199 1219.5 219 c 128,-1,41
 1277 239 1277 239 1347 279 c 1,42,-1
 1391 101 l 1,43,44
 1331 52 1331 52 1230 15.5 c 128,-1,45
 1129 -21 1129 -21 1022 -21 c 0,0,1
428 179 m 0,46,47
 469 179 469 179 521.5 206.5 c 128,-1,48
 574 234 574 234 610 273 c 1,49,-1
 639 466 l 1,50,-1
 502 466 l 2,51,52
 430 466 430 466 379 420.5 c 128,-1,53
 328 375 328 375 319 312 c 0,54,55
 309 247 309 247 335.5 213 c 128,-1,56
 362 179 362 179 428 179 c 0,46,47
1139 881 m 0,57,58
 1067 881 1067 881 1022 818 c 128,-1,59
 977 755 977 755 953 643 c 1,60,-1
 1223 643 l 1,61,-1
 1228 671 l 2,62,63
 1242 771 1242 771 1220.5 826 c 128,-1,64
 1199 881 1199 881 1139 881 c 0,57,58
EndSplineSet
EndChar

StartChar: eth
Encoding: 240 240 178
Width: 1066
GlyphClass: 1
Flags: W
LayerCount: 2
Fore
SplineSet
916 1293 m 1,0,1
 994 1188 994 1188 1024.5 1047.5 c 128,-1,2
 1055 907 1055 907 1031 741 c 2,3,-1
 1002 547 l 2,4,5
 963 287 963 287 802 133 c 128,-1,6
 641 -21 641 -21 430 -21 c 0,7,8
 228 -21 228 -21 113.5 119.5 c 128,-1,9
 -1 260 -1 260 29 465 c 0,10,11
 64 701 64 701 199 832.5 c 128,-1,12
 334 964 334 964 539 964 c 0,13,14
 603 964 603 964 658.5 940 c 128,-1,15
 714 916 714 916 753 874 c 1,16,-1
 757 878 l 1,17,18
 758 962 758 962 736.5 1030.5 c 128,-1,19
 715 1099 715 1099 676 1152 c 1,20,-1
 452 1021 l 1,21,-1
 398 1130 l 1,22,-1
 585 1239 l 1,23,24
 555 1259 555 1259 522.5 1275.5 c 128,-1,25
 490 1292 490 1292 454 1306 c 1,26,-1
 575 1517 l 1,27,28
 649 1496 649 1496 713.5 1462.5 c 128,-1,29
 778 1429 778 1429 831 1384 c 1,30,-1
 1015 1492 l 1,31,-1
 1069 1383 l 1,32,-1
 916 1293 l 1,0,1
467 199 m 256,33,34
 557 199 557 199 627 297 c 128,-1,35
 697 395 697 395 720 547 c 2,36,-1
 737 665 l 1,37,38
 716 705 716 705 669.5 730.5 c 128,-1,39
 623 756 623 756 556 756 c 0,40,41
 463 756 463 756 396 675.5 c 128,-1,42
 329 595 329 595 310 465 c 0,43,44
 292 349 292 349 334.5 274 c 128,-1,45
 377 199 377 199 467 199 c 256,33,34
EndSplineSet
Substitution2: "'smcp' Lowercase to Small Capitals lookup 0 subtable" Eth.smcp
EndChar

StartChar: divide
Encoding: 247 247 185
Width: 1018
GlyphClass: 1
Flags: W
LayerCount: 2
Fore
SplineSet
957 580 m 1,0,-1
 66 580 l 1,1,-1
 98 796 l 1,2,-1
 989 796 l 1,3,-1
 957 580 l 1,0,-1
710 973 m 1,4,-1
 431 973 l 1,5,-1
 465 1199 l 1,6,-1
 744 1199 l 1,7,-1
 710 973 l 1,4,-1
589 169 m 1,8,-1
 310 169 l 1,9,-1
 344 396 l 1,10,-1
 623 396 l 1,11,-1
 589 169 l 1,8,-1
EndSplineSet
EndChar

StartChar: oslash
Encoding: 248 248 186
Width: 1009
GlyphClass: 1
Flags: W
LayerCount: 2
Fore
SplineSet
62 551 m 1,0,1
 99 804 99 804 237 953 c 128,-1,2
 375 1102 375 1102 588 1102 c 0,3,4
 629 1102 629 1102 666.5 1094.5 c 128,-1,5
 704 1087 704 1087 738 1074 c 1,6,-1
 820 1217 l 1,7,-1
 971 1217 l 1,8,-1
 847 1000 l 1,9,10
 918 926 918 926 945 809.5 c 128,-1,11
 972 693 972 693 952 551 c 1,12,-1
 948 528 l 1,13,14
 910 275 910 275 771.5 127 c 128,-1,15
 633 -21 633 -21 422 -21 c 0,16,17
 382 -21 382 -21 346.5 -14.5 c 128,-1,18
 311 -8 311 -8 279 4 c 1,19,-1
 196 -143 l 1,20,-1
 46 -143 l 1,21,-1
 169 73 l 1,22,23
 93 145 93 145 64.5 263 c 128,-1,24
 36 381 36 381 58 528 c 2,25,-1
 62 551 l 1,0,1
339 528 m 2,26,27
 331 477 331 477 328.5 435 c 128,-1,28
 326 393 326 393 329 366 c 1,29,-1
 335 365 l 1,30,-1
 619 864 l 1,31,32
 606 872 606 872 589.5 876.5 c 128,-1,33
 573 881 573 881 555 881 c 0,34,35
 470 881 470 881 417 788.5 c 128,-1,36
 364 696 364 696 343 551 c 1,37,-1
 339 528 l 2,26,27
670 551 m 2,38,39
 676 598 676 598 679 635 c 128,-1,40
 682 672 682 672 680 696 c 1,41,-1
 674 697 l 1,42,-1
 397 211 l 1,43,44
 409 204 409 204 423 201.5 c 128,-1,45
 437 199 437 199 455 199 c 0,46,47
 538 199 538 199 591 289.5 c 128,-1,48
 644 380 644 380 666 528 c 2,49,-1
 670 551 l 2,38,39
EndSplineSet
EndChar

StartChar: thorn
Encoding: 254 254 192
Width: 1012
GlyphClass: 1
Flags: W
LayerCount: 2
Fore
SplineSet
959 514 m 2,0,1
 921 263 921 263 805.5 121 c 128,-1,2
 690 -21 690 -21 516 -21 c 0,3,4
 449 -21 449 -21 400 8.5 c 128,-1,5
 351 38 351 38 319 94 c 1,6,-1
 243 -416 l 1,7,-1
 -38 -416 l 1,8,-1
 24 0 l 1,9,-1
 21 0 l 1,10,-1
 255 1560 l 1,11,-1
 537 1560 l 1,12,-1
 450 984 l 1,13,14
 498 1041 498 1041 556 1071.5 c 128,-1,15
 614 1102 614 1102 682 1102 c 0,16,17
 849 1102 849 1102 924.5 944.5 c 128,-1,18
 1000 787 1000 787 962 535 c 2,19,-1
 959 514 l 2,0,1
680 535 m 2,20,21
 704 695 704 695 680.5 787.5 c 128,-1,22
 657 880 657 880 576 880 c 0,23,24
 529 880 529 880 490.5 854.5 c 128,-1,25
 452 829 452 829 422 783 c 1,26,-1
 347 277 l 1,27,28
 362 239 362 239 393.5 219 c 128,-1,29
 425 199 425 199 475 199 c 0,30,31
 554 199 554 199 604.5 284 c 128,-1,32
 655 369 655 369 677 514 c 2,33,-1
 680 535 l 2,20,21
EndSplineSet
EndChar

StartChar: Dcroat
Encoding: 272 272 210
Width: 1173
GlyphClass: 1
Flags: W
LayerCount: 2
Fore
SplineSet
32 0 m 1,0,-1
 130 655 l 1,1,-1
 17 655 l 1,2,-1
 43 827 l 1,3,-1
 156 827 l 1,4,-1
 250 1456 l 1,5,-1
 699 1456 l 2,6,7
 919 1456 919 1456 1046 1284 c 128,-1,8
 1173 1112 1173 1112 1134 848 c 2,9,-1
 1098 607 l 2,10,11
 1056 329 1056 329 884 164.5 c 128,-1,12
 712 0 712 0 481 0 c 2,13,-1
 32 0 l 1,0,-1
605 655 m 1,14,-1
 412 655 l 1,15,-1
 347 220 l 1,16,-1
 514 220 l 2,17,18
 619 220 619 220 704 329 c 128,-1,19
 789 438 789 438 815 607 c 2,20,-1
 852 850 l 2,21,22
 878 1026 878 1026 827.5 1130.5 c 128,-1,23
 777 1235 777 1235 666 1235 c 2,24,-1
 499 1235 l 1,25,-1
 438 827 l 1,26,-1
 631 827 l 1,27,-1
 605 655 l 1,14,-1
EndSplineSet
Substitution2: "'smcp' Lowercase to Small Capitals lookup 0 subtable" Dcroat.smcp
EndChar

StartChar: dcroat
Encoding: 273 273 211
Width: 1008
GlyphClass: 1
Flags: W
LayerCount: 2
Fore
SplineSet
1132 1223 m 1,0,-1
 1016 1223 l 1,1,-1
 833 0 l 1,2,-1
 592 0 l 1,3,-1
 589 122 l 1,4,5
 536 52 536 52 472.5 15.5 c 128,-1,6
 409 -21 409 -21 335 -21 c 0,7,8
 170 -21 170 -21 93.5 127 c 128,-1,9
 17 275 17 275 53 514 c 2,10,-1
 56 535 l 2,11,12
 96 800 96 800 212.5 951 c 128,-1,13
 329 1102 329 1102 505 1102 c 0,14,15
 568 1102 568 1102 616 1069.5 c 128,-1,16
 664 1037 664 1037 697 977 c 1,17,-1
 734 1223 l 1,18,-1
 544 1223 l 1,19,-1
 570 1395 l 1,20,-1
 760 1395 l 1,21,-1
 785 1560 l 1,22,-1
 1067 1560 l 1,23,-1
 1042 1395 l 1,24,-1
 1158 1395 l 1,25,-1
 1132 1223 l 1,0,-1
333 514 m 2,26,27
 310 361 310 361 333.5 280.5 c 128,-1,28
 357 200 357 200 441 200 c 0,29,30
 486 200 486 200 525 223 c 128,-1,31
 564 246 564 246 594 289 c 1,32,-1
 668 782 l 1,33,34
 651 828 651 828 619.5 854 c 128,-1,35
 588 880 588 880 544 880 c 0,36,37
 466 880 466 880 412.5 783.5 c 128,-1,38
 359 687 359 687 336 535 c 2,39,-1
 333 514 l 2,26,27
EndSplineSet
Substitution2: "'smcp' Lowercase to Small Capitals lookup 0 subtable" Dcroat.smcp
EndChar

StartChar: Hbar
Encoding: 294 294 232
Width: 1261
GlyphClass: 1
Flags: W
LayerCount: 2
Fore
SplineSet
1250 1193 m 1,0,-1
 1351 1193 l 1,1,-1
 1326 1029 l 1,2,-1
 1226 1029 l 1,3,-1
 1072 0 l 1,4,-1
 791 0 l 1,5,-1
 882 607 l 1,6,-1
 413 607 l 1,7,-1
 322 0 l 1,8,-1
 40 0 l 1,9,-1
 194 1029 l 1,10,-1
 93 1029 l 1,11,-1
 118 1193 l 1,12,-1
 218 1193 l 1,13,-1
 258 1456 l 1,14,-1
 540 1456 l 1,15,-1
 500 1193 l 1,16,-1
 969 1193 l 1,17,-1
 1009 1456 l 1,18,-1
 1290 1456 l 1,19,-1
 1250 1193 l 1,0,-1
446 827 m 1,20,-1
 915 827 l 1,21,-1
 945 1029 l 1,22,-1
 476 1029 l 1,23,-1
 446 827 l 1,20,-1
EndSplineSet
EndChar

StartChar: hbar
Encoding: 295 295 233
Width: 1008
GlyphClass: 1
Flags: W
LayerCount: 2
Fore
SplineSet
682 1220 m 1,0,-1
 471 1220 l 1,1,-1
 431 957 l 1,2,3
 484 1027 484 1027 550.5 1064.5 c 128,-1,4
 617 1102 617 1102 690 1102 c 0,5,6
 830 1102 830 1102 899 987 c 128,-1,7
 968 872 968 872 934 637 c 2,8,-1
 838 0 l 1,9,-1
 556 0 l 1,10,-1
 652 639 l 2,11,12
 672 778 672 778 651 829 c 128,-1,13
 630 880 630 880 567 880 c 0,14,15
 519 880 519 880 479 859 c 128,-1,16
 439 838 439 838 408 801 c 1,17,-1
 288 0 l 1,18,-1
 7 0 l 1,19,-1
 190 1220 l 1,20,-1
 94 1220 l 1,21,-1
 120 1392 l 1,22,-1
 216 1392 l 1,23,-1
 241 1560 l 1,24,-1
 522 1560 l 1,25,-1
 497 1392 l 1,26,-1
 708 1392 l 1,27,-1
 682 1220 l 1,0,-1
EndSplineSet
EndChar

StartChar: dotlessi
Encoding: 305 305 243
Width: 514
GlyphClass: 1
Flags: W
LayerCount: 2
Fore
SplineSet
317 0 m 1,0,-1
 34 0 l 1,1,-1
 196 1082 l 1,2,-1
 479 1082 l 1,3,-1
 317 0 l 1,0,-1
EndSplineSet
EndChar

StartChar: kgreenlandic
Encoding: 312 312 250
Width: 1073
GlyphClass: 1
Flags: W
LayerCount: 2
Fore
SplineSet
464 407 m 1,0,-1
 374 407 l 1,1,-1
 313 0 l 1,2,-1
 32 0 l 1,3,-1
 194 1082 l 1,4,-1
 475 1082 l 1,5,-1
 413 669 l 1,6,-1
 481 669 l 1,7,-1
 752 1082 l 1,8,-1
 1103 1082 l 1,9,-1
 1106 1077 l 1,10,-1
 718 590 l 1,11,-1
 956 0 l 1,12,-1
 595 0 l 1,13,-1
 464 407 l 1,0,-1
EndSplineSet
EndChar

StartChar: Lslash
Encoding: 321 321 259
Width: 902
GlyphClass: 1
Flags: W
LayerCount: 2
Fore
SplineSet
440 888 m 1,0,-1
 648 953 l 1,1,-1
 620 767 l 1,2,-1
 412 702 l 1,3,-1
 340 220 l 1,4,-1
 883 220 l 1,5,-1
 850 0 l 1,6,-1
 25 0 l 1,7,-1
 116 610 l 1,8,-1
 20 580 l 1,9,-1
 48 766 l 1,10,-1
 144 796 l 1,11,-1
 243 1456 l 1,12,-1
 525 1456 l 1,13,-1
 440 888 l 1,0,-1
EndSplineSet
EndChar

StartChar: lslash
Encoding: 322 322 260
Width: 536
GlyphClass: 1
Flags: W
LayerCount: 2
Fore
SplineSet
466 914 m 1,0,-1
 584 956 l 1,1,-1
 556 769 l 1,2,-1
 438 727 l 1,3,-1
 329 0 l 1,4,-1
 47 0 l 1,5,-1
 140 623 l 1,6,-1
 24 582 l 1,7,-1
 52 769 l 1,8,-1
 168 810 l 1,9,-1
 281 1560 l 1,10,-1
 563 1560 l 1,11,-1
 466 914 l 1,0,-1
EndSplineSet
EndChar

StartChar: Eng
Encoding: 330 330 268
Width: 1253
GlyphClass: 1
Flags: W
LayerCount: 2
Fore
SplineSet
1281 1456 m 1,0,-1
 1057 -37 l 2,1,2
 1027 -235 1027 -235 921.5 -336 c 128,-1,3
 816 -437 816 -437 653 -437 c 0,4,5
 618 -437 618 -437 588 -432.5 c 128,-1,6
 558 -428 558 -428 525 -419 c 1,7,-1
 570 -203 l 1,8,9
 592 -209 592 -209 611 -212.5 c 128,-1,10
 630 -216 630 -216 654 -216 c 0,11,12
 698 -216 698 -216 730 -169 c 128,-1,13
 762 -122 762 -122 775 -37 c 2,14,-1
 780 1 l 1,15,-1
 457 931 l 1,16,-1
 451 931 l 1,17,-1
 312 0 l 1,18,-1
 30 0 l 1,19,-1
 248 1456 l 1,20,-1
 530 1456 l 1,21,-1
 853 525 l 1,22,-1
 859 525 l 1,23,-1
 999 1456 l 1,24,-1
 1281 1456 l 1,0,-1
EndSplineSet
EndChar

StartChar: eng
Encoding: 331 331 269
Width: 1008
GlyphClass: 1
Flags: W
LayerCount: 2
Fore
SplineSet
424 939 m 1,0,1
 481 1017 481 1017 554 1059.5 c 128,-1,2
 627 1102 627 1102 709 1102 c 0,3,4
 842 1102 842 1102 907 993.5 c 128,-1,5
 972 885 972 885 938 657 c 2,6,-1
 833 -37 l 2,7,8
 803 -236 803 -236 698.5 -336.5 c 128,-1,9
 594 -437 594 -437 430 -437 c 0,10,11
 396 -437 396 -437 366 -432.5 c 128,-1,12
 336 -428 336 -428 304 -419 c 1,13,-1
 349 -201 l 1,14,15
 370 -207 370 -207 388.5 -210.5 c 128,-1,16
 407 -214 407 -214 431 -214 c 0,17,18
 474 -214 474 -214 506 -168 c 128,-1,19
 538 -122 538 -122 551 -37 c 2,20,-1
 656 657 l 2,21,22
 674 785 674 785 652.5 832.5 c 128,-1,23
 631 880 631 880 569 880 c 0,24,25
 524 880 524 880 484 857.5 c 128,-1,26
 444 835 444 835 410 794 c 1,27,-1
 291 0 l 1,28,-1
 9 0 l 1,29,-1
 171 1082 l 1,30,-1
 434 1082 l 1,31,-1
 424 939 l 1,0,1
EndSplineSet
EndChar

StartChar: OE
Encoding: 338 338 276
Width: 1731
GlyphClass: 1
Flags: W
LayerCount: 2
Fore
SplineSet
1582 0 m 1,0,-1
 787 0 l 1,1,2
 708 -10 708 -10 652 -15.5 c 128,-1,3
 596 -21 596 -21 540 -21 c 0,4,5
 310 -21 310 -21 182 146.5 c 128,-1,6
 54 314 54 314 94 576 c 2,7,-1
 140 880 l 2,8,9
 181 1155 181 1155 351.5 1316 c 128,-1,10
 522 1477 522 1477 763 1477 c 0,11,12
 818 1477 818 1477 879.5 1471 c 128,-1,13
 941 1465 941 1465 1005 1456 c 1,14,-1
 1798 1456 l 1,15,-1
 1765 1235 l 1,16,-1
 1234 1235 l 1,17,-1
 1178 863 l 1,18,-1
 1623 863 l 1,19,-1
 1590 643 l 1,20,-1
 1145 643 l 1,21,-1
 1082 220 l 1,22,-1
 1615 220 l 1,23,-1
 1582 0 l 1,0,-1
573 199 m 0,24,25
 627 199 627 199 686 205 c 128,-1,26
 745 211 745 211 800 222 c 1,27,-1
 951 1233 l 1,28,29
 897 1244 897 1244 841.5 1250.5 c 128,-1,30
 786 1257 786 1257 730 1257 c 0,31,32
 616 1257 616 1257 532 1159 c 128,-1,33
 448 1061 448 1061 421 882 c 2,34,-1
 375 576 l 2,35,36
 347 387 347 387 399.5 293 c 128,-1,37
 452 199 452 199 573 199 c 0,24,25
EndSplineSet
EndChar

StartChar: oe
Encoding: 339 339 277
Width: 1596
GlyphClass: 1
Flags: W
LayerCount: 2
Fore
SplineSet
1205 -21 m 0,0,1
 1070 -21 1070 -21 978.5 46.5 c 128,-1,2
 887 114 887 114 850 232 c 1,3,4
 778 110 778 110 669.5 44.5 c 128,-1,5
 561 -21 561 -21 422 -21 c 0,6,7
 219 -21 219 -21 120.5 133 c 128,-1,8
 22 287 22 287 58 528 c 1,9,-1
 62 551 l 1,10,11
 99 804 99 804 237 953 c 128,-1,12
 375 1102 375 1102 588 1102 c 0,13,14
 719 1102 719 1102 808.5 1033.5 c 128,-1,15
 898 965 898 965 936 845 c 1,16,17
 1004 968 1004 968 1111 1035 c 128,-1,18
 1218 1102 1218 1102 1356 1102 c 0,19,20
 1539 1102 1539 1102 1625 969.5 c 128,-1,21
 1711 837 1711 837 1678 615 c 2,22,-1
 1655 461 l 1,23,-1
 1109 461 l 1,24,25
 1097 338 1097 338 1134 268.5 c 128,-1,26
 1171 199 1171 199 1271 199 c 0,27,28
 1352 199 1352 199 1414 219 c 128,-1,29
 1476 239 1476 239 1545 280 c 1,30,-1
 1592 104 l 1,31,32
 1526 51 1526 51 1421.5 15 c 128,-1,33
 1317 -21 1317 -21 1205 -21 c 0,0,1
339 528 m 1,34,35
 316 371 316 371 340 285 c 128,-1,36
 364 199 364 199 455 199 c 0,37,38
 538 199 538 199 591 289.5 c 128,-1,39
 644 380 644 380 666 528 c 2,40,-1
 670 551 l 2,41,42
 693 705 693 705 668.5 793 c 128,-1,43
 644 881 644 881 555 881 c 0,44,45
 470 881 470 881 417 788.5 c 128,-1,46
 364 696 364 696 343 551 c 1,47,-1
 339 528 l 1,34,35
1323 881 m 0,48,49
 1255 881 1255 881 1209.5 818 c 128,-1,50
 1164 755 1164 755 1139 647 c 1,51,-1
 1407 647 l 1,52,-1
 1411 672 l 2,53,54
 1426 775 1426 775 1407 828 c 128,-1,55
 1388 881 1388 881 1323 881 c 0,48,49
EndSplineSet
EndChar

StartChar: Tbar
Encoding: 358 358 296
Width: 1014
GlyphClass: 1
Flags: W
LayerCount: 2
Fore
SplineSet
841 753 m 1,0,-1
 678 753 l 1,1,-1
 566 0 l 1,2,-1
 283 0 l 1,3,-1
 395 753 l 1,4,-1
 253 753 l 1,5,-1
 279 925 l 1,6,-1
 421 925 l 1,7,-1
 468 1235 l 1,8,-1
 135 1235 l 1,9,-1
 168 1456 l 1,10,-1
 1126 1456 l 1,11,-1
 1093 1235 l 1,12,-1
 751 1235 l 1,13,-1
 704 925 l 1,14,-1
 867 925 l 1,15,-1
 841 753 l 1,0,-1
EndSplineSet
Substitution2: "'smcp' Lowercase to Small Capitals lookup 0 subtable" Tbar.smcp
EndChar

StartChar: tbar
Encoding: 359 359 297
Width: 635
GlyphClass: 1
Flags: W
LayerCount: 2
Fore
SplineSet
547 1351 m 1,0,-1
 506 1082 l 1,1,-1
 653 1082 l 1,2,-1
 623 881 l 1,3,-1
 476 881 l 1,4,-1
 450 708 l 1,5,-1
 606 708 l 1,6,-1
 580 536 l 1,7,-1
 425 536 l 1,8,-1
 394 330 l 2,9,10
 382 259 382 259 398 231 c 128,-1,11
 414 203 414 203 449 203 c 0,12,13
 468 203 468 203 482.5 205.5 c 128,-1,14
 497 208 497 208 516 214 c 1,15,-1
 507 6 l 1,16,17
 465 -8 465 -8 427.5 -14.5 c 128,-1,18
 390 -21 390 -21 344 -21 c 0,19,20
 211 -21 211 -21 147.5 63.5 c 128,-1,21
 84 148 84 148 111 328 c 2,22,-1
 142 536 l 1,23,-1
 -8 536 l 1,24,-1
 18 708 l 1,25,-1
 168 708 l 1,26,-1
 194 881 l 1,27,-1
 63 881 l 1,28,-1
 93 1082 l 1,29,-1
 224 1082 l 1,30,-1
 265 1351 l 1,31,-1
 547 1351 l 1,0,-1
EndSplineSet
Substitution2: "'smcp' Lowercase to Small Capitals lookup 0 subtable" Tbar.smcp
EndChar

StartChar: longs
Encoding: 383 383 321
Width: 481
GlyphClass: 1
Flags: W
LayerCount: 2
Fore
SplineSet
16 0 m 1,0,-1
 197 1204 l 2,1,2
 225 1392 225 1392 332 1486.5 c 128,-1,3
 439 1581 439 1581 613 1581 c 0,4,5
 645 1581 645 1581 678.5 1575.5 c 128,-1,6
 712 1570 712 1570 752 1560 c 1,7,-1
 698 1349 l 1,8,9
 678 1354 678 1354 660.5 1357 c 128,-1,10
 643 1360 643 1360 618 1360 c 0,11,12
 563 1360 563 1360 525.5 1318.5 c 128,-1,13
 488 1277 488 1277 478 1204 c 2,14,-1
 297 0 l 1,15,-1
 16 0 l 1,0,-1
EndSplineSet
EndChar

StartChar: florin
Encoding: 402 402 322
Width: 661
GlyphClass: 1
Flags: W
LayerCount: 2
Fore
SplineSet
658 881 m 1,0,-1
 485 881 l 1,1,-1
 356 -37 l 2,2,3
 328 -236 328 -236 224 -336.5 c 128,-1,4
 120 -437 120 -437 -43 -437 c 0,5,6
 -77 -437 -77 -437 -107.5 -432.5 c 128,-1,7
 -138 -428 -138 -428 -170 -419 c 1,8,-1
 -126 -203 l 1,9,10
 -108 -209 -108 -209 -88 -212.5 c 128,-1,11
 -68 -216 -68 -216 -45 -216 c 0,12,13
 -1 -216 -1 -216 30.5 -169 c 128,-1,14
 62 -122 62 -122 74 -37 c 2,15,-1
 202 881 l 1,16,-1
 67 881 l 1,17,-1
 95 1082 l 1,18,-1
 230 1082 l 1,19,-1
 248 1204 l 2,20,21
 273 1392 273 1392 380 1486.5 c 128,-1,22
 487 1581 487 1581 662 1581 c 0,23,24
 694 1581 694 1581 728 1575 c 128,-1,25
 762 1569 762 1569 800 1560 c 1,26,-1
 749 1348 l 1,27,28
 729 1353 729 1353 710 1356 c 128,-1,29
 691 1359 691 1359 666 1359 c 0,30,31
 612 1359 612 1359 576 1318 c 128,-1,32
 540 1277 540 1277 531 1204 c 2,33,-1
 513 1082 l 1,34,-1
 686 1082 l 1,35,-1
 658 881 l 1,0,-1
EndSplineSet
EndChar

StartChar: Ohorn
Encoding: 416 416 323
Width: 1250
GlyphClass: 1
Flags: W
LayerCount: 2
Fore
SplineSet
1139 524 m 2,0,1
 1098 257 1098 257 934 118 c 128,-1,2
 770 -21 770 -21 526 -21 c 0,3,4
 294 -21 294 -21 167 124.5 c 128,-1,5
 40 270 40 270 79 524 c 2,6,-1
 140 930 l 2,7,8
 179 1196 179 1196 342.5 1336.5 c 128,-1,9
 506 1477 506 1477 750 1477 c 0,10,11
 873 1477 873 1477 970.5 1433 c 128,-1,12
 1068 1389 1068 1389 1128 1307 c 1,13,14
 1202 1344 1202 1344 1251 1421 c 128,-1,15
 1300 1498 1300 1498 1317 1609 c 1,16,-1
 1517 1609 l 1,17,18
 1488 1422 1488 1422 1408 1300.5 c 128,-1,19
 1328 1179 1328 1179 1201 1125 c 1,20,21
 1207 1080 1207 1080 1207 1031 c 128,-1,22
 1207 982 1207 982 1200 930 c 2,23,-1
 1139 524 l 2,0,1
919 933 m 2,24,25
 943 1098 943 1098 891.5 1176 c 128,-1,26
 840 1254 840 1254 716 1254 c 0,27,28
 598 1254 598 1254 521 1172.5 c 128,-1,29
 444 1091 444 1091 421 933 c 2,30,-1
 360 524 l 2,31,32
 334 356 334 356 384 278 c 128,-1,33
 434 200 434 200 559 200 c 0,34,35
 677 200 677 200 755 282 c 128,-1,36
 833 364 833 364 858 524 c 2,37,-1
 919 933 l 2,24,25
EndSplineSet
EndChar

StartChar: ohorn
Encoding: 417 417 324
Width: 1045
GlyphClass: 1
Flags: W
LayerCount: 2
Fore
SplineSet
62 551 m 1,0,1
 99 804 99 804 237 953 c 128,-1,2
 375 1102 375 1102 588 1102 c 0,3,4
 679 1102 679 1102 751 1067.5 c 128,-1,5
 823 1033 823 1033 872 971 c 1,6,7
 921 1009 921 1009 954.5 1076.5 c 128,-1,8
 988 1144 988 1144 1002 1235 c 1,9,-1
 1200 1235 l 1,10,11
 1177 1085 1177 1085 1110.5 984.5 c 128,-1,12
 1044 884 1044 884 939 836 c 1,13,14
 957 774 957 774 960 701.5 c 128,-1,15
 963 629 963 629 952 551 c 2,16,-1
 948 528 l 1,17,18
 910 275 910 275 771.5 127 c 128,-1,19
 633 -21 633 -21 422 -21 c 0,20,21
 219 -21 219 -21 120.5 133 c 128,-1,22
 22 287 22 287 58 528 c 1,23,-1
 62 551 l 1,0,1
339 528 m 1,24,25
 316 371 316 371 340 285 c 128,-1,26
 364 199 364 199 455 199 c 0,27,28
 538 199 538 199 591 289.5 c 128,-1,29
 644 380 644 380 666 528 c 2,30,-1
 670 551 l 2,31,32
 693 705 693 705 668.5 793 c 128,-1,33
 644 881 644 881 555 881 c 0,34,35
 470 881 470 881 417 788.5 c 128,-1,36
 364 696 364 696 343 551 c 1,37,-1
 339 528 l 1,24,25
EndSplineSet
EndChar

StartChar: Uhorn
Encoding: 431 431 325
Width: 1281
GlyphClass: 1
Flags: W
LayerCount: 2
Fore
SplineSet
1266 1456 m 1,0,-1
 1241 1285 l 1,1,-1
 1246 1283 l 1,2,3
 1311 1303 1311 1303 1350 1385.5 c 128,-1,4
 1389 1468 1389 1468 1411 1611 c 1,5,-1
 1611 1611 l 1,6,7
 1574 1371 1574 1371 1479 1243.5 c 128,-1,8
 1384 1116 1384 1116 1211 1089 c 1,9,-1
 1124 505 l 2,10,11
 1085 248 1085 248 924 113.5 c 128,-1,12
 763 -21 763 -21 531 -21 c 0,13,14
 311 -21 311 -21 186 119.5 c 128,-1,15
 61 260 61 260 98 505 c 2,16,-1
 240 1456 l 1,17,-1
 521 1456 l 1,18,-1
 379 505 l 2,19,20
 355 351 355 351 405 275 c 128,-1,21
 455 199 455 199 564 199 c 0,22,23
 669 199 669 199 744 278 c 128,-1,24
 819 357 819 357 842 505 c 2,25,-1
 984 1456 l 1,26,-1
 1266 1456 l 1,0,-1
EndSplineSet
EndChar

StartChar: uhorn
Encoding: 432 432 326
Width: 1015
GlyphClass: 1
Flags: W
LayerCount: 2
Fore
SplineSet
1317 1198 m 1,0,-1
 1319 1193 l 1,1,2
 1294 1013 1294 1013 1207 917 c 128,-1,3
 1120 821 1120 821 958 799 c 1,4,-1
 839 0 l 1,5,-1
 608 0 l 1,6,-1
 600 149 l 1,7,8
 546 66 546 66 474 22.5 c 128,-1,9
 402 -21 402 -21 317 -21 c 0,10,11
 176 -21 176 -21 107.5 97 c 128,-1,12
 39 215 39 215 76 458 c 2,13,-1
 169 1082 l 1,14,-1
 451 1082 l 1,15,-1
 357 456 l 2,16,17
 334 305 334 305 354.5 252.5 c 128,-1,18
 375 200 375 200 437 200 c 0,19,20
 485 200 485 200 525.5 219.5 c 128,-1,21
 566 239 566 239 598 277 c 1,22,-1
 718 1082 l 1,23,-1
 1001 1082 l 1,24,-1
 983 963 l 1,25,-1
 989 961 l 1,26,27
 1053 974 1053 974 1090 1033 c 128,-1,28
 1127 1092 1127 1092 1143 1198 c 1,29,-1
 1317 1198 l 1,0,-1
EndSplineSet
EndChar

StartChar: uni0237
Encoding: 567 567 336
Width: 529
GlyphClass: 1
Flags: W
LayerCount: 2
Fore
SplineSet
493 1082 m 1,0,-1
 325 -37 l 2,1,2
 295 -236 295 -236 190.5 -336.5 c 128,-1,3
 86 -437 86 -437 -78 -437 c 0,4,5
 -111 -437 -111 -437 -140.5 -432.5 c 128,-1,6
 -170 -428 -170 -428 -204 -419 c 1,7,-1
 -158 -203 l 1,8,9
 -137 -209 -137 -209 -118.5 -212.5 c 128,-1,10
 -100 -216 -100 -216 -77 -216 c 0,11,12
 -33 -216 -33 -216 -1 -169 c 128,-1,13
 31 -122 31 -122 44 -37 c 2,14,-1
 212 1082 l 1,15,-1
 493 1082 l 1,0,-1
EndSplineSet
EndChar

StartChar: circumflex
Encoding: 710 710 338
Width: 909
GlyphClass: 1
Flags: W
LayerCount: 2
Fore
SplineSet
898 1274 m 1,0,-1
 895 1252 l 1,1,-1
 675 1252 l 1,2,-1
 579 1387 l 1,3,-1
 443 1252 l 1,4,-1
 227 1252 l 1,5,-1
 231 1277 l 1,6,-1
 519 1514 l 1,7,-1
 678 1514 l 1,8,-1
 898 1274 l 1,0,-1
EndSplineSet
EndChar

StartChar: caron
Encoding: 711 711 339
Width: 864
GlyphClass: 1
Flags: W
LayerCount: 2
Fore
SplineSet
559 1392 m 1,0,-1
 669 1521 l 1,1,-1
 923 1521 l 1,2,-1
 921 1504 l 1,3,-1
 633 1252 l 1,4,-1
 442 1252 l 1,5,-1
 229 1505 l 1,6,-1
 231 1521 l 1,7,-1
 486 1521 l 1,8,-1
 559 1392 l 1,0,-1
EndSplineSet
EndChar

StartChar: breve
Encoding: 728 728 340
Width: 838
GlyphClass: 1
Flags: W
LayerCount: 2
Fore
SplineSet
859 1456 m 1,0,-1
 861 1450 l 1,1,2
 846 1317 846 1317 749.5 1239.5 c 128,-1,3
 653 1162 653 1162 506 1162 c 0,4,5
 364 1162 364 1162 286 1243 c 128,-1,6
 208 1324 208 1324 231 1450 c 1,7,-1
 234 1456 l 1,8,-1
 439 1456 l 1,9,10
 430 1400 430 1400 451.5 1366.5 c 128,-1,11
 473 1333 473 1333 530 1333 c 0,12,13
 581 1333 581 1333 612.5 1368 c 128,-1,14
 644 1403 644 1403 652 1456 c 1,15,-1
 859 1456 l 1,0,-1
EndSplineSet
EndChar

StartChar: dotaccent
Encoding: 729 729 341
Width: 579
GlyphClass: 1
Flags: W
LayerCount: 2
Fore
SplineSet
540 1231 m 1,0,-1
 226 1231 l 1,1,-1
 261 1469 l 1,2,-1
 575 1469 l 1,3,-1
 540 1231 l 1,0,-1
EndSplineSet
EndChar

StartChar: ring
Encoding: 730 730 342
Width: 624
GlyphClass: 1
Flags: W
LayerCount: 2
Fore
SplineSet
258 1307 m 0,0,1
 269 1381 269 1381 325.5 1429 c 128,-1,2
 382 1477 382 1477 456 1477 c 0,3,4
 525 1477 525 1477 568 1427.5 c 128,-1,5
 611 1378 611 1378 601 1307 c 0,6,7
 589 1231 589 1231 534 1186 c 128,-1,8
 479 1141 479 1141 405 1141 c 0,9,10
 335 1141 335 1141 291 1188.5 c 128,-1,11
 247 1236 247 1236 258 1307 c 0,0,1
366 1307 m 0,12,13
 361 1274 361 1274 376 1254.5 c 128,-1,14
 391 1235 391 1235 419 1235 c 0,15,16
 444 1235 444 1235 465 1255.5 c 128,-1,17
 486 1276 486 1276 491 1307 c 0,18,19
 496 1341 496 1341 482 1361 c 128,-1,20
 468 1381 468 1381 441 1381 c 256,21,22
 414 1381 414 1381 392.5 1360 c 128,-1,23
 371 1339 371 1339 366 1307 c 0,12,13
EndSplineSet
EndChar

StartChar: ogonek
Encoding: 731 731 343
Width: 563
GlyphClass: 1
Flags: W
LayerCount: 2
Fore
SplineSet
283 0 m 1,0,1
 234 -53 234 -53 209.5 -90 c 128,-1,2
 185 -127 185 -127 178 -176 c 0,3,4
 174 -201 174 -201 184.5 -222.5 c 128,-1,5
 195 -244 195 -244 240 -244 c 0,6,7
 262 -244 262 -244 281.5 -238 c 128,-1,8
 301 -232 301 -232 322 -223 c 1,9,-1
 331 -371 l 1,10,11
 297 -389 297 -389 255.5 -402 c 128,-1,12
 214 -415 214 -415 161 -415 c 0,13,14
 66 -415 66 -415 8.5 -360 c 128,-1,15
 -49 -305 -49 -305 -34 -209 c 0,16,17
 -22 -130 -22 -130 25.5 -63.5 c 128,-1,18
 73 3 73 3 164 56 c 1,19,-1
 283 0 l 1,0,1
EndSplineSet
EndChar

StartChar: tilde
Encoding: 732 732 344
Width: 875
GlyphClass: 1
Flags: W
LayerCount: 2
Fore
SplineSet
902 1481 m 1,0,1
 888 1383 888 1383 828 1318.5 c 128,-1,2
 768 1254 768 1254 688 1254 c 0,3,4
 631 1254 631 1254 557.5 1298.5 c 128,-1,5
 484 1343 484 1343 439 1343 c 0,6,7
 411 1343 411 1343 386 1310 c 128,-1,8
 361 1277 361 1277 355 1231 c 1,9,-1
 213 1273 l 1,10,11
 226 1368 226 1368 287 1434.5 c 128,-1,12
 348 1501 348 1501 428 1501 c 0,13,14
 472 1501 472 1501 552 1456.5 c 128,-1,15
 632 1412 632 1412 677 1412 c 0,16,17
 704 1412 704 1412 729.5 1445 c 128,-1,18
 755 1478 755 1478 762 1525 c 1,19,-1
 902 1481 l 1,0,1
EndSplineSet
EndChar

StartChar: hungarumlaut
Encoding: 733 733 345
Width: 788
GlyphClass: 1
Flags: W
LayerCount: 2
Fore
SplineSet
800 1518 m 1,0,-1
 1061 1518 l 1,1,-1
 1063 1512 l 1,2,-1
 780 1252 l 1,3,-1
 560 1252 l 1,4,-1
 557 1258 l 1,5,-1
 800 1518 l 1,0,-1
449 1518 m 1,6,-1
 707 1518 l 1,7,-1
 710 1512 l 1,8,-1
 465 1252 l 1,9,-1
 240 1252 l 1,10,-1
 449 1518 l 1,6,-1
EndSplineSet
EndChar

StartChar: uni02F3
Encoding: 755 755 346
Width: 584
GlyphClass: 1
Flags: W
LayerCount: 2
Fore
SplineSet
24 -226 m 0,0,1
 35 -153 35 -153 88.5 -107.5 c 128,-1,2
 142 -62 142 -62 213 -62 c 0,3,4
 279 -62 279 -62 320 -109.5 c 128,-1,5
 361 -157 361 -157 351 -226 c 0,6,7
 339 -298 339 -298 286.5 -342 c 128,-1,8
 234 -386 234 -386 164 -386 c 0,9,10
 97 -386 97 -386 55 -340 c 128,-1,11
 13 -294 13 -294 24 -226 c 0,0,1
128 -226 m 0,12,13
 123 -256 123 -256 137 -275 c 128,-1,14
 151 -294 151 -294 178 -294 c 0,15,16
 202 -294 202 -294 221 -274.5 c 128,-1,17
 240 -255 240 -255 245 -226 c 0,18,19
 250 -194 250 -194 237 -175 c 128,-1,20
 224 -156 224 -156 199 -156 c 0,21,22
 173 -156 173 -156 152.5 -175.5 c 128,-1,23
 132 -195 132 -195 128 -226 c 0,12,13
EndSplineSet
EndChar

StartChar: hook
Encoding: 777 777 350
Width: 13
GlyphClass: 1
Flags: W
LayerCount: 2
Fore
SplineSet
-519 1264 m 1,0,-1
 -516 1394 l 1,1,2
 -453 1397 -453 1397 -424 1413 c 128,-1,3
 -395 1429 -395 1429 -391 1463 c 0,4,5
 -384 1502 -384 1502 -411.5 1518.5 c 128,-1,6
 -439 1535 -439 1535 -493 1535 c 1,7,-1
 -467 1664 l 1,8,9
 -296 1664 -296 1664 -216 1615 c 128,-1,10
 -136 1566 -136 1566 -151 1472 c 0,11,12
 -160 1408 -160 1408 -202 1371.5 c 128,-1,13
 -244 1335 -244 1335 -298 1327 c 1,14,-1
 -307 1264 l 1,15,-1
 -519 1264 l 1,0,-1
EndSplineSet
EndChar

StartChar: uni030F
Encoding: 783 783 351
Width: 13
GlyphClass: 1
Flags: W
LayerCount: 2
Fore
SplineSet
-317 1252 m 1,0,-1
 -545 1252 l 1,1,-1
 -753 1518 l 1,2,-1
 -484 1518 l 1,3,-1
 -317 1252 l 1,0,-1
-4 1252 m 1,4,-1
 -230 1252 l 1,5,-1
 -399 1518 l 1,6,-1
 -133 1518 l 1,7,-1
 -4 1252 l 1,4,-1
EndSplineSet
EndChar

StartChar: dotbelow
Encoding: 803 803 352
Width: 13
GlyphClass: 1
Flags: W
LayerCount: 2
Fore
SplineSet
-485 -351 m 1,0,-1
 -799 -351 l 1,1,-1
 -763 -114 l 1,2,-1
 -449 -114 l 1,3,-1
 -485 -351 l 1,0,-1
EndSplineSet
EndChar

StartChar: tonos
Encoding: 900 900 353
Width: 646
GlyphClass: 1
Flags: W
LayerCount: 2
Fore
SplineSet
431 1551 m 1,0,-1
 685 1551 l 1,1,-1
 688 1546 l 1,2,-1
 468 1276 l 1,3,-1
 330 1276 l 1,4,-1
 431 1551 l 1,0,-1
EndSplineSet
EndChar

StartChar: dieresistonos
Encoding: 901 901 354
Width: 1006
GlyphClass: 1
Flags: W
LayerCount: 2
Fore
SplineSet
962 1260 m 1,0,-1
 727 1260 l 1,1,-1
 756 1456 l 1,2,-1
 991 1456 l 1,3,-1
 962 1260 l 1,0,-1
480 1260 m 1,4,-1
 245 1260 l 1,5,-1
 274 1456 l 1,6,-1
 509 1456 l 1,7,-1
 480 1260 l 1,4,-1
644 1751 m 1,8,-1
 905 1751 l 1,9,-1
 703 1479 l 1,10,-1
 566 1479 l 1,11,-1
 644 1751 l 1,8,-1
EndSplineSet
EndChar

StartChar: Gamma
Encoding: 915 915 366
Width: 994
GlyphClass: 1
Flags: W
LayerCount: 2
Fore
SplineSet
1046 1235 m 1,0,-1
 498 1235 l 1,1,-1
 313 0 l 1,2,-1
 30 0 l 1,3,-1
 248 1456 l 1,4,-1
 1079 1456 l 1,5,-1
 1046 1235 l 1,0,-1
EndSplineSet
EndChar

StartChar: Delta
Encoding: 916 916 367
AltUni2: 002206.ffffffff.0 002206.ffffffff.0
Width: 1310
GlyphClass: 1
Flags: W
LayerCount: 2
Fore
SplineSet
654 1456 m 1,0,-1
 947 1456 l 1,1,-1
 1218 0 l 1,2,-1
 -59 0 l 1,3,-1
 654 1456 l 1,0,-1
341 220 m 1,4,-1
 885 220 l 1,5,-1
 744 1061 l 1,6,-1
 738 1062 l 1,7,-1
 341 220 l 1,4,-1
EndSplineSet
EndChar

StartChar: Theta
Encoding: 920 920 371
Width: 1232
GlyphClass: 1
Flags: W
LayerCount: 2
Fore
SplineSet
780 612 m 1,0,-1
 486 612 l 1,1,-1
 519 832 l 1,2,-1
 813 832 l 1,3,-1
 780 612 l 1,0,-1
1144 524 m 2,4,5
 1103 257 1103 257 939 118 c 128,-1,6
 775 -21 775 -21 531 -21 c 0,7,8
 299 -21 299 -21 172 124.5 c 128,-1,9
 45 270 45 270 84 524 c 2,10,-1
 145 930 l 2,11,12
 184 1196 184 1196 347.5 1336.5 c 128,-1,13
 511 1477 511 1477 755 1477 c 0,14,15
 987 1477 987 1477 1115 1330 c 128,-1,16
 1243 1183 1243 1183 1205 930 c 2,17,-1
 1144 524 l 2,4,5
924 933 m 2,18,19
 948 1098 948 1098 896.5 1176 c 128,-1,20
 845 1254 845 1254 721 1254 c 0,21,22
 603 1254 603 1254 526 1172.5 c 128,-1,23
 449 1091 449 1091 426 933 c 2,24,-1
 365 524 l 2,25,26
 339 356 339 356 389 278 c 128,-1,27
 439 200 439 200 564 200 c 0,28,29
 682 200 682 200 760 282 c 128,-1,30
 838 364 838 364 863 524 c 2,31,-1
 924 933 l 2,18,19
EndSplineSet
EndChar

StartChar: Lambda
Encoding: 923 923 374
Width: 1153
GlyphClass: 1
Flags: W
LayerCount: 2
Fore
SplineSet
229 0 m 1,0,-1
 -66 0 l 1,1,-1
 568 1456 l 1,2,-1
 861 1456 l 1,3,-1
 1059 0 l 1,4,-1
 763 0 l 1,5,-1
 670 1134 l 1,6,-1
 670 1137 l 1,7,-1
 664 1138 l 1,8,-1
 663 1135 l 1,9,-1
 229 0 l 1,0,-1
EndSplineSet
EndChar

StartChar: Xi
Encoding: 926 926 377
Width: 1015
GlyphClass: 1
Flags: W
LayerCount: 2
Fore
SplineSet
40 220 m 1,0,-1
 894 220 l 1,1,-1
 861 0 l 1,2,-1
 7 0 l 1,3,-1
 40 220 l 1,0,-1
233 841 m 1,4,-1
 888 841 l 1,5,-1
 856 629 l 1,6,-1
 201 629 l 1,7,-1
 233 841 l 1,4,-1
246 1456 m 1,8,-1
 1040 1456 l 1,9,-1
 1007 1235 l 1,10,-1
 213 1235 l 1,11,-1
 246 1456 l 1,8,-1
EndSplineSet
EndChar

StartChar: Pi
Encoding: 928 928 379
Width: 1256
GlyphClass: 1
Flags: W
LayerCount: 2
Fore
SplineSet
1064 0 m 1,0,-1
 783 0 l 1,1,-1
 968 1235 l 1,2,-1
 498 1235 l 1,3,-1
 313 0 l 1,4,-1
 31 0 l 1,5,-1
 249 1456 l 1,6,-1
 1282 1456 l 1,7,-1
 1064 0 l 1,0,-1
EndSplineSet
EndChar

StartChar: Sigma
Encoding: 931 931 381
Width: 1015
GlyphClass: 1
Flags: W
LayerCount: 2
Fore
SplineSet
766 730 m 1,0,-1
 378 220 l 1,1,-1
 915 220 l 1,2,-1
 882 0 l 1,3,-1
 -10 0 l 1,4,-1
 11 142 l 1,5,-1
 469 739 l 1,6,-1
 187 1315 l 1,7,-1
 208 1456 l 1,8,-1
 1083 1456 l 1,9,-1
 1050 1235 l 1,10,-1
 535 1235 l 1,11,-1
 768 749 l 1,12,-1
 766 730 l 1,0,-1
EndSplineSet
EndChar

StartChar: Phi
Encoding: 934 934 384
Width: 1324
GlyphClass: 1
Flags: W
LayerCount: 2
Fore
SplineSet
921 1256 m 1,0,1
 1125 1237 1125 1237 1238.5 1090 c 128,-1,2
 1352 943 1352 943 1319 719 c 0,3,4
 1284 487 1284 487 1132 348.5 c 128,-1,5
 980 210 980 210 762 194 c 1,6,-1
 733 0 l 1,7,-1
 451 0 l 1,8,-1
 480 194 l 1,9,10
 273 210 273 210 157.5 353.5 c 128,-1,11
 42 497 42 497 76 717 c 0,12,13
 111 955 111 955 264.5 1098 c 128,-1,14
 418 1241 418 1241 639 1257 c 1,15,-1
 669 1456 l 1,16,-1
 951 1456 l 1,17,-1
 921 1256 l 1,0,1
352 717 m 0,18,19
 332 589 332 589 375 518 c 128,-1,20
 418 447 418 447 510 439 c 1,21,-1
 516 440 l 1,22,-1
 601 1008 l 1,23,-1
 596 1010 l 1,24,25
 506 999 506 999 438 921 c 128,-1,26
 370 843 370 843 352 717 c 0,18,19
1043 719 m 0,27,28
 1062 852 1062 852 1020.5 926.5 c 128,-1,29
 979 1001 979 1001 889 1010 c 1,30,-1
 884 1009 l 1,31,-1
 799 443 l 1,32,-1
 804 440 l 1,33,34
 893 450 893 450 958.5 524 c 128,-1,35
 1024 598 1024 598 1043 719 c 0,27,28
EndSplineSet
EndChar

StartChar: Psi
Encoding: 936 936 386
Width: 1301
GlyphClass: 1
Flags: W
LayerCount: 2
Fore
SplineSet
803 591 m 1,0,-1
 809 589 l 1,1,2
 894 605 894 605 952.5 696 c 128,-1,3
 1011 787 1011 787 1035 945 c 2,4,-1
 1111 1456 l 1,5,-1
 1393 1456 l 1,6,-1
 1317 945 l 2,7,8
 1275 677 1275 677 1130.5 526.5 c 128,-1,9
 986 376 986 376 767 352 c 1,10,-1
 715 0 l 1,11,-1
 434 0 l 1,12,-1
 486 351 l 1,13,14
 277 374 277 374 171 530 c 128,-1,15
 65 686 65 686 105 945 c 2,16,-1
 181 1456 l 1,17,-1
 462 1456 l 1,18,-1
 386 945 l 2,19,20
 361 783 361 783 395 694 c 128,-1,21
 429 605 429 605 516 588 c 1,22,-1
 522 589 l 1,23,-1
 652 1456 l 1,24,-1
 933 1456 l 1,25,-1
 803 591 l 1,0,-1
EndSplineSet
EndChar

StartChar: Omega
Encoding: 937 937 387
AltUni2: 002126.ffffffff.0 002126.ffffffff.0
Width: 1201
GlyphClass: 1
Flags: W
LayerCount: 2
Fore
SplineSet
589 223 m 1,0,-1
 590 228 l 1,1,2
 666 266 666 266 722.5 396 c 128,-1,3
 779 526 779 526 816 769 c 2,4,-1
 830 861 l 2,5,6
 859 1057 859 1057 825 1154 c 128,-1,7
 791 1251 791 1251 703 1246 c 1,8,-1
 697 1247 l 1,9,10
 616 1251 616 1251 549.5 1149 c 128,-1,11
 483 1047 483 1047 456 861 c 2,12,-1
 442 769 l 2,13,14
 403 515 403 515 422 390 c 128,-1,15
 441 265 441 265 510 228 c 1,16,-1
 495 125 l 1,17,-1
 494 125 l 1,18,-1
 476 0 l 1,19,-1
 37 0 l 1,20,-1
 70 223 l 1,21,-1
 295 223 l 1,22,23
 196 311 196 311 148.5 455 c 128,-1,24
 101 599 101 599 127 769 c 2,25,-1
 141 859 l 2,26,27
 183 1142 183 1142 346 1309.5 c 128,-1,28
 509 1477 509 1477 735 1477 c 0,29,30
 949 1477 949 1477 1066.5 1302.5 c 128,-1,31
 1184 1128 1184 1128 1144 859 c 2,32,-1
 1130 769 l 2,33,34
 1103 593 1103 593 1014.5 451.5 c 128,-1,35
 926 310 926 310 804 223 c 1,36,-1
 1030 223 l 1,37,-1
 997 0 l 1,38,-1
 556 0 l 1,39,-1
 589 223 l 1,0,-1
EndSplineSet
EndChar

StartChar: alpha
Encoding: 945 945 395
Width: 1006
GlyphClass: 1
Flags: W
LayerCount: 2
Fore
SplineSet
983 1081 m 1,0,-1
 870 324 l 2,1,2
 859 255 859 255 868.5 229.5 c 128,-1,3
 878 204 878 204 908 204 c 0,4,5
 919 204 919 204 926.5 205.5 c 128,-1,6
 934 207 934 207 942 211 c 1,7,-1
 934 4 l 1,8,9
 899 -10 899 -10 869 -15.5 c 128,-1,10
 839 -21 839 -21 801 -21 c 0,11,12
 721 -21 721 -21 667 15.5 c 128,-1,13
 613 52 613 52 593 127 c 1,14,15
 542 55 542 55 480 17 c 128,-1,16
 418 -21 418 -21 342 -21 c 0,17,18
 176 -21 176 -21 99.5 127 c 128,-1,19
 23 275 23 275 59 514 c 2,20,-1
 62 535 l 2,21,22
 102 800 102 800 219 951 c 128,-1,23
 336 1102 336 1102 512 1102 c 0,24,25
 582 1102 582 1102 631 1063 c 128,-1,26
 680 1024 680 1024 710 953 c 1,27,-1
 768 1081 l 1,28,-1
 983 1081 l 1,0,-1
340 514 m 2,29,30
 317 361 317 361 340 280 c 128,-1,31
 363 199 363 199 448 199 c 0,32,33
 489 199 489 199 522 218.5 c 128,-1,34
 555 238 555 238 582 275 c 1,35,36
 582 286 582 286 583.5 298.5 c 128,-1,37
 585 311 585 311 588 324 c 2,38,-1
 659 802 l 1,39,40
 644 839 644 839 617 860 c 128,-1,41
 590 881 590 881 551 881 c 0,42,43
 473 881 473 881 419.5 784.5 c 128,-1,44
 366 688 366 688 343 535 c 2,45,-1
 340 514 l 2,29,30
EndSplineSet
EndChar

StartChar: beta
Encoding: 946 946 396
Width: 1077
GlyphClass: 1
Flags: W
LayerCount: 2
Fore
SplineSet
694 1477 m 0,0,1
 877 1477 877 1477 976 1371.5 c 128,-1,2
 1075 1266 1075 1266 1048 1083 c 0,3,4
 1032 978 1032 978 974.5 895 c 128,-1,5
 917 812 917 812 830 766 c 1,6,7
 927 722 927 722 972 629 c 128,-1,8
 1017 536 1017 536 999 410 c 0,9,10
 966 196 966 196 850 87.5 c 128,-1,11
 734 -21 734 -21 552 -21 c 0,12,13
 493 -21 493 -21 435.5 -4.5 c 128,-1,14
 378 12 378 12 331 47 c 1,15,-1
 263 -407 l 1,16,-1
 -19 -407 l 1,17,-1
 197 1033 l 2,18,19
 227 1237 227 1237 368.5 1357 c 128,-1,20
 510 1477 510 1477 694 1477 c 0,0,1
546 852 m 1,21,-1
 596 852 l 2,22,23
 664 852 664 852 706.5 906.5 c 128,-1,24
 749 961 749 961 764 1063 c 0,25,26
 776 1146 776 1146 749.5 1201 c 128,-1,27
 723 1256 723 1256 660 1256 c 0,28,29
 596 1256 596 1256 544.5 1194.5 c 128,-1,30
 493 1133 493 1133 479 1033 c 2,31,-1
 361 246 l 1,32,33
 388 223 388 223 427.5 211 c 128,-1,34
 467 199 467 199 517 199 c 0,35,36
 591 199 591 199 647.5 259.5 c 128,-1,37
 704 320 704 320 718 413 c 0,38,39
 735 531 735 531 702 591.5 c 128,-1,40
 669 652 669 652 589 652 c 2,41,-1
 516 652 l 1,42,-1
 525 714 l 1,43,-1
 534 775 l 1,44,-1
 538 800 l 1,45,-1
 546 852 l 1,21,-1
EndSplineSet
EndChar

StartChar: gamma
Encoding: 947 947 397
Width: 921
GlyphClass: 1
Flags: W
LayerCount: 2
Fore
SplineSet
692 1082 m 1,0,-1
 987 1082 l 1,1,-1
 521 9 l 1,2,-1
 457 -417 l 1,3,-1
 176 -417 l 1,4,-1
 240 12 l 1,5,-1
 95 1082 l 1,6,-1
 392 1082 l 1,7,-1
 424 400 l 1,8,-1
 425 318 l 1,9,-1
 431 317 l 1,10,-1
 458 400 l 1,11,-1
 692 1082 l 1,0,-1
EndSplineSet
EndChar

StartChar: delta
Encoding: 948 948 398
Width: 1008
GlyphClass: 1
Flags: W
LayerCount: 2
Fore
SplineSet
994 1456 m 1,0,-1
 961 1236 l 1,1,-1
 633 1236 l 1,2,-1
 779 1040 l 1,3,4
 872 951 872 951 923.5 828.5 c 128,-1,5
 975 706 975 706 952 551 c 2,6,-1
 948 528 l 1,7,8
 910 275 910 275 771.5 127 c 128,-1,9
 633 -21 633 -21 422 -21 c 0,10,11
 218 -21 218 -21 118.5 125 c 128,-1,12
 19 271 19 271 54 500 c 1,13,-1
 57 523 l 2,14,15
 88 733 88 733 199 868 c 128,-1,16
 310 1003 310 1003 456 1031 c 0,17,18
 459 1031 459 1031 461.5 1031 c 128,-1,19
 464 1031 464 1031 466 1032 c 1,20,-1
 259 1280 l 1,21,-1
 285 1456 l 1,22,-1
 994 1456 l 1,0,-1
555 881 m 0,23,24
 470 881 470 881 417 788.5 c 128,-1,25
 364 696 364 696 343 551 c 1,26,-1
 339 528 l 1,27,28
 316 371 316 371 340 285 c 128,-1,29
 364 199 364 199 455 199 c 0,30,31
 538 199 538 199 591 289.5 c 128,-1,32
 644 380 644 380 666 528 c 2,33,-1
 670 551 l 2,34,35
 693 705 693 705 668.5 793 c 128,-1,36
 644 881 644 881 555 881 c 0,23,24
EndSplineSet
EndChar

StartChar: epsilon
Encoding: 949 949 399
Width: 1000
GlyphClass: 1
Flags: W
LayerCount: 2
Fore
SplineSet
674 517 m 1,0,-1
 666 462 l 1,1,-1
 506 462 l 2,2,3
 437 462 437 462 391.5 428.5 c 128,-1,4
 346 395 346 395 336 325 c 0,5,6
 326 264 326 264 358 225 c 128,-1,7
 390 186 390 186 462 186 c 0,8,9
 531 186 531 186 576.5 223.5 c 128,-1,10
 622 261 622 261 631 318 c 1,11,-1
 902 318 l 1,12,-1
 904 312 l 1,13,14
 883 145 883 145 751 63 c 128,-1,15
 619 -19 619 -19 448 -19 c 0,16,17
 261 -19 261 -19 144.5 68.5 c 128,-1,18
 28 156 28 156 51 304 c 0,19,20
 65 399 65 399 121 463 c 128,-1,21
 177 527 177 527 271 558 c 1,22,23
 200 594 200 594 164.5 655 c 128,-1,24
 129 716 129 716 140 787 c 0,25,26
 163 942 163 942 291 1021 c 128,-1,27
 419 1100 419 1100 616 1100 c 0,28,29
 778 1100 778 1100 881.5 1011 c 128,-1,30
 985 922 985 922 959 779 c 1,31,-1
 957 773 l 1,32,-1
 684 773 l 1,33,34
 692 831 692 831 660 862.5 c 128,-1,35
 628 894 628 894 569 894 c 0,36,37
 506 894 506 894 466 856 c 128,-1,38
 426 818 426 818 418 765 c 0,39,40
 409 706 409 706 439 675 c 128,-1,41
 469 644 469 644 534 644 c 2,42,-1
 694 644 l 1,43,-1
 675 517 l 1,44,-1
 674 517 l 1,0,-1
EndSplineSet
EndChar

StartChar: zeta
Encoding: 950 950 400
Width: 901
GlyphClass: 1
Flags: W
LayerCount: 2
Fore
SplineSet
983 1456 m 1,0,-1
 960 1303 l 1,1,-1
 589 858 l 2,2,3
 479 724 479 724 426.5 631 c 128,-1,4
 374 538 374 538 356 420 c 0,5,6
 340 315 340 315 371 265 c 128,-1,7
 402 215 402 215 484 215 c 2,8,-1
 528 215 l 2,9,10
 652 215 652 215 719 142.5 c 128,-1,11
 786 70 786 70 767 -57 c 0,12,13
 747 -183 747 -183 653 -283 c 128,-1,14
 559 -383 559 -383 413 -422 c 1,15,-1
 349 -232 l 1,16,17
 407 -206 407 -206 444.5 -170 c 128,-1,18
 482 -134 482 -134 491 -82 c 0,19,20
 496 -41 496 -41 474.5 -20.5 c 128,-1,21
 453 0 453 0 393 0 c 2,22,-1
 355 0 l 2,23,24
 195 0 195 0 120.5 111 c 128,-1,25
 46 222 46 222 70 377 c 0,26,27
 93 536 93 536 167.5 664.5 c 128,-1,28
 242 793 242 793 393 973 c 2,29,-1
 613 1232 l 1,30,-1
 611 1237 l 1,31,-1
 174 1237 l 1,32,-1
 206 1456 l 1,33,-1
 983 1456 l 1,0,-1
EndSplineSet
EndChar

StartChar: eta
Encoding: 951 951 401
Width: 1008
GlyphClass: 1
Flags: W
LayerCount: 2
Fore
SplineSet
424 939 m 1,0,1
 481 1017 481 1017 554 1059.5 c 128,-1,2
 627 1102 627 1102 709 1102 c 0,3,4
 842 1102 842 1102 907 994.5 c 128,-1,5
 972 887 972 887 938 657 c 2,6,-1
 777 -415 l 1,7,-1
 495 -415 l 1,8,-1
 656 657 l 2,9,10
 674 785 674 785 652.5 833 c 128,-1,11
 631 881 631 881 569 881 c 0,12,13
 524 881 524 881 483.5 858 c 128,-1,14
 443 835 443 835 410 794 c 1,15,-1
 291 0 l 1,16,-1
 9 0 l 1,17,-1
 171 1082 l 1,18,-1
 434 1082 l 1,19,-1
 424 939 l 1,0,1
EndSplineSet
EndChar

StartChar: theta
Encoding: 952 952 402
Width: 1061
GlyphClass: 1
Flags: W
LayerCount: 2
Fore
SplineSet
991 528 m 2,0,1
 951 261 951 261 808.5 120 c 128,-1,2
 666 -21 666 -21 462 -21 c 0,3,4
 265 -21 265 -21 159.5 126.5 c 128,-1,5
 54 274 54 274 93 528 c 2,6,-1
 153 927 l 2,7,8
 193 1192 193 1192 336 1334.5 c 128,-1,9
 479 1477 479 1477 685 1477 c 0,10,11
 880 1477 880 1477 984.5 1328.5 c 128,-1,12
 1089 1180 1089 1180 1051 927 c 2,13,-1
 991 528 l 2,0,1
723 626 m 1,14,-1
 391 626 l 1,15,-1
 373 505 l 2,16,17
 350 352 350 352 382 275.5 c 128,-1,18
 414 199 414 199 495 199 c 0,19,20
 569 199 569 199 625.5 279 c 128,-1,21
 682 359 682 359 705 505 c 2,22,-1
 723 626 l 1,14,-1
422 837 m 1,23,-1
 754 837 l 1,24,-1
 772 952 l 2,25,26
 794 1102 794 1102 761.5 1179 c 128,-1,27
 729 1256 729 1256 651 1256 c 0,28,29
 575 1256 575 1256 518 1175.5 c 128,-1,30
 461 1095 461 1095 440 952 c 2,31,-1
 422 837 l 1,23,-1
EndSplineSet
EndChar

StartChar: iota
Encoding: 953 953 403
Width: 609
GlyphClass: 1
Flags: W
LayerCount: 2
Fore
SplineSet
478 1081 m 1,0,-1
 365 326 l 2,1,2
 354 253 354 253 366 227 c 128,-1,3
 378 201 378 201 416 201 c 0,4,5
 440 201 440 201 452.5 203.5 c 128,-1,6
 465 206 465 206 502 216 c 1,7,-1
 497 8 l 1,8,9
 452 -8 452 -8 413.5 -14.5 c 128,-1,10
 375 -21 375 -21 326 -21 c 0,11,12
 189 -21 189 -21 122.5 66.5 c 128,-1,13
 56 154 56 154 83 328 c 2,14,-1
 196 1081 l 1,15,-1
 478 1081 l 1,0,-1
EndSplineSet
EndChar

StartChar: lambda
Encoding: 955 955 405
Width: 951
GlyphClass: 1
Flags: W
LayerCount: 2
Fore
SplineSet
231 0 m 1,0,-1
 -71 0 l 1,1,-1
 406 1064 l 1,2,-1
 375 1174 l 1,3,4
 365 1228 365 1228 336 1262 c 128,-1,5
 307 1296 307 1296 264 1296 c 0,6,7
 252 1296 252 1296 234 1294 c 128,-1,8
 216 1292 216 1292 207 1290 c 1,9,-1
 232 1495 l 1,10,11
 277 1507 277 1507 305 1512.5 c 128,-1,12
 333 1518 333 1518 369 1518 c 0,13,14
 506 1518 506 1518 568.5 1437 c 128,-1,15
 631 1356 631 1356 653 1245 c 2,16,-1
 831 346 l 1,17,18
 837 292 837 292 855.5 256 c 128,-1,19
 874 220 874 220 906 213 c 0,20,21
 915 210 915 210 925.5 210 c 128,-1,22
 936 210 936 210 950 211 c 1,23,-1
 897 -2 l 1,24,25
 864 -8 864 -8 832 -10.5 c 128,-1,26
 800 -13 800 -13 769 -10 c 0,27,28
 657 0 657 0 605 94 c 128,-1,29
 553 188 553 188 533 315 c 2,30,-1
 480 669 l 1,31,-1
 474 670 l 1,32,-1
 464 640 l 1,33,-1
 231 0 l 1,0,-1
EndSplineSet
EndChar

StartChar: xi
Encoding: 958 958 408
Width: 968
GlyphClass: 1
Flags: W
LayerCount: 2
Fore
SplineSet
1002 1456 m 1,0,-1
 968 1228 l 1,1,-1
 724 1228 l 2,2,3
 643 1225 643 1225 593 1182 c 128,-1,4
 543 1139 543 1139 533 1069 c 0,5,6
 521 989 521 989 555 946.5 c 128,-1,7
 589 904 589 904 676 904 c 2,8,-1
 809 904 l 1,9,-1
 785 746 l 1,10,-1
 784 746 l 1,11,-1
 774 676 l 1,12,-1
 649 676 l 2,13,14
 526 676 526 676 450.5 610.5 c 128,-1,15
 375 545 375 545 357 419 c 0,16,17
 341 320 341 320 378.5 264 c 128,-1,18
 416 208 416 208 498 208 c 2,19,-1
 616 208 l 2,20,21
 743 208 743 208 811.5 137.5 c 128,-1,22
 880 67 880 67 860 -64 c 0,23,24
 838 -206 838 -206 749 -301 c 128,-1,25
 660 -396 660 -396 506 -441 c 1,26,-1
 455 -274 l 1,27,28
 505 -249 505 -249 546.5 -211.5 c 128,-1,29
 588 -174 588 -174 597 -117 c 0,30,31
 604 -69 604 -69 583 -43.5 c 128,-1,32
 562 -18 562 -18 509 -18 c 2,33,-1
 447 -18 l 2,34,35
 252 -18 252 -18 148.5 99 c 128,-1,36
 45 216 45 216 76 423 c 0,37,38
 97 563 97 563 177 655 c 128,-1,39
 257 747 257 747 391 791 c 1,40,41
 310 825 310 825 271 883.5 c 128,-1,42
 232 942 232 942 245 1022 c 0,43,44
 256 1094 256 1094 294.5 1145 c 128,-1,45
 333 1196 333 1196 398 1228 c 1,46,-1
 221 1228 l 1,47,-1
 255 1456 l 1,48,-1
 1002 1456 l 1,0,-1
EndSplineSet
EndChar

StartChar: pi
Encoding: 960 960 410
Width: 1215
GlyphClass: 1
Flags: W
LayerCount: 2
Fore
SplineSet
1132 874 m 1,0,-1
 1048 874 l 1,1,-1
 966 326 l 2,2,3
 955 253 955 253 967 227 c 128,-1,4
 979 201 979 201 1017 201 c 0,5,6
 1041 201 1041 201 1053.5 203.5 c 128,-1,7
 1066 206 1066 206 1103 216 c 1,8,-1
 1098 8 l 1,9,10
 1053 -8 1053 -8 1014.5 -14.5 c 128,-1,11
 976 -21 976 -21 927 -21 c 0,12,13
 790 -21 790 -21 723.5 66.5 c 128,-1,14
 657 154 657 154 684 328 c 2,15,-1
 766 874 l 1,16,-1
 543 874 l 1,17,-1
 412 0 l 1,18,-1
 131 0 l 1,19,-1
 262 874 l 1,20,-1
 125 874 l 1,21,-1
 156 1082 l 1,22,-1
 1163 1082 l 1,23,-1
 1132 874 l 1,0,-1
EndSplineSet
EndChar

StartChar: rho
Encoding: 961 961 411
Width: 1008
GlyphClass: 1
Flags: W
LayerCount: 2
Fore
SplineSet
948 514 m 2,0,1
 910 263 910 263 795 121 c 128,-1,2
 680 -21 680 -21 506 -21 c 0,3,4
 439 -21 439 -21 390 7.5 c 128,-1,5
 341 36 341 36 309 91 c 1,6,-1
 233 -416 l 1,7,-1
 -48 -416 l 1,8,-1
 101 581 l 1,9,-1
 102 581 l 1,10,-1
 101 582 l 1,11,12
 137 824 137 824 273.5 963 c 128,-1,13
 410 1102 410 1102 617 1102 c 0,14,15
 809 1102 809 1102 899 944.5 c 128,-1,16
 989 787 989 787 951 535 c 2,17,-1
 948 514 l 2,0,1
669 535 m 2,18,19
 693 697 693 697 671 787.5 c 128,-1,20
 649 878 649 878 570 874 c 1,21,-1
 564 874 l 1,22,23
 499 879 499 879 449 787 c 128,-1,24
 399 695 399 695 378 556 c 1,25,-1
 377 555 l 1,26,-1
 378 555 l 1,27,-1
 337 278 l 1,28,29
 352 239 352 239 383.5 219 c 128,-1,30
 415 199 415 199 465 199 c 0,31,32
 544 199 544 199 594 284 c 128,-1,33
 644 369 644 369 666 514 c 2,34,-1
 669 535 l 2,18,19
EndSplineSet
EndChar

StartChar: sigma1
Encoding: 962 962 412
Width: 909
GlyphClass: 1
Flags: W
LayerCount: 2
Fore
SplineSet
572 1102 m 0,0,1
 743 1102 743 1102 835 989.5 c 128,-1,2
 927 877 927 877 898 681 c 1,3,-1
 635 681 l 1,4,5
 649 775 649 775 626.5 828 c 128,-1,6
 604 881 604 881 539 881 c 0,7,8
 456 881 456 881 405.5 789.5 c 128,-1,9
 355 698 355 698 334 555 c 2,10,-1
 330 526 l 2,11,12
 307 378 307 378 347 306 c 128,-1,13
 387 234 387 234 501 213 c 0,14,15
 664 184 664 184 732 119.5 c 128,-1,16
 800 55 800 55 781 -76 c 0,17,18
 759 -201 759 -201 665 -300 c 128,-1,19
 571 -399 571 -399 427 -438 c 1,20,-1
 364 -248 l 1,21,22
 421 -221 421 -221 458.5 -186 c 128,-1,23
 496 -151 496 -151 504 -99 c 0,24,25
 510 -56 510 -56 483 -34 c 128,-1,26
 456 -12 456 -12 393 1 c 0,27,28
 183 35 183 35 99 167 c 128,-1,29
 15 299 15 299 50 526 c 2,30,-1
 54 555 l 2,31,32
 91 804 91 804 226 953 c 128,-1,33
 361 1102 361 1102 572 1102 c 0,0,1
EndSplineSet
EndChar

StartChar: sigma
Encoding: 963 963 413
Width: 1026
GlyphClass: 1
Flags: W
LayerCount: 2
Fore
SplineSet
1047 861 m 1,0,-1
 823 861 l 1,1,2
 883 795 883 795 912.5 704 c 128,-1,3
 942 613 942 613 928 514 c 2,4,-1
 925 491 l 1,5,6
 889 258 889 258 756 118.5 c 128,-1,7
 623 -21 623 -21 420 -21 c 256,8,9
 217 -21 217 -21 118.5 133 c 128,-1,10
 20 287 20 287 56 528 c 1,11,-1
 60 551 l 1,12,13
 96 795 96 795 233 938.5 c 128,-1,14
 370 1082 370 1082 583 1082 c 1,15,16
 0 0 0 0 291.5 540.5 c 128,-1,17
 583 1081 583 1081 584 1081 c 1,18,-1
 584 1082 l 1,19,-1
 1080 1082 l 1,20,-1
 1047 861 l 1,0,-1
337 528 m 1,21,22
 314 371 314 371 338 286 c 128,-1,23
 362 201 362 201 451 206 c 1,24,-1
 457 205 l 1,25,26
 529 200 529 200 577 290 c 128,-1,27
 625 380 625 380 648 528 c 2,28,-1
 652 551 l 1,29,30
 673 696 673 696 652 778.5 c 128,-1,31
 631 861 631 861 551 861 c 0,32,33
 467 861 467 861 414 774 c 128,-1,34
 361 687 361 687 341 551 c 2,35,-1
 337 528 l 1,21,22
EndSplineSet
EndChar

StartChar: tau
Encoding: 964 964 414
Width: 942
GlyphClass: 1
Flags: W
LayerCount: 2
Fore
SplineSet
953 863 m 1,0,-1
 663 863 l 1,1,-1
 534 0 l 1,2,-1
 252 0 l 1,3,-1
 381 863 l 1,4,-1
 93 863 l 1,5,-1
 126 1082 l 1,6,-1
 986 1082 l 1,7,-1
 953 863 l 1,0,-1
EndSplineSet
EndChar

StartChar: upsilon
Encoding: 965 965 415
Width: 1008
GlyphClass: 1
Flags: W
LayerCount: 2
Fore
SplineSet
459 1082 m 1,0,-1
 368 471 l 2,1,2
 345 321 345 321 373 260.5 c 128,-1,3
 401 200 401 200 463 206 c 1,4,-1
 469 205 l 1,5,6
 542 200 542 200 594.5 305 c 128,-1,7
 647 410 647 410 670 559 c 0,8,9
 687 691 687 691 685 822 c 128,-1,10
 683 953 683 953 665 1082 c 1,11,-1
 930 1082 l 1,12,13
 959 977 959 977 966.5 847 c 128,-1,14
 974 717 974 717 951 560 c 0,15,16
 909 283 909 283 788.5 131 c 128,-1,17
 668 -21 668 -21 440 -21 c 0,18,19
 245 -21 245 -21 146.5 102 c 128,-1,20
 48 225 48 225 86 473 c 2,21,-1
 177 1082 l 1,22,-1
 459 1082 l 1,0,-1
EndSplineSet
EndChar

StartChar: phi
Encoding: 966 966 416
Width: 1351
GlyphClass: 1
Flags: W
LayerCount: 2
Fore
SplineSet
890 1082 m 2,0,1
 1118 1082 1118 1082 1222.5 916.5 c 128,-1,2
 1327 751 1327 751 1296 538 c 0,3,4
 1261 311 1261 311 1124.5 164 c 128,-1,5
 988 17 988 17 725 -13 c 1,6,-1
 656 -478 l 1,7,-1
 374 -478 l 1,8,-1
 444 -9 l 1,9,10
 205 31 205 31 110 196 c 128,-1,11
 15 361 15 361 50 592 c 0,12,13
 72 745 72 745 119.5 863 c 128,-1,14
 167 981 167 981 234 1082 c 1,15,-1
 491 1082 l 1,16,17
 432 952 432 952 391 831 c 128,-1,18
 350 710 350 710 331 592 c 0,19,20
 308 444 308 444 340.5 351 c 128,-1,21
 373 258 373 258 475 231 c 1,22,-1
 481 231 l 1,23,-1
 608 1082 l 1,24,-1
 890 1082 l 2,0,1
1014 538 m 0,25,26
 1033 680 1033 680 995 769 c 128,-1,27
 957 858 957 858 861 852 c 1,28,-1
 855 851 l 1,29,-1
 762 228 l 1,30,-1
 767 225 l 1,31,32
 874 250 874 250 934.5 332.5 c 128,-1,33
 995 415 995 415 1014 538 c 0,25,26
EndSplineSet
EndChar

StartChar: chi
Encoding: 967 967 417
Width: 951
GlyphClass: 1
Flags: W
LayerCount: 2
Fore
SplineSet
233 1097 m 0,0,1
 371 1097 371 1097 434 1016.5 c 128,-1,2
 497 936 497 936 517 827 c 2,3,-1
 540 718 l 1,4,-1
 546 717 l 1,5,-1
 751 1082 l 1,6,-1
 1037 1082 l 1,7,-1
 619 348 l 1,8,-1
 709 -72 l 1,9,10
 715 -124 715 -124 733.5 -160 c 128,-1,11
 752 -196 752 -196 783 -205 c 0,12,13
 792 -207 792 -207 803.5 -207 c 128,-1,14
 815 -207 815 -207 827 -207 c 1,15,-1
 775 -421 l 1,16,17
 745 -428 745 -428 712 -430 c 128,-1,18
 679 -432 679 -432 647 -429 c 0,19,20
 548 -419 548 -419 502 -325 c 128,-1,21
 456 -231 456 -231 437 -102 c 1,22,-1
 419 -15 l 1,23,-1
 413 -14 l 1,24,-1
 185 -415 l 1,25,-1
 -91 -415 l 1,26,-1
 341 353 l 1,27,-1
 256 756 l 2,28,29
 247 812 247 812 211.5 844 c 128,-1,30
 176 876 176 876 127 876 c 0,31,32
 116 876 116 876 98.5 874 c 128,-1,33
 81 872 81 872 72 870 c 1,34,-1
 97 1075 l 1,35,36
 138 1086 138 1086 167.5 1091.5 c 128,-1,37
 197 1097 197 1097 233 1097 c 0,0,1
EndSplineSet
EndChar

StartChar: psi
Encoding: 968 968 418
Width: 1349
GlyphClass: 1
Flags: W
LayerCount: 2
Fore
SplineSet
889 1081 m 1,0,-1
 762 235 l 1,1,-1
 768 233 l 1,2,3
 872 264 872 264 935.5 361 c 128,-1,4
 999 458 999 458 1020 596 c 0,5,6
 1036 713 1036 713 1031 833 c 128,-1,7
 1026 953 1026 953 1006 1082 c 1,8,-1
 1263 1082 l 1,9,10
 1299 984 1299 984 1311.5 863 c 128,-1,11
 1324 742 1324 742 1302 596 c 0,12,13
 1264 345 1264 345 1125.5 182.5 c 128,-1,14
 987 20 987 20 725 -13 c 1,15,-1
 656 -472 l 1,16,-1
 374 -472 l 1,17,-1
 443 -9 l 1,18,19
 230 27 230 27 127 175.5 c 128,-1,20
 24 324 24 324 64 589 c 2,21,-1
 138 1082 l 1,22,-1
 420 1082 l 1,23,-1
 346 586 l 2,24,25
 321 426 321 426 357 340 c 128,-1,26
 393 254 393 254 474 232 c 1,27,-1
 480 232 l 1,28,-1
 607 1081 l 1,29,-1
 889 1081 l 1,0,-1
EndSplineSet
EndChar

StartChar: omega
Encoding: 969 969 419
Width: 1528
GlyphClass: 1
Flags: W
LayerCount: 2
Fore
SplineSet
547 1082 m 1,0,1
 474 951 474 951 424 820.5 c 128,-1,2
 374 690 374 690 351 559 c 0,3,4
 326 397 326 397 341 299 c 128,-1,5
 356 201 356 201 427 207 c 1,6,-1
 433 206 l 2,7,8
 487 200 487 200 536 270.5 c 128,-1,9
 585 341 585 341 608 492 c 2,10,-1
 660 841 l 1,11,-1
 958 841 l 1,12,-1
 906 492 l 2,13,14
 882 333 882 333 909 266.5 c 128,-1,15
 936 200 936 200 997 207 c 1,16,-1
 1003 206 l 1,17,18
 1067 201 1067 201 1113.5 302.5 c 128,-1,19
 1160 404 1160 404 1184 559 c 1,20,21
 1200 693 1200 693 1189.5 824 c 128,-1,22
 1179 955 1179 955 1144 1082 c 1,23,-1
 1409 1082 l 1,24,25
 1454 978 1454 978 1471 847.5 c 128,-1,26
 1488 717 1488 717 1465 560 c 0,27,28
 1423 282 1423 282 1308 130.5 c 128,-1,29
 1193 -21 1193 -21 975 -21 c 0,30,31
 880 -21 880 -21 812.5 31.5 c 128,-1,32
 745 84 745 84 714 184 c 1,33,34
 654 81 654 81 571 30 c 128,-1,35
 488 -21 488 -21 387 -21 c 0,36,37
 178 -21 178 -21 104 137.5 c 128,-1,38
 30 296 30 296 70 560 c 0,39,40
 94 722 94 722 148.5 847.5 c 128,-1,41
 203 973 203 973 282 1082 c 1,42,-1
 547 1082 l 1,0,1
EndSplineSet
EndChar

StartChar: uni03D1
Encoding: 977 977 425
Width: 1242
GlyphClass: 2
Flags: W
LayerCount: 2
Fore
SplineSet
542 963 m 1,0,-1
 558 1069 l 2,1,2
 585 1252 585 1252 702 1364.5 c 128,-1,3
 819 1477 819 1477 968 1477 c 0,4,5
 1122 1477 1122 1477 1193.5 1372 c 128,-1,6
 1265 1267 1265 1267 1235 1069 c 2,7,-1
 1157 545 l 2,8,9
 1118 290 1118 290 950 134.5 c 128,-1,10
 782 -21 782 -21 559 -21 c 0,11,12
 319 -21 319 -21 196.5 134.5 c 128,-1,13
 74 290 74 290 113 545 c 2,14,-1
 219 1252 l 1,15,-1
 517 1254 l 1,16,-1
 411 545 l 2,17,18
 388 397 388 397 438.5 302.5 c 128,-1,19
 489 208 489 208 593 208 c 0,20,21
 694 208 694 208 763.5 293 c 128,-1,22
 833 378 833 378 859 542 c 1,23,24
 698 557 698 557 606.5 672 c 128,-1,25
 515 787 515 787 542 963 c 1,26,-1
 542 963 l 1,0,-1
943 1098 m 2,27,28
 952 1164 952 1164 944.5 1197.5 c 128,-1,29
 937 1231 937 1231 916 1225 c 1,30,-1
 910 1226 l 2,31,32
 883 1231 883 1231 861 1199 c 128,-1,33
 839 1167 839 1167 829 1098 c 2,34,-1
 808 961 l 2,35,36
 795 882 795 882 817 825.5 c 128,-1,37
 839 769 839 769 886 759 c 1,38,-1
 892 760 l 1,39,-1
 943 1098 l 2,27,28
EndSplineSet
EndChar

StartChar: uni03D2
Encoding: 978 978 426
Width: 1068
GlyphClass: 1
Flags: W
LayerCount: 2
Fore
SplineSet
769 1200 m 1,0,1
 847 1355 847 1355 924 1417.5 c 128,-1,2
 1001 1480 1001 1480 1122 1480 c 0,3,4
 1147 1480 1147 1480 1169 1475.5 c 128,-1,5
 1191 1471 1191 1471 1208 1462 c 1,6,-1
 1154 1246 l 1,7,8
 1151 1247 1151 1247 1136.5 1249 c 128,-1,9
 1122 1251 1122 1251 1113 1251 c 0,10,11
 1082 1251 1082 1251 1054.5 1221.5 c 128,-1,12
 1027 1192 1027 1192 1008 1142 c 1,13,-1
 661 474 l 1,14,-1
 590 0 l 1,15,-1
 309 0 l 1,16,-1
 382 490 l 1,17,-1
 241 1142 l 1,18,19
 237 1193 237 1193 219 1222 c 128,-1,20
 201 1251 201 1251 170 1251 c 0,21,22
 161 1251 161 1251 144.5 1249 c 128,-1,23
 128 1247 128 1247 126 1246 c 1,24,-1
 139 1462 l 1,25,26
 156 1471 156 1471 178.5 1475.5 c 128,-1,27
 201 1480 201 1480 229 1480 c 0,28,29
 346 1480 346 1480 407 1419.5 c 128,-1,30
 468 1359 468 1359 498 1207 c 1,31,-1
 561 820 l 1,32,-1
 563 752 l 1,33,-1
 569 751 l 1,34,-1
 592 820 l 1,35,-1
 769 1200 l 1,0,1
EndSplineSet
EndChar

StartChar: uni03D6
Encoding: 982 982 427
Width: 1489
GlyphClass: 1
Flags: W
LayerCount: 2
Fore
SplineSet
1539 908 m 1,0,-1
 1420 908 l 1,1,2
 1434 830 1434 830 1435 743 c 128,-1,3
 1436 656 1436 656 1422 560 c 0,4,5
 1380 282 1380 282 1270.5 130.5 c 128,-1,6
 1161 -21 1161 -21 956 -21 c 0,7,8
 862 -21 862 -21 794.5 31 c 128,-1,9
 727 83 727 83 696 184 c 1,10,11
 636 81 636 81 553 30 c 128,-1,12
 470 -21 470 -21 369 -21 c 0,13,14
 173 -21 173 -21 104.5 138 c 128,-1,15
 36 297 36 297 76 560 c 0,16,17
 90 659 90 659 117 745 c 128,-1,18
 144 831 144 831 181 908 c 1,19,-1
 69 908 l 1,20,-1
 95 1082 l 1,21,-1
 1565 1082 l 1,22,-1
 1539 908 l 1,0,-1
1141 559 m 0,23,24
 1152 646 1152 646 1151 733.5 c 128,-1,25
 1150 821 1150 821 1139 908 c 1,26,-1
 464 908 l 1,27,28
 426 821 426 821 399 733.5 c 128,-1,29
 372 646 372 646 357 559 c 0,30,31
 332 397 332 397 341.5 299 c 128,-1,32
 351 201 351 201 410 208 c 1,33,-1
 416 206 l 1,34,35
 469 200 469 200 518 270.5 c 128,-1,36
 567 341 567 341 590 492 c 2,37,-1
 621 699 l 1,38,-1
 919 699 l 1,39,-1
 888 492 l 2,40,41
 864 334 864 334 890.5 267 c 128,-1,42
 917 200 917 200 976 207 c 1,43,-1
 982 207 l 1,44,45
 1036 201 1036 201 1076.5 302 c 128,-1,46
 1117 403 1117 403 1141 559 c 0,23,24
EndSplineSet
EndChar

StartChar: uni0402
Encoding: 1026 1026 430
Width: 1360
GlyphClass: 1
Flags: W
LayerCount: 2
Fore
SplineSet
1113 1235 m 1,0,-1
 771 1235 l 1,1,-1
 723 916 l 1,2,-1
 970 916 l 2,3,4
 1198 916 1198 916 1323.5 791.5 c 128,-1,5
 1449 667 1449 667 1414 431 c 0,6,7
 1397 300 1397 300 1293.5 166 c 128,-1,8
 1190 32 1190 32 1027 -28 c 1,9,-1
 932 152 l 1,10,11
 1013 199 1013 199 1065 268 c 128,-1,12
 1117 337 1117 337 1132 431 c 0,13,14
 1151 562 1151 562 1100.5 627.5 c 128,-1,15
 1050 693 1050 693 937 693 c 2,16,-1
 690 693 l 1,17,-1
 586 0 l 1,18,-1
 303 0 l 1,19,-1
 488 1235 l 1,20,-1
 155 1235 l 1,21,-1
 188 1456 l 1,22,-1
 1146 1456 l 1,23,-1
 1113 1235 l 1,0,-1
EndSplineSet
EndChar

StartChar: uni0404
Encoding: 1028 1028 432
Width: 1108
GlyphClass: 1
Flags: W
LayerCount: 2
Fore
SplineSet
1070 453 m 1,0,-1
 1072 447 l 1,1,2
 1040 204 1040 204 901 92 c 128,-1,3
 762 -20 762 -20 530 -20 c 0,4,5
 303 -20 303 -20 182 119.5 c 128,-1,6
 61 259 61 259 99 512 c 2,7,-1
 164 944 l 2,8,9
 203 1208 203 1208 355.5 1343 c 128,-1,10
 508 1478 508 1478 738 1478 c 256,11,12
 968 1478 968 1478 1083 1360.5 c 128,-1,13
 1198 1243 1198 1243 1159 1010 c 1,14,-1
 1157 1005 l 1,15,-1
 882 1005 l 1,16,17
 903 1151 903 1151 862.5 1204 c 128,-1,18
 822 1257 822 1257 705 1257 c 0,19,20
 603 1257 603 1257 536 1179.5 c 128,-1,21
 469 1102 469 1102 446 946 c 2,22,-1
 430 842 l 1,23,-1
 771 842 l 1,24,-1
 738 620 l 1,25,-1
 397 620 l 1,26,-1
 381 512 l 2,27,28
 356 347 356 347 401.5 273.5 c 128,-1,29
 447 200 447 200 563 200 c 0,30,31
 665 200 665 200 720.5 256 c 128,-1,32
 776 312 776 312 798 453 c 1,33,-1
 1070 453 l 1,0,-1
EndSplineSet
EndChar

StartChar: uni0405
Encoding: 1029 1029 433
Width: 1107
GlyphClass: 1
Flags: W
LayerCount: 2
Fore
SplineSet
731 378 m 0,0,1
 744 468 744 468 708 516.5 c 128,-1,2
 672 565 672 565 562 614 c 1,3,4
 350 693 350 693 252 793 c 128,-1,5
 154 893 154 893 181 1073 c 0,6,7
 208 1259 208 1259 352.5 1368 c 128,-1,8
 497 1477 497 1477 700 1477 c 0,9,10
 904 1477 904 1477 1018.5 1356 c 128,-1,11
 1133 1235 1133 1235 1099 1034 c 1,12,-1
 1097 1029 l 1,13,-1
 822 1029 l 1,14,15
 839 1146 839 1146 798 1202.5 c 128,-1,16
 757 1259 757 1259 662 1259 c 0,17,18
 585 1259 585 1259 529.5 1205 c 128,-1,19
 474 1151 474 1151 463 1072 c 0,20,21
 451 995 451 995 494 949 c 128,-1,22
 537 903 537 903 655 845 c 1,23,24
 856 775 856 775 947.5 668 c 128,-1,25
 1039 561 1039 561 1013 380 c 0,26,27
 983 185 983 185 842.5 82 c 128,-1,28
 702 -21 702 -21 489 -21 c 0,29,30
 288 -21 288 -21 155.5 95.5 c 128,-1,31
 23 212 23 212 63 447 c 1,32,-1
 65 452 l 1,33,-1
 341 452 l 1,34,35
 319 310 319 310 365 252.5 c 128,-1,36
 411 195 411 195 521 195 c 0,37,38
 609 195 609 195 663.5 245.5 c 128,-1,39
 718 296 718 296 731 378 c 0,0,1
EndSplineSet
EndChar

StartChar: uni0409
Encoding: 1033 1033 437
Width: 1871
GlyphClass: 1
Flags: W
LayerCount: 2
Fore
SplineSet
1283 1456 m 1,0,-1
 1206 944 l 1,1,-1
 1399 944 l 2,2,3
 1609 944 1609 944 1724.5 810 c 128,-1,4
 1840 676 1840 676 1810 472 c 0,5,6
 1777 256 1777 256 1627.5 128 c 128,-1,7
 1478 0 1478 0 1257 0 c 2,8,-1
 783 0 l 1,9,-1
 968 1235 l 1,10,-1
 669 1235 l 1,11,-1
 607 800 l 2,12,13
 544 374 544 374 392.5 187 c 128,-1,14
 241 0 241 0 -3 0 c 2,15,-1
 -39 0 l 1,16,-1
 -6 220 l 1,17,-1
 28 220 l 2,18,19
 149 220 149 220 212.5 345 c 128,-1,20
 276 470 276 470 324 800 c 2,21,-1
 419 1456 l 1,22,-1
 1283 1456 l 1,0,-1
1173 723 m 1,23,-1
 1098 220 l 1,24,-1
 1290 220 l 2,25,26
 1381 220 1381 220 1447.5 294.5 c 128,-1,27
 1514 369 1514 369 1530 474 c 0,28,29
 1545 580 1545 580 1503 651.5 c 128,-1,30
 1461 723 1461 723 1365 723 c 2,31,-1
 1173 723 l 1,23,-1
EndSplineSet
EndChar

StartChar: uni040A
Encoding: 1034 1034 438
Width: 1871
GlyphClass: 1
Flags: W
LayerCount: 2
Fore
SplineSet
439 833 m 1,0,-1
 907 833 l 1,1,-1
 1000 1456 l 1,2,-1
 1282 1456 l 1,3,-1
 1203 933 l 1,4,-1
 1396 933 l 2,5,6
 1606 933 1606 933 1722.5 801 c 128,-1,7
 1839 669 1839 669 1809 467 c 0,8,9
 1777 254 1777 254 1627 127 c 128,-1,10
 1477 0 1477 0 1256 0 c 2,11,-1
 782 0 l 1,12,-1
 874 613 l 1,13,-1
 406 613 l 1,14,-1
 314 0 l 1,15,-1
 31 0 l 1,16,-1
 249 1456 l 1,17,-1
 532 1456 l 1,18,-1
 439 833 l 1,0,-1
1170 713 m 1,19,-1
 1097 222 l 1,20,-1
 1289 222 l 2,21,22
 1380 222 1380 222 1446.5 294.5 c 128,-1,23
 1513 367 1513 367 1528 469 c 0,24,25
 1543 574 1543 574 1501 643.5 c 128,-1,26
 1459 713 1459 713 1363 713 c 2,27,-1
 1170 713 l 1,19,-1
EndSplineSet
EndChar

StartChar: uni040B
Encoding: 1035 1035 439
Width: 1417
GlyphClass: 1
Flags: W
LayerCount: 2
Fore
SplineSet
1129 1235 m 1,0,-1
 787 1235 l 1,1,-1
 748 975 l 1,2,-1
 893 975 l 2,3,4
 1117 975 1117 975 1228 855 c 128,-1,5
 1339 735 1339 735 1303 491 c 2,6,-1
 1229 0 l 1,7,-1
 947 0 l 1,8,-1
 1021 491 l 2,9,10
 1043 645 1043 645 1007 700 c 128,-1,11
 971 755 971 755 860 755 c 2,12,-1
 715 755 l 1,13,-1
 602 0 l 1,14,-1
 319 0 l 1,15,-1
 504 1235 l 1,16,-1
 171 1235 l 1,17,-1
 204 1456 l 1,18,-1
 1162 1456 l 1,19,-1
 1129 1235 l 1,0,-1
EndSplineSet
EndChar

StartChar: uni040F
Encoding: 1039 1039 443
Width: 1242
GlyphClass: 1
Flags: W
LayerCount: 2
Fore
SplineSet
235 1456 m 1,0,-1
 517 1456 l 1,1,-1
 332 220 l 1,2,-1
 801 220 l 1,3,-1
 986 1456 l 1,4,-1
 1268 1456 l 1,5,-1
 1050 0 l 1,6,-1
 687 0 l 1,7,-1
 633 -358 l 1,8,-1
 351 -358 l 1,9,-1
 405 0 l 1,10,-1
 17 0 l 1,11,-1
 235 1456 l 1,0,-1
EndSplineSet
EndChar

StartChar: uni0411
Encoding: 1041 1041 445
Width: 1116
GlyphClass: 1
Flags: W
LayerCount: 2
Fore
SplineSet
1046 1235 m 1,0,-1
 498 1235 l 1,1,-1
 454 942 l 1,2,-1
 646 942 l 2,3,4
 857 942 857 942 973.5 809 c 128,-1,5
 1090 676 1090 676 1060 472 c 0,6,7
 1027 256 1027 256 877 128 c 128,-1,8
 727 0 727 0 505 0 c 2,9,-1
 30 0 l 1,10,-1
 248 1456 l 1,11,-1
 1079 1456 l 1,12,-1
 1046 1235 l 1,0,-1
421 721 m 1,13,-1
 405 616 l 1,14,-1
 346 220 l 1,15,-1
 538 220 l 2,16,17
 629 220 629 220 695.5 294.5 c 128,-1,18
 762 369 762 369 778 474 c 0,19,20
 793 580 793 580 751 650.5 c 128,-1,21
 709 721 709 721 613 721 c 2,22,-1
 421 721 l 1,13,-1
EndSplineSet
EndChar

StartChar: uni0414
Encoding: 1044 1044 448
Width: 1262
GlyphClass: 1
Flags: W
LayerCount: 2
Fore
SplineSet
1143 -357 m 1,0,-1
 861 -357 l 1,1,-1
 915 0 l 1,2,-1
 211 0 l 1,3,-1
 157 -357 l 1,4,-1
 -124 -357 l 1,5,-1
 -37 220 l 1,6,-1
 37 220 l 2,7,8
 127 220 127 220 189.5 374 c 128,-1,9
 252 528 252 528 314 872 c 1,10,-1
 428 1456 l 1,11,-1
 1266 1456 l 1,12,-1
 1081 220 l 1,13,-1
 1230 220 l 1,14,-1
 1143 -357 l 1,0,-1
596 872 m 2,15,16
 554 653 554 653 497 490.5 c 128,-1,17
 440 328 440 328 367 220 c 1,18,-1
 799 220 l 1,19,-1
 951 1235 l 1,20,-1
 667 1235 l 1,21,-1
 596 872 l 2,15,16
EndSplineSet
EndChar

StartChar: uni0416
Encoding: 1046 1046 450
Width: 1665
GlyphClass: 1
Flags: W
LayerCount: 2
Fore
SplineSet
1068 609 m 1,0,-1
 990 609 l 1,1,-1
 899 0 l 1,2,-1
 617 0 l 1,3,-1
 708 609 l 1,4,-1
 626 609 l 1,5,-1
 279 0 l 1,6,-1
 -73 0 l 1,7,-1
 434 796 l 1,8,-1
 162 1456 l 1,9,-1
 513 1456 l 1,10,-1
 685 858 l 1,11,-1
 745 858 l 1,12,-1
 835 1456 l 1,13,-1
 1117 1456 l 1,14,-1
 1027 858 l 1,15,-1
 1086 858 l 1,16,-1
 1427 1456 l 1,17,-1
 1777 1456 l 1,18,-1
 1316 799 l 1,19,-1
 1577 0 l 1,20,-1
 1226 0 l 1,21,-1
 1068 609 l 1,0,-1
EndSplineSet
EndChar

StartChar: uni0417
Encoding: 1047 1047 451
Width: 1167
GlyphClass: 1
Flags: W
LayerCount: 2
Fore
SplineSet
444 783 m 1,0,-1
 454 850 l 1,1,-1
 627 850 l 2,2,3
 727 850 727 850 787 905.5 c 128,-1,4
 847 961 847 961 862 1059 c 0,5,6
 875 1147 875 1147 827 1201.5 c 128,-1,7
 779 1256 779 1256 671 1256 c 0,8,9
 591 1256 591 1256 527.5 1202.5 c 128,-1,10
 464 1149 464 1149 452 1064 c 1,11,-1
 179 1064 l 1,12,-1
 177 1070 l 1,13,14
 200 1259 200 1259 351.5 1368 c 128,-1,15
 503 1477 503 1477 705 1477 c 0,16,17
 928 1477 928 1477 1050 1368 c 128,-1,18
 1172 1259 1172 1259 1143 1062 c 0,19,20
 1127 957 1127 957 1058 873.5 c 128,-1,21
 989 790 989 790 882 744 c 1,22,23
 986 701 986 701 1034.5 614 c 128,-1,24
 1083 527 1083 527 1065 405 c 0,25,26
 1033 197 1033 197 874.5 88 c 128,-1,27
 716 -21 716 -21 480 -21 c 0,28,29
 287 -21 287 -21 155.5 87 c 128,-1,30
 24 195 24 195 60 398 c 1,31,-1
 62 404 l 1,32,-1
 335 404 l 1,33,34
 320 313 320 313 370.5 256 c 128,-1,35
 421 199 421 199 513 199 c 0,36,37
 619 199 619 199 694 258 c 128,-1,38
 769 317 769 317 783 409 c 0,39,40
 801 532 801 532 754 583.5 c 128,-1,41
 707 635 707 635 594 635 c 2,42,-1
 421 635 l 1,43,-1
 443 783 l 1,44,-1
 444 783 l 1,0,-1
EndSplineSet
EndChar

StartChar: uni0418
Encoding: 1048 1048 452
Width: 1241
GlyphClass: 1
Flags: W
LayerCount: 2
Fore
SplineSet
988 1456 m 1,0,-1
 1271 1456 l 1,1,-1
 1053 0 l 1,2,-1
 770 0 l 1,3,-1
 907 916 l 1,4,-1
 901 918 l 1,5,-1
 302 0 l 1,6,-1
 21 0 l 1,7,-1
 239 1456 l 1,8,-1
 520 1456 l 1,9,-1
 382 538 l 1,10,-1
 388 536 l 1,11,-1
 988 1456 l 1,0,-1
EndSplineSet
EndChar

StartChar: uni041B
Encoding: 1051 1051 455
Width: 1257
GlyphClass: 1
Flags: W
LayerCount: 2
Fore
SplineSet
1283 1456 m 1,0,-1
 1065 0 l 1,1,-1
 783 0 l 1,2,-1
 968 1235 l 1,3,-1
 650 1235 l 1,4,-1
 588 800 l 2,5,6
 526 373 526 373 380.5 186.5 c 128,-1,7
 235 0 235 0 -2 0 c 2,8,-1
 -38 0 l 1,9,-1
 -5 220 l 1,10,-1
 29 220 l 2,11,12
 142 220 142 220 199 343 c 128,-1,13
 256 466 256 466 305 800 c 2,14,-1
 400 1456 l 1,15,-1
 1283 1456 l 1,0,-1
EndSplineSet
EndChar

StartChar: uni0423
Encoding: 1059 1059 463
Width: 1139
GlyphClass: 1
Flags: W
LayerCount: 2
Fore
SplineSet
602 789 m 1,0,-1
 606 754 l 1,1,-1
 612 753 l 1,2,-1
 963 1456 l 1,3,-1
 1259 1456 l 1,4,-1
 633 280 l 2,5,6
 554 137 554 137 464.5 58 c 128,-1,7
 375 -21 375 -21 236 -21 c 0,8,9
 185 -21 185 -21 147.5 -10.5 c 128,-1,10
 110 0 110 0 57 22 c 1,11,-1
 119 226 l 1,12,13
 155 212 155 212 181 205.5 c 128,-1,14
 207 199 207 199 237 199 c 0,15,16
 304 199 304 199 345 236 c 128,-1,17
 386 273 386 273 416 346 c 2,18,-1
 440 399 l 1,19,-1
 157 1456 l 1,20,-1
 460 1456 l 1,21,-1
 602 789 l 1,0,-1
EndSplineSet
EndChar

StartChar: uni0426
Encoding: 1062 1062 466
Width: 1367
GlyphClass: 1
Flags: W
LayerCount: 2
Fore
SplineSet
426 1456 m 1,0,-1
 707 1456 l 1,1,-1
 522 221 l 1,2,-1
 984 221 l 1,3,-1
 985 223 l 1,4,-1
 992 223 l 1,5,-1
 1177 1456 l 1,6,-1
 1459 1456 l 1,7,-1
 1241 0 l 1,8,-1
 1232 0 l 1,9,-1
 1179 -358 l 1,10,-1
 898 -358 l 1,11,-1
 951 0 l 1,12,-1
 208 0 l 1,13,-1
 426 1456 l 1,0,-1
EndSplineSet
EndChar

StartChar: uni0427
Encoding: 1063 1063 467
Width: 1245
GlyphClass: 1
Flags: W
LayerCount: 2
Fore
SplineSet
1271 1456 m 1,0,-1
 1053 0 l 1,1,-1
 772 0 l 1,2,-1
 857 567 l 1,3,4
 801 553 801 553 732.5 545 c 128,-1,5
 664 537 664 537 620 537 c 0,6,7
 392 537 392 537 274 655.5 c 128,-1,8
 156 774 156 774 192 1015 c 2,9,-1
 258 1456 l 1,10,-1
 540 1456 l 1,11,-1
 474 1015 l 2,12,13
 451 864 451 864 494 810.5 c 128,-1,14
 537 757 537 757 653 757 c 0,15,16
 696 757 696 757 765.5 765 c 128,-1,17
 835 773 835 773 890 787 c 1,18,-1
 990 1456 l 1,19,-1
 1271 1456 l 1,0,-1
EndSplineSet
EndChar

StartChar: uni0428
Encoding: 1064 1064 468
Width: 1847
GlyphClass: 1
Flags: W
LayerCount: 2
Fore
SplineSet
528 1456 m 1,0,-1
 343 220 l 1,1,-1
 740 220 l 1,2,-1
 925 1456 l 1,3,-1
 1206 1456 l 1,4,-1
 1021 220 l 1,5,-1
 1413 220 l 1,6,-1
 1598 1456 l 1,7,-1
 1880 1456 l 1,8,-1
 1662 0 l 1,9,-1
 28 0 l 1,10,-1
 246 1456 l 1,11,-1
 528 1456 l 1,0,-1
EndSplineSet
EndChar

StartChar: uni0429
Encoding: 1065 1065 469
Width: 2005
GlyphClass: 1
Flags: W
LayerCount: 2
Fore
SplineSet
528 1456 m 1,0,-1
 343 220 l 1,1,-1
 740 220 l 1,2,-1
 925 1456 l 1,3,-1
 1206 1456 l 1,4,-1
 1021 220 l 1,5,-1
 1413 220 l 1,6,-1
 1598 1456 l 1,7,-1
 1880 1456 l 1,8,-1
 1692 205 l 1,9,-1
 1909 205 l 1,10,-1
 1826 -347 l 1,11,-1
 1545 -347 l 1,12,-1
 1597 0 l 1,13,-1
 28 0 l 1,14,-1
 246 1456 l 1,15,-1
 528 1456 l 1,0,-1
EndSplineSet
EndChar

StartChar: uni042A
Encoding: 1066 1066 470
Width: 1275
GlyphClass: 1
Flags: W
LayerCount: 2
Fore
SplineSet
153 1456 m 1,0,-1
 694 1456 l 1,1,-1
 617 942 l 1,2,-1
 809 942 l 2,3,4
 1020 942 1020 942 1136.5 809 c 128,-1,5
 1253 676 1253 676 1223 472 c 0,6,7
 1190 256 1190 256 1040 128 c 128,-1,8
 890 0 890 0 668 0 c 2,9,-1
 193 0 l 1,10,-1
 378 1236 l 1,11,-1
 120 1236 l 1,12,-1
 153 1456 l 1,0,-1
584 721 m 1,13,-1
 509 220 l 1,14,-1
 701 220 l 2,15,16
 792 220 792 220 858.5 294.5 c 128,-1,17
 925 369 925 369 941 474 c 0,18,19
 956 580 956 580 914 650.5 c 128,-1,20
 872 721 872 721 776 721 c 2,21,-1
 584 721 l 1,13,-1
EndSplineSet
EndChar

StartChar: uni042B
Encoding: 1067 1067 471
Width: 1555
GlyphClass: 1
Flags: W
LayerCount: 2
Fore
SplineSet
454 942 m 1,0,-1
 646 942 l 2,1,2
 857 942 857 942 973.5 809 c 128,-1,3
 1090 676 1090 676 1060 472 c 0,4,5
 1027 256 1027 256 877 128 c 128,-1,6
 727 0 727 0 505 0 c 2,7,-1
 30 0 l 1,8,-1
 248 1456 l 1,9,-1
 531 1456 l 1,10,-1
 454 942 l 1,0,-1
1527 0 m 1,11,-1
 1246 0 l 1,12,-1
 1464 1456 l 1,13,-1
 1745 1456 l 1,14,-1
 1527 0 l 1,11,-1
421 721 m 1,15,-1
 346 220 l 1,16,-1
 538 220 l 2,17,18
 629 220 629 220 695.5 294.5 c 128,-1,19
 762 369 762 369 778 474 c 0,20,21
 793 580 793 580 751 650.5 c 128,-1,22
 709 721 709 721 613 721 c 2,23,-1
 421 721 l 1,15,-1
EndSplineSet
EndChar

StartChar: uni042C
Encoding: 1068 1068 472
Width: 1120
GlyphClass: 1
Flags: W
LayerCount: 2
Fore
SplineSet
454 942 m 1,0,-1
 646 942 l 2,1,2
 857 942 857 942 973.5 809 c 128,-1,3
 1090 676 1090 676 1060 472 c 0,4,5
 1027 256 1027 256 877 128 c 128,-1,6
 727 0 727 0 505 0 c 2,7,-1
 30 0 l 1,8,-1
 248 1456 l 1,9,-1
 531 1456 l 1,10,-1
 454 942 l 1,0,-1
421 721 m 1,11,-1
 346 220 l 1,12,-1
 538 220 l 2,13,14
 629 220 629 220 695.5 294.5 c 128,-1,15
 762 369 762 369 778 474 c 0,16,17
 793 580 793 580 751 650.5 c 128,-1,18
 709 721 709 721 613 721 c 2,19,-1
 421 721 l 1,11,-1
EndSplineSet
EndChar

StartChar: uni042D
Encoding: 1069 1069 473
Width: 1105
GlyphClass: 1
Flags: W
LayerCount: 2
Fore
SplineSet
137 974 m 1,0,-1
 135 980 l 1,1,2
 168 1227 168 1227 307 1352.5 c 128,-1,3
 446 1478 446 1478 675 1478 c 0,4,5
 886 1478 886 1478 997.5 1308 c 128,-1,6
 1109 1138 1109 1138 1070 872 c 2,7,-1
 1027 585 l 2,8,9
 985 305 985 305 828.5 142.5 c 128,-1,10
 672 -20 672 -20 450 -20 c 0,11,12
 231 -20 231 -20 124 109 c 128,-1,13
 17 238 17 238 54 480 c 1,14,-1
 336 480 l 1,15,16
 313 327 313 327 345.5 263.5 c 128,-1,17
 378 200 378 200 483 200 c 0,18,19
 580 200 580 200 649.5 305.5 c 128,-1,20
 719 411 719 411 745 583 c 2,21,-1
 751 626 l 1,22,-1
 394 626 l 1,23,-1
 427 847 l 1,24,-1
 785 847 l 1,25,-1
 789 872 l 2,26,27
 816 1053 816 1053 780 1155 c 128,-1,28
 744 1257 744 1257 642 1257 c 0,29,30
 543 1257 543 1257 487.5 1188.5 c 128,-1,31
 432 1120 432 1120 411 974 c 1,32,-1
 137 974 l 1,0,-1
EndSplineSet
EndChar

StartChar: uni042E
Encoding: 1070 1070 474
Width: 1695
GlyphClass: 1
Flags: W
LayerCount: 2
Fore
SplineSet
1624 524 m 2,0,1
 1583 257 1583 257 1419 118 c 128,-1,2
 1255 -21 1255 -21 1011 -21 c 0,3,4
 779 -21 779 -21 652 124.5 c 128,-1,5
 525 270 525 270 564 524 c 2,6,-1
 576 608 l 1,7,-1
 420 608 l 1,8,-1
 329 0 l 1,9,-1
 48 0 l 1,10,-1
 266 1456 l 1,11,-1
 547 1456 l 1,12,-1
 453 829 l 1,13,-1
 610 829 l 1,14,-1
 625 930 l 2,15,16
 664 1196 664 1196 827.5 1336.5 c 128,-1,17
 991 1477 991 1477 1235 1477 c 0,18,19
 1467 1477 1467 1477 1595 1330 c 128,-1,20
 1723 1183 1723 1183 1685 930 c 2,21,-1
 1624 524 l 2,0,1
1404 933 m 2,22,23
 1428 1098 1428 1098 1376.5 1176 c 128,-1,24
 1325 1254 1325 1254 1201 1254 c 0,25,26
 1083 1254 1083 1254 1006 1172.5 c 128,-1,27
 929 1091 929 1091 906 933 c 2,28,-1
 845 524 l 2,29,30
 819 356 819 356 869 278 c 128,-1,31
 919 200 919 200 1044 200 c 0,32,33
 1162 200 1162 200 1240 282 c 128,-1,34
 1318 364 1318 364 1343 524 c 2,35,-1
 1404 933 l 2,22,23
EndSplineSet
EndChar

StartChar: uni042F
Encoding: 1071 1071 475
Width: 1047
GlyphClass: 1
Flags: W
LayerCount: 2
Fore
SplineSet
185 0 m 1,0,-1
 -120 0 l 1,1,-1
 246 658 l 1,2,3
 160 715 160 715 126 805 c 128,-1,4
 92 895 92 895 112 1021 c 0,5,6
 142 1226 142 1226 287.5 1341 c 128,-1,7
 433 1456 433 1456 645 1456 c 2,8,-1
 1090 1456 l 1,9,-1
 872 0 l 1,10,-1
 589 0 l 1,11,-1
 673 562 l 1,12,-1
 497 562 l 1,13,-1
 185 0 l 1,0,-1
774 1235 m 1,14,-1
 612 1235 l 2,15,16
 519 1235 519 1235 464 1177.5 c 128,-1,17
 409 1120 409 1120 392 1008 c 0,18,19
 376 902 376 902 416.5 835.5 c 128,-1,20
 457 769 457 769 547 769 c 2,21,-1
 704 769 l 1,22,-1
 774 1235 l 1,14,-1
EndSplineSet
EndChar

StartChar: uni0431
Encoding: 1073 1073 477
Width: 1004
GlyphClass: 1
Flags: W
LayerCount: 2
Fore
SplineSet
608 1102 m 0,0,1
 800 1102 800 1102 892 947 c 128,-1,2
 984 792 984 792 949 551 c 1,3,-1
 945 528 l 1,4,5
 907 275 907 275 769 127 c 128,-1,6
 631 -21 631 -21 419 -21 c 0,7,8
 216 -21 216 -21 117.5 133 c 128,-1,9
 19 287 19 287 55 528 c 1,10,-1
 57 540 l 1,11,-1
 97 809 l 2,12,13
 148 1142 148 1142 272 1287 c 128,-1,14
 396 1432 396 1432 622 1439 c 0,15,16
 732 1441 732 1441 787 1468 c 128,-1,17
 842 1495 842 1495 852 1557 c 1,18,-1
 1069 1557 l 1,19,-1
 1071 1551 l 1,20,21
 1046 1355 1046 1355 937.5 1286 c 128,-1,22
 829 1217 829 1217 611 1213 c 0,23,24
 487 1210 487 1210 418 1152 c 128,-1,25
 349 1094 349 1094 342 995 c 1,26,-1
 345 990 l 1,27,28
 395 1039 395 1039 464.5 1070.5 c 128,-1,29
 534 1102 534 1102 608 1102 c 0,0,1
552 881 m 0,30,31
 468 881 468 881 415 788.5 c 128,-1,32
 362 696 362 696 341 551 c 1,33,-1
 337 528 l 1,34,35
 314 372 314 372 338 285.5 c 128,-1,36
 362 199 362 199 452 199 c 0,37,38
 536 199 536 199 589 289.5 c 128,-1,39
 642 380 642 380 664 528 c 2,40,-1
 668 551 l 2,41,42
 691 705 691 705 666.5 793 c 128,-1,43
 642 881 642 881 552 881 c 0,30,31
EndSplineSet
EndChar

StartChar: uni0432
Encoding: 1074 1074 478
Width: 1008
GlyphClass: 1
Flags: W
LayerCount: 2
Fore
SplineSet
29 0 m 1,0,-1
 191 1082 l 1,1,-1
 589 1082 l 2,2,3
 771 1082 771 1082 867.5 1005.5 c 128,-1,4
 964 929 964 929 942 782 c 0,5,6
 929 702 929 702 875 642.5 c 128,-1,7
 821 583 821 583 731 554 c 1,8,9
 841 530 841 530 888.5 464 c 128,-1,10
 936 398 936 398 923 307 c 0,11,12
 899 149 899 149 789.5 74.5 c 128,-1,13
 680 0 680 0 488 0 c 2,14,-1
 29 0 l 1,0,-1
379 454 m 1,15,-1
 343 218 l 1,16,-1
 521 218 l 2,17,18
 575 218 575 218 605.5 247.5 c 128,-1,19
 636 277 636 277 645 335 c 0,20,21
 654 394 654 394 635 424 c 128,-1,22
 616 454 616 454 556 454 c 2,23,-1
 379 454 l 1,15,-1
406 637 m 1,24,-1
 530 637 l 2,25,26
 585 637 585 637 616 664 c 128,-1,27
 647 691 647 691 656 745 c 0,28,29
 665 809 665 809 640.5 836 c 128,-1,30
 616 863 616 863 556 863 c 2,31,-1
 440 863 l 1,32,-1
 406 637 l 1,24,-1
EndSplineSet
EndChar

StartChar: uni0433
Encoding: 1075 1075 479
Width: 749
GlyphClass: 1
Flags: W
LayerCount: 2
Fore
SplineSet
787 861 m 1,0,-1
 420 861 l 1,1,-1
 291 0 l 1,2,-1
 9 0 l 1,3,-1
 171 1082 l 1,4,-1
 820 1082 l 1,5,-1
 787 861 l 1,0,-1
EndSplineSet
EndChar

StartChar: uni0434
Encoding: 1076 1076 480
Width: 1215
GlyphClass: 1
Flags: W
LayerCount: 2
Fore
SplineSet
83 220 m 1,0,-1
 111 221 l 2,1,2
 176 221 176 221 218 317 c 128,-1,3
 260 413 260 413 302 639 c 2,4,-1
 387 1082 l 1,5,-1
 1103 1082 l 1,6,-1
 974 220 l 1,7,-1
 1108 220 l 1,8,-1
 1021 -357 l 1,9,-1
 740 -357 l 1,10,-1
 794 0 l 1,11,-1
 274 0 l 1,12,-1
 220 -357 l 1,13,-1
 -63 -357 l 1,14,-1
 24 220 l 1,15,-1
 83 220 l 1,0,-1
584 639 m 2,16,17
 557 503 557 503 524 399 c 128,-1,18
 491 295 491 295 449 220 c 1,19,-1
 693 220 l 1,20,-1
 789 857 l 1,21,-1
 625 857 l 1,22,-1
 584 639 l 2,16,17
EndSplineSet
EndChar

StartChar: uni0436
Encoding: 1078 1078 482
Width: 1478
GlyphClass: 1
Flags: W
LayerCount: 2
Fore
SplineSet
923 409 m 1,0,-1
 858 409 l 1,1,-1
 797 0 l 1,2,-1
 517 0 l 1,3,-1
 578 409 l 1,4,-1
 517 409 l 1,5,-1
 299 0 l 1,6,-1
 -62 0 l 1,7,-1
 313 591 l 1,8,-1
 318 588 l 1,9,-1
 323 591 l 1,10,-1
 110 1082 l 1,11,-1
 467 1082 l 1,12,-1
 573 671 l 1,13,-1
 617 671 l 1,14,-1
 679 1082 l 1,15,-1
 959 1082 l 1,16,-1
 897 671 l 1,17,-1
 946 671 l 1,18,-1
 1175 1082 l 1,19,-1
 1531 1082 l 1,20,-1
 1171 592 l 1,21,-1
 1174 588 l 1,22,-1
 1181 591 l 1,23,-1
 1377 0 l 1,24,-1
 1017 0 l 1,25,-1
 923 409 l 1,0,-1
EndSplineSet
EndChar

StartChar: uni0437
Encoding: 1079 1079 483
Width: 1000
GlyphClass: 1
Flags: W
LayerCount: 2
Fore
SplineSet
364 641 m 1,0,-1
 512 641 l 2,1,2
 571 641 571 641 610.5 674.5 c 128,-1,3
 650 708 650 708 659 765 c 0,4,5
 667 821 667 821 642 857.5 c 128,-1,6
 617 894 617 894 552 894 c 0,7,8
 495 894 495 894 453.5 861.5 c 128,-1,9
 412 829 412 829 404 773 c 1,10,-1
 133 773 l 1,11,-1
 131 779 l 1,12,13
 148 929 148 929 272 1014.5 c 128,-1,14
 396 1100 396 1100 567 1100 c 0,15,16
 753 1100 753 1100 859 1017.5 c 128,-1,17
 965 935 965 935 943 787 c 0,18,19
 931 711 931 711 879.5 650 c 128,-1,20
 828 589 828 589 748 555 c 1,21,22
 827 522 827 522 864 457.5 c 128,-1,23
 901 393 901 393 888 304 c 0,24,25
 864 148 864 148 729.5 64.5 c 128,-1,26
 595 -19 595 -19 399 -19 c 0,27,28
 237 -19 237 -19 127.5 66.5 c 128,-1,29
 18 152 18 152 47 312 c 1,30,-1
 49 318 l 1,31,-1
 322 318 l 1,32,33
 312 258 312 258 343 222 c 128,-1,34
 374 186 374 186 447 186 c 0,35,36
 514 186 514 186 558 226 c 128,-1,37
 602 266 602 266 611 325 c 0,38,39
 621 399 621 399 588.5 432 c 128,-1,40
 556 465 556 465 486 465 c 2,41,-1
 338 465 l 1,42,-1
 356 586 l 1,43,-1
 364 641 l 1,0,-1
EndSplineSet
EndChar

StartChar: uni0438
Encoding: 1080 1080 484
Width: 1008
GlyphClass: 1
Flags: W
LayerCount: 2
Fore
SplineSet
721 1082 m 1,0,-1
 1003 1082 l 1,1,-1
 841 0 l 1,2,-1
 559 0 l 1,3,-1
 650 604 l 1,4,-1
 644 606 l 1,5,-1
 291 0 l 1,6,-1
 9 0 l 1,7,-1
 171 1082 l 1,8,-1
 453 1082 l 1,9,-1
 362 477 l 1,10,-1
 368 475 l 1,11,-1
 721 1082 l 1,0,-1
EndSplineSet
EndChar

StartChar: uni043A
Encoding: 1082 1082 486
Width: 1033
GlyphClass: 1
Flags: W
LayerCount: 2
Fore
SplineSet
461 407 m 1,0,-1
 374 407 l 1,1,-1
 313 0 l 1,2,-1
 32 0 l 1,3,-1
 194 1082 l 1,4,-1
 475 1082 l 1,5,-1
 413 669 l 1,6,-1
 481 669 l 1,7,-1
 721 1082 l 1,8,-1
 1079 1082 l 1,9,-1
 712 595 l 1,10,-1
 716 590 l 1,11,-1
 718 591 l 1,12,-1
 942 0 l 1,13,-1
 565 0 l 1,14,-1
 461 407 l 1,0,-1
EndSplineSet
EndChar

StartChar: uni043B
Encoding: 1083 1083 487
Width: 1006
GlyphClass: 1
Flags: W
LayerCount: 2
Fore
SplineSet
1003 1082 m 1,0,-1
 841 0 l 1,1,-1
 559 0 l 1,2,-1
 688 861 l 1,3,-1
 500 861 l 1,4,-1
 464 618 l 2,5,6
 414 286 414 286 305 143 c 128,-1,7
 196 0 196 0 -21 0 c 2,8,-1
 -61 0 l 1,9,-1
 -32 224 l 1,10,-1
 -6 224 l 2,11,12
 75 224 75 224 111 305 c 128,-1,13
 147 386 147 386 182 618 c 2,14,-1
 251 1082 l 1,15,-1
 1003 1082 l 1,0,-1
EndSplineSet
EndChar

StartChar: uni043C
Encoding: 1084 1084 488
Width: 1362
GlyphClass: 1
Flags: W
LayerCount: 2
Fore
SplineSet
638 333 m 1,0,-1
 643 332 l 1,1,-1
 968 1082 l 1,2,-1
 1322 1082 l 1,3,-1
 1160 0 l 1,4,-1
 878 0 l 1,5,-1
 965 583 l 1,6,-1
 959 584 l 1,7,-1
 685 0 l 1,8,-1
 497 0 l 1,9,-1
 402 561 l 1,10,-1
 396 561 l 1,11,-1
 312 0 l 1,12,-1
 30 0 l 1,13,-1
 192 1082 l 1,14,-1
 540 1082 l 1,15,-1
 638 333 l 1,0,-1
EndSplineSet
EndChar

StartChar: uni043D
Encoding: 1085 1085 489
Width: 1008
GlyphClass: 1
Flags: W
LayerCount: 2
Fore
SplineSet
838 0 m 1,0,-1
 555 0 l 1,1,-1
 618 424 l 1,2,-1
 354 424 l 1,3,-1
 291 0 l 1,4,-1
 9 0 l 1,5,-1
 171 1082 l 1,6,-1
 453 1082 l 1,7,-1
 387 643 l 1,8,-1
 651 643 l 1,9,-1
 717 1082 l 1,10,-1
 1000 1082 l 1,11,-1
 838 0 l 1,0,-1
EndSplineSet
EndChar

StartChar: uni043F
Encoding: 1087 1087 491
Width: 1008
GlyphClass: 1
Flags: W
LayerCount: 2
Fore
SplineSet
841 0 m 1,0,-1
 558 0 l 1,1,-1
 687 861 l 1,2,-1
 420 861 l 1,3,-1
 291 0 l 1,4,-1
 9 0 l 1,5,-1
 171 1082 l 1,6,-1
 1003 1082 l 1,7,-1
 841 0 l 1,0,-1
EndSplineSet
EndChar

StartChar: uni0441
Encoding: 1089 1089 493
Width: 921
GlyphClass: 1
Flags: W
LayerCount: 2
Fore
SplineSet
442 199 m 0,0,1
 500 199 500 199 538.5 244 c 128,-1,2
 577 289 577 289 590 371 c 1,3,-1
 845 371 l 1,4,-1
 847 365 l 1,5,6
 824 189 824 189 701 84 c 128,-1,7
 578 -21 578 -21 409 -21 c 0,8,9
 206 -21 206 -21 111 133.5 c 128,-1,10
 16 288 16 288 52 526 c 2,11,-1
 56 555 l 2,12,13
 93 804 93 804 228 953 c 128,-1,14
 363 1102 363 1102 576 1102 c 0,15,16
 745 1102 745 1102 836 987.5 c 128,-1,17
 927 873 927 873 899 681 c 1,18,-1
 636 681 l 1,19,20
 650 774 650 774 627 827.5 c 128,-1,21
 604 881 604 881 543 881 c 0,22,23
 459 881 459 881 409 790 c 128,-1,24
 359 699 359 699 338 555 c 2,25,-1
 334 526 l 2,26,27
 310 370 310 370 331 284.5 c 128,-1,28
 352 199 352 199 442 199 c 0,0,1
EndSplineSet
EndChar

StartChar: uni0442
Encoding: 1090 1090 494
Width: 939
GlyphClass: 1
Flags: W
LayerCount: 2
Fore
SplineSet
952 863 m 1,0,-1
 661 863 l 1,1,-1
 532 0 l 1,2,-1
 250 0 l 1,3,-1
 379 863 l 1,4,-1
 92 863 l 1,5,-1
 125 1082 l 1,6,-1
 985 1082 l 1,7,-1
 952 863 l 1,0,-1
EndSplineSet
EndChar

StartChar: uni0444
Encoding: 1092 1092 496
Width: 1544
GlyphClass: 1
Flags: W
LayerCount: 2
Fore
SplineSet
51 535 m 2,0,1
 91 800 91 800 207.5 951 c 128,-1,2
 324 1102 324 1102 500 1102 c 0,3,4
 564 1102 564 1102 611.5 1072 c 128,-1,5
 659 1042 659 1042 692 987 c 1,6,-1
 778 1560 l 1,7,-1
 1060 1560 l 1,8,-1
 975 992 l 1,9,10
 1023 1045 1023 1045 1079 1073.5 c 128,-1,11
 1135 1102 1135 1102 1202 1102 c 0,12,13
 1370 1102 1370 1102 1445.5 944.5 c 128,-1,14
 1521 787 1521 787 1483 535 c 2,15,-1
 1480 514 l 2,16,17
 1442 263 1442 263 1326.5 121 c 128,-1,18
 1211 -21 1211 -21 1036 -21 c 0,19,20
 970 -21 970 -21 921 7.5 c 128,-1,21
 872 36 872 36 840 90 c 1,22,-1
 764 -416 l 1,23,-1
 482 -416 l 1,24,-1
 556 83 l 1,25,26
 509 32 509 32 452.5 5.5 c 128,-1,27
 396 -21 396 -21 330 -21 c 0,28,29
 165 -21 165 -21 88.5 127 c 128,-1,30
 12 275 12 275 48 514 c 2,31,-1
 51 535 l 2,0,1
1201 535 m 2,32,33
 1225 696 1225 696 1201.5 788.5 c 128,-1,34
 1178 881 1178 881 1096 881 c 0,35,36
 1050 881 1050 881 1012 856 c 128,-1,37
 974 831 974 831 944 786 c 1,38,-1
 868 275 l 1,39,40
 884 237 884 237 915.5 218 c 128,-1,41
 947 199 947 199 996 199 c 0,42,43
 1074 199 1074 199 1125 284.5 c 128,-1,44
 1176 370 1176 370 1198 514 c 2,45,-1
 1201 535 l 2,32,33
328 514 m 2,46,47
 305 361 305 361 328.5 280 c 128,-1,48
 352 199 352 199 436 199 c 0,49,50
 483 199 483 199 520 219 c 128,-1,51
 557 239 557 239 586 279 c 1,52,-1
 663 794 l 1,53,54
 646 836 646 836 615.5 858.5 c 128,-1,55
 585 881 585 881 539 881 c 0,56,57
 461 881 461 881 407.5 784.5 c 128,-1,58
 354 688 354 688 331 535 c 2,59,-1
 328 514 l 2,46,47
EndSplineSet
EndChar

StartChar: uni0446
Encoding: 1094 1094 498
Width: 1100
GlyphClass: 1
Flags: W
LayerCount: 2
Fore
SplineSet
171 1082 m 1,0,-1
 453 1082 l 1,1,-1
 324 220 l 1,2,-1
 591 220 l 1,3,-1
 720 1082 l 1,4,-1
 1003 1082 l 1,5,-1
 874 220 l 1,6,-1
 1018 220 l 1,7,-1
 931 -357 l 1,8,-1
 650 -357 l 1,9,-1
 704 0 l 1,10,-1
 9 0 l 1,11,-1
 171 1082 l 1,0,-1
EndSplineSet
EndChar

StartChar: uni0447
Encoding: 1095 1095 499
Width: 1004
GlyphClass: 1
Flags: W
LayerCount: 2
Fore
SplineSet
836 0 m 1,0,-1
 553 0 l 1,1,-1
 605 346 l 1,2,3
 577 340 577 340 550.5 337 c 128,-1,4
 524 334 524 334 502 334 c 0,5,6
 295 334 295 334 191 435.5 c 128,-1,7
 87 537 87 537 119 749 c 2,8,-1
 169 1082 l 1,9,-1
 450 1082 l 1,10,-1
 400 749 l 2,11,12
 382 631 382 631 412.5 592.5 c 128,-1,13
 443 554 443 554 535 554 c 0,14,15
 560 554 560 554 585 557.5 c 128,-1,16
 610 561 610 561 638 568 c 1,17,-1
 715 1082 l 1,18,-1
 998 1082 l 1,19,-1
 836 0 l 1,0,-1
EndSplineSet
EndChar

StartChar: uni0448
Encoding: 1096 1096 500
Width: 1481
GlyphClass: 1
Flags: W
LayerCount: 2
Fore
SplineSet
453 1082 m 1,0,-1
 324 220 l 1,1,-1
 544 220 l 1,2,-1
 673 1082 l 1,3,-1
 956 1082 l 1,4,-1
 827 220 l 1,5,-1
 1048 220 l 1,6,-1
 1177 1082 l 1,7,-1
 1458 1082 l 1,8,-1
 1296 0 l 1,9,-1
 9 0 l 1,10,-1
 171 1082 l 1,11,-1
 453 1082 l 1,0,-1
EndSplineSet
EndChar

StartChar: uni0449
Encoding: 1097 1097 501
Width: 1645
GlyphClass: 1
Flags: W
LayerCount: 2
Fore
SplineSet
453 1082 m 1,0,-1
 324 220 l 1,1,-1
 544 220 l 1,2,-1
 673 1082 l 1,3,-1
 956 1082 l 1,4,-1
 827 220 l 1,5,-1
 1048 220 l 1,6,-1
 1177 1082 l 1,7,-1
 1458 1082 l 1,8,-1
 1324 186 l 1,9,-1
 1541 186 l 1,10,-1
 1465 -321 l 1,11,-1
 1174 -321 l 1,12,-1
 1222 0 l 1,13,-1
 9 0 l 1,14,-1
 171 1082 l 1,15,-1
 453 1082 l 1,0,-1
EndSplineSet
EndChar

StartChar: uni044A
Encoding: 1098 1098 502
Width: 1136
GlyphClass: 1
Flags: W
LayerCount: 2
Fore
SplineSet
621 733 m 1,0,-1
 776 733 l 2,1,2
 961 733 961 733 1061.5 630.5 c 128,-1,3
 1162 528 1162 528 1138 367 c 0,4,5
 1112 196 1112 196 986.5 98 c 128,-1,6
 861 0 861 0 666 0 c 2,7,-1
 228 0 l 1,8,-1
 357 861 l 1,9,-1
 64 861 l 1,10,-1
 97 1082 l 1,11,-1
 673 1082 l 1,12,-1
 621 733 l 1,0,-1
588 513 m 1,13,-1
 544 218 l 1,14,-1
 699 218 l 2,15,16
 764 218 764 218 805.5 260 c 128,-1,17
 847 302 847 302 857 367 c 0,18,19
 866 432 866 432 839 472.5 c 128,-1,20
 812 513 812 513 743 513 c 2,21,-1
 588 513 l 1,13,-1
EndSplineSet
EndChar

StartChar: uni044B
Encoding: 1099 1099 503
Width: 1505
GlyphClass: 1
Flags: W
LayerCount: 2
Fore
SplineSet
443 733 m 1,0,-1
 598 733 l 2,1,2
 783 733 783 733 883.5 630.5 c 128,-1,3
 984 528 984 528 960 367 c 0,4,5
 934 196 934 196 808.5 98 c 128,-1,6
 683 0 683 0 488 0 c 2,7,-1
 50 0 l 1,8,-1
 212 1082 l 1,9,-1
 495 1082 l 1,10,-1
 443 733 l 1,0,-1
1399 0 m 1,11,-1
 1116 0 l 1,12,-1
 1278 1082 l 1,13,-1
 1561 1082 l 1,14,-1
 1399 0 l 1,11,-1
410 513 m 1,15,-1
 366 218 l 1,16,-1
 521 218 l 2,17,18
 586 218 586 218 627.5 260 c 128,-1,19
 669 302 669 302 679 367 c 0,20,21
 688 432 688 432 661 472.5 c 128,-1,22
 634 513 634 513 565 513 c 2,23,-1
 410 513 l 1,15,-1
EndSplineSet
EndChar

StartChar: uni044C
Encoding: 1100 1100 504
Width: 1005
GlyphClass: 1
Flags: W
LayerCount: 2
Fore
SplineSet
423 733 m 1,0,-1
 578 733 l 2,1,2
 763 733 763 733 863.5 630.5 c 128,-1,3
 964 528 964 528 940 367 c 0,4,5
 914 196 914 196 788.5 98 c 128,-1,6
 663 0 663 0 468 0 c 2,7,-1
 30 0 l 1,8,-1
 192 1082 l 1,9,-1
 475 1082 l 1,10,-1
 423 733 l 1,0,-1
390 513 m 1,11,-1
 346 218 l 1,12,-1
 501 218 l 2,13,14
 566 218 566 218 607.5 260 c 128,-1,15
 649 302 649 302 659 367 c 0,16,17
 668 432 668 432 641 472.5 c 128,-1,18
 614 513 614 513 545 513 c 2,19,-1
 390 513 l 1,11,-1
EndSplineSet
EndChar

StartChar: uni044D
Encoding: 1101 1101 505
Width: 921
GlyphClass: 1
Flags: W
LayerCount: 2
Fore
SplineSet
489 881 m 0,0,1
 431 881 431 881 392 835.5 c 128,-1,2
 353 790 353 790 341 710 c 1,3,-1
 86 710 l 1,4,-1
 84 716 l 1,5,6
 106 890 106 890 229.5 996 c 128,-1,7
 353 1102 353 1102 522 1102 c 0,8,9
 723 1102 723 1102 818.5 946.5 c 128,-1,10
 914 791 914 791 879 555 c 2,11,-1
 875 526 l 2,12,13
 837 276 837 276 701.5 127.5 c 128,-1,14
 566 -21 566 -21 356 -21 c 0,15,16
 186 -21 186 -21 94 93 c 128,-1,17
 2 207 2 207 31 400 c 1,18,-1
 294 400 l 1,19,20
 280 305 280 305 303 252 c 128,-1,21
 326 199 326 199 389 199 c 0,22,23
 461 199 461 199 508 270 c 128,-1,24
 555 341 555 341 581 461 c 1,25,-1
 368 461 l 1,26,-1
 393 627 l 1,27,-1
 606 627 l 1,28,29
 617 747 617 747 591.5 814 c 128,-1,30
 566 881 566 881 489 881 c 0,0,1
EndSplineSet
EndChar

StartChar: uni044E
Encoding: 1102 1102 506
Width: 1442
GlyphClass: 1
Flags: W
LayerCount: 2
Fore
SplineSet
416 660 m 1,0,-1
 590 660 l 1,1,2
 644 866 644 866 775 984 c 128,-1,3
 906 1102 906 1102 1094 1102 c 0,4,5
 1296 1102 1296 1102 1394.5 947 c 128,-1,6
 1493 792 1493 792 1458 551 c 1,7,-1
 1454 528 l 1,8,9
 1416 275 1416 275 1277.5 127 c 128,-1,10
 1139 -21 1139 -21 928 -21 c 0,11,12
 745 -21 745 -21 646 105.5 c 128,-1,13
 547 232 547 232 555 438 c 1,14,-1
 382 438 l 1,15,-1
 317 0 l 1,16,-1
 34 0 l 1,17,-1
 196 1082 l 1,18,-1
 479 1082 l 1,19,-1
 416 660 l 1,0,-1
845 528 m 1,20,21
 822 371 822 371 846 285 c 128,-1,22
 870 199 870 199 961 199 c 0,23,24
 1044 199 1044 199 1097 289.5 c 128,-1,25
 1150 380 1150 380 1172 528 c 2,26,-1
 1176 551 l 2,27,28
 1199 705 1199 705 1174.5 793 c 128,-1,29
 1150 881 1150 881 1061 881 c 0,30,31
 976 881 976 881 923 788.5 c 128,-1,32
 870 696 870 696 849 551 c 1,33,-1
 845 528 l 1,20,21
EndSplineSet
EndChar

StartChar: uni044F
Encoding: 1103 1103 507
Width: 1010
GlyphClass: 1
Flags: W
LayerCount: 2
Fore
SplineSet
979 1082 m 1,0,-1
 817 0 l 1,1,-1
 537 0 l 1,2,-1
 593 379 l 1,3,-1
 483 379 l 1,4,-1
 243 0 l 1,5,-1
 -40 0 l 1,6,-1
 233 432 l 1,7,8
 154 476 154 476 116.5 552 c 128,-1,9
 79 628 79 628 94 722 c 0,10,11
 118 886 118 886 244 984 c 128,-1,12
 370 1082 370 1082 560 1082 c 2,13,-1
 979 1082 l 1,0,-1
374 713 m 0,14,15
 365 653 365 653 393 611 c 128,-1,16
 421 569 421 569 484 569 c 2,17,-1
 622 569 l 1,18,-1
 666 863 l 1,19,-1
 527 863 l 2,20,21
 467 863 467 863 424.5 817 c 128,-1,22
 382 771 382 771 374 713 c 0,14,15
EndSplineSet
EndChar

StartChar: uni0452
Encoding: 1106 1106 510
Width: 1009
GlyphClass: 1
Flags: W
LayerCount: 2
Fore
SplineSet
559 1209 m 1,0,-1
 469 1209 l 1,1,-1
 431 957 l 1,2,3
 484 1027 484 1027 550.5 1064.5 c 128,-1,4
 617 1102 617 1102 690 1102 c 0,5,6
 830 1102 830 1102 899 987 c 128,-1,7
 968 872 968 872 934 637 c 2,8,-1
 908 467 l 1,9,-1
 909 467 l 1,10,-1
 833 -37 l 2,11,12
 803 -236 803 -236 698.5 -336.5 c 128,-1,13
 594 -437 594 -437 430 -437 c 0,14,15
 395 -437 395 -437 365 -433 c 128,-1,16
 335 -429 335 -429 304 -420 c 1,17,-1
 348 -204 l 1,18,19
 369 -210 369 -210 387.5 -213.5 c 128,-1,20
 406 -217 406 -217 430 -217 c 0,21,22
 474 -217 474 -217 506 -170 c 128,-1,23
 538 -123 538 -123 551 -37 c 2,24,-1
 556 0 l 1,25,-1
 652 639 l 2,26,27
 672 778 672 778 651 829 c 128,-1,28
 630 880 630 880 567 880 c 0,29,30
 519 880 519 880 479 859 c 128,-1,31
 439 838 439 838 408 801 c 1,32,-1
 288 0 l 1,33,-1
 7 0 l 1,34,-1
 188 1209 l 1,35,-1
 53 1209 l 1,36,-1
 80 1386 l 1,37,-1
 215 1386 l 1,38,-1
 241 1560 l 1,39,-1
 522 1560 l 1,40,-1
 496 1386 l 1,41,-1
 586 1386 l 1,42,-1
 559 1209 l 1,0,-1
EndSplineSet
EndChar

StartChar: uni0454
Encoding: 1108 1108 512
Width: 922
GlyphClass: 1
Flags: W
LayerCount: 2
Fore
SplineSet
442 199 m 0,0,1
 500 199 500 199 538.5 244 c 128,-1,2
 577 289 577 289 590 371 c 1,3,-1
 845 371 l 1,4,-1
 847 365 l 1,5,6
 824 189 824 189 701 84 c 128,-1,7
 578 -21 578 -21 409 -21 c 0,8,9
 206 -21 206 -21 111 133.5 c 128,-1,10
 16 288 16 288 52 526 c 2,11,-1
 56 555 l 2,12,13
 93 804 93 804 228 953 c 128,-1,14
 363 1102 363 1102 576 1102 c 0,15,16
 745 1102 745 1102 836 987.5 c 128,-1,17
 927 873 927 873 899 681 c 1,18,-1
 636 681 l 1,19,20
 650 774 650 774 627 827.5 c 128,-1,21
 604 881 604 881 543 881 c 0,22,23
 468 881 468 881 420 807 c 128,-1,24
 372 733 372 733 348 613 c 1,25,-1
 576 613 l 1,26,-1
 551 446 l 1,27,-1
 324 446 l 1,28,29
 313 328 313 328 339 263.5 c 128,-1,30
 365 199 365 199 442 199 c 0,0,1
EndSplineSet
EndChar

StartChar: uni0459
Encoding: 1113 1113 517
Width: 1535
GlyphClass: 1
Flags: W
LayerCount: 2
Fore
SplineSet
1004 1082 m 1,0,-1
 952 733 l 1,1,-1
 1106 733 l 2,2,3
 1292 733 1292 733 1392.5 630.5 c 128,-1,4
 1493 528 1493 528 1469 367 c 0,5,6
 1443 196 1443 196 1317.5 98 c 128,-1,7
 1192 0 1192 0 996 0 c 2,8,-1
 559 0 l 1,9,-1
 688 861 l 1,10,-1
 524 861 l 1,11,-1
 488 618 l 2,12,13
 438 290 438 290 321.5 145 c 128,-1,14
 205 0 205 0 -15 0 c 2,15,-1
 -55 0 l 1,16,-1
 -26 221 l 1,17,-1
 -1 221 l 2,18,19
 70 221 70 221 122.5 318 c 128,-1,20
 175 415 175 415 206 618 c 2,21,-1
 275 1082 l 1,22,-1
 1004 1082 l 1,0,-1
919 513 m 1,23,-1
 875 218 l 1,24,-1
 1029 218 l 2,25,26
 1095 218 1095 218 1136 260.5 c 128,-1,27
 1177 303 1177 303 1187 369 c 0,28,29
 1197 434 1197 434 1169.5 473.5 c 128,-1,30
 1142 513 1142 513 1073 513 c 2,31,-1
 919 513 l 1,23,-1
EndSplineSet
EndChar

StartChar: uni045A
Encoding: 1114 1114 518
Width: 1532
GlyphClass: 1
Flags: W
LayerCount: 2
Fore
SplineSet
390 660 m 1,0,-1
 654 660 l 1,1,-1
 717 1082 l 1,2,-1
 1000 1082 l 1,3,-1
 948 733 l 1,4,-1
 1103 733 l 2,5,6
 1288 733 1288 733 1388.5 630.5 c 128,-1,7
 1489 528 1489 528 1465 367 c 0,8,9
 1439 196 1439 196 1313.5 98 c 128,-1,10
 1188 0 1188 0 993 0 c 2,11,-1
 555 0 l 1,12,-1
 621 441 l 1,13,-1
 357 441 l 1,14,-1
 291 0 l 1,15,-1
 9 0 l 1,16,-1
 171 1082 l 1,17,-1
 453 1082 l 1,18,-1
 390 660 l 1,0,-1
915 513 m 1,19,-1
 871 218 l 1,20,-1
 1026 218 l 2,21,22
 1092 218 1092 218 1133 260.5 c 128,-1,23
 1174 303 1174 303 1184 369 c 0,24,25
 1194 434 1194 434 1166.5 473.5 c 128,-1,26
 1139 513 1139 513 1070 513 c 2,27,-1
 915 513 l 1,19,-1
EndSplineSet
EndChar

StartChar: uni045B
Encoding: 1115 1115 519
Width: 1009
GlyphClass: 1
Flags: W
LayerCount: 2
Fore
SplineSet
709 1218 m 1,0,-1
 470 1218 l 1,1,-1
 431 957 l 1,2,3
 484 1026 484 1026 550.5 1064 c 128,-1,4
 617 1102 617 1102 690 1102 c 0,5,6
 830 1102 830 1102 899 987 c 128,-1,7
 968 872 968 872 934 637 c 2,8,-1
 838 0 l 1,9,-1
 556 0 l 1,10,-1
 652 639 l 2,11,12
 672 778 672 778 651 829 c 128,-1,13
 630 880 630 880 567 880 c 0,14,15
 519 880 519 880 479 859 c 128,-1,16
 439 838 439 838 408 801 c 1,17,-1
 288 0 l 1,18,-1
 7 0 l 1,19,-1
 189 1218 l 1,20,-1
 121 1218 l 1,21,-1
 147 1390 l 1,22,-1
 215 1390 l 1,23,-1
 241 1560 l 1,24,-1
 522 1560 l 1,25,-1
 496 1390 l 1,26,-1
 735 1390 l 1,27,-1
 709 1218 l 1,0,-1
EndSplineSet
EndChar

StartChar: uni045F
Encoding: 1119 1119 523
Width: 1008
GlyphClass: 1
Flags: W
LayerCount: 2
Fore
SplineSet
453 1082 m 1,0,-1
 324 220 l 1,1,-1
 591 220 l 1,2,-1
 720 1082 l 1,3,-1
 1003 1082 l 1,4,-1
 841 0 l 1,5,-1
 565 0 l 1,6,-1
 511 -358 l 1,7,-1
 229 -358 l 1,8,-1
 283 0 l 1,9,-1
 9 0 l 1,10,-1
 171 1082 l 1,11,-1
 453 1082 l 1,0,-1
EndSplineSet
EndChar

StartChar: uni0460
Encoding: 1120 1120 524
Width: 1708
GlyphClass: 1
Flags: W
LayerCount: 2
Fore
SplineSet
1087 1433 m 1,0,1
 1139 1454 1139 1454 1197 1465.5 c 128,-1,2
 1255 1477 1255 1477 1315 1477 c 0,3,4
 1504 1477 1504 1477 1610 1308 c 128,-1,5
 1716 1139 1716 1139 1677 877 c 2,6,-1
 1632 579 l 2,7,8
 1590 303 1590 303 1435.5 141 c 128,-1,9
 1281 -21 1281 -21 1073 -21 c 0,10,11
 982 -21 982 -21 911 -0.5 c 128,-1,12
 840 20 840 20 787 57 c 1,13,14
 723 20 723 20 645.5 -0.5 c 128,-1,15
 568 -21 568 -21 474 -21 c 0,16,17
 275 -21 275 -21 164.5 147.5 c 128,-1,18
 54 316 54 316 94 579 c 2,19,-1
 139 877 l 2,20,21
 180 1152 180 1152 330.5 1314.5 c 128,-1,22
 481 1477 481 1477 683 1477 c 0,23,24
 739 1477 739 1477 794 1465.5 c 128,-1,25
 849 1454 849 1454 896 1433 c 1,26,-1
 808 1226 l 1,27,28
 779 1240 779 1240 740.5 1248 c 128,-1,29
 702 1256 702 1256 657 1256 c 0,30,31
 578 1256 578 1256 511.5 1150 c 128,-1,32
 445 1044 445 1044 421 879 c 2,33,-1
 376 579 l 2,34,35
 349 403 349 403 384 301 c 128,-1,36
 419 199 419 199 507 199 c 0,37,38
 568 199 568 199 606.5 219 c 128,-1,39
 645 239 645 239 675 271 c 1,40,-1
 718 557 l 1,41,-1
 568 557 l 1,42,-1
 597 752 l 1,43,-1
 1181 752 l 1,44,-1
 1152 557 l 1,45,-1
 1001 557 l 1,46,-1
 958 272 l 1,47,48
 975 239 975 239 1007 219 c 128,-1,49
 1039 199 1039 199 1106 199 c 0,50,51
 1187 199 1187 199 1256 305.5 c 128,-1,52
 1325 412 1325 412 1350 579 c 2,53,-1
 1395 879 l 2,54,55
 1421 1051 1421 1051 1387 1153.5 c 128,-1,56
 1353 1256 1353 1256 1272 1256 c 0,57,58
 1228 1256 1228 1256 1187 1248 c 128,-1,59
 1146 1240 1146 1240 1113 1226 c 1,60,-1
 1087 1433 l 1,0,1
EndSplineSet
EndChar

StartChar: uni0461
Encoding: 1121 1121 525
Width: 1284
GlyphClass: 1
Flags: W
LayerCount: 2
Fore
SplineSet
424 400 m 1,0,-1
 426 258 l 1,1,-1
 432 257 l 1,2,-1
 490 400 l 1,3,-1
 591 690 l 1,4,-1
 554 1082 l 1,5,-1
 834 1082 l 1,6,-1
 838 400 l 1,7,-1
 839 355 l 1,8,-1
 845 355 l 1,9,10
 921 501 921 501 969 686.5 c 128,-1,11
 1017 872 1017 872 1043 1082 c 1,12,-1
 1338 1082 l 1,13,14
 1273 803 1273 803 1168.5 536.5 c 128,-1,15
 1064 270 1064 270 923 0 c 1,16,-1
 656 0 l 1,17,-1
 630 277 l 1,18,-1
 624 278 l 1,19,-1
 501 0 l 1,20,-1
 242 0 l 1,21,-1
 95 1082 l 1,22,-1
 392 1082 l 1,23,-1
 424 400 l 1,0,-1
EndSplineSet
EndChar

StartChar: uni0462
Encoding: 1122 1122 526
Width: 1120
GlyphClass: 1
Flags: W
LayerCount: 2
Fore
SplineSet
688 1093 m 1,0,-1
 476 1093 l 1,1,-1
 454 942 l 1,2,-1
 646 942 l 2,3,4
 857 942 857 942 973.5 809 c 128,-1,5
 1090 676 1090 676 1060 472 c 0,6,7
 1027 256 1027 256 877 128 c 128,-1,8
 727 0 727 0 505 0 c 2,9,-1
 30 0 l 1,10,-1
 193 1093 l 1,11,-1
 100 1093 l 1,12,-1
 126 1265 l 1,13,-1
 219 1265 l 1,14,-1
 248 1456 l 1,15,-1
 531 1456 l 1,16,-1
 502 1265 l 1,17,-1
 714 1265 l 1,18,-1
 688 1093 l 1,0,-1
421 721 m 1,19,-1
 346 220 l 1,20,-1
 538 220 l 2,21,22
 629 220 629 220 695.5 294.5 c 128,-1,23
 762 369 762 369 778 474 c 0,24,25
 793 580 793 580 751 650.5 c 128,-1,26
 709 721 709 721 613 721 c 2,27,-1
 421 721 l 1,19,-1
EndSplineSet
EndChar

StartChar: uni0463
Encoding: 1123 1123 527
Width: 1005
GlyphClass: 1
Flags: W
LayerCount: 2
Fore
SplineSet
684 1112 m 1,0,-1
 479 1112 l 1,1,-1
 423 733 l 1,2,-1
 578 733 l 2,3,4
 763 733 763 733 863.5 630.5 c 128,-1,5
 964 528 964 528 940 367 c 0,6,7
 914 196 914 196 788.5 98 c 128,-1,8
 663 0 663 0 468 0 c 2,9,-1
 30 0 l 1,10,-1
 196 1112 l 1,11,-1
 88 1112 l 1,12,-1
 114 1284 l 1,13,-1
 222 1284 l 1,14,-1
 264 1562 l 1,15,-1
 547 1562 l 1,16,-1
 505 1284 l 1,17,-1
 710 1284 l 1,18,-1
 684 1112 l 1,0,-1
390 513 m 1,19,-1
 346 218 l 1,20,-1
 501 218 l 2,21,22
 566 218 566 218 607.5 260 c 128,-1,23
 649 302 649 302 659 367 c 0,24,25
 668 432 668 432 641 472.5 c 128,-1,26
 614 513 614 513 545 513 c 2,27,-1
 390 513 l 1,19,-1
EndSplineSet
EndChar

StartChar: uni0464
Encoding: 1124 1124 528
Width: 1585
GlyphClass: 1
Flags: W
LayerCount: 2
Fore
SplineSet
1084 615 m 1,0,-1
 846 615 l 1,1,-1
 831 512 l 2,2,3
 806 347 806 347 851.5 273.5 c 128,-1,4
 897 200 897 200 1013 200 c 0,5,6
 1115 200 1115 200 1170.5 256 c 128,-1,7
 1226 312 1226 312 1248 453 c 1,8,-1
 1520 453 l 1,9,-1
 1522 447 l 1,10,11
 1490 204 1490 204 1351 92 c 128,-1,12
 1212 -20 1212 -20 980 -20 c 0,13,14
 753 -20 753 -20 632 119.5 c 128,-1,15
 511 259 511 259 549 512 c 2,16,-1
 564 615 l 1,17,-1
 422 615 l 1,18,-1
 330 0 l 1,19,-1
 49 0 l 1,20,-1
 267 1456 l 1,21,-1
 548 1456 l 1,22,-1
 455 836 l 1,23,-1
 598 836 l 1,24,-1
 614 944 l 2,25,26
 653 1208 653 1208 805.5 1343 c 128,-1,27
 958 1478 958 1478 1188 1478 c 256,28,29
 1418 1478 1418 1478 1533 1360.5 c 128,-1,30
 1648 1243 1648 1243 1609 1010 c 1,31,-1
 1607 1005 l 1,32,-1
 1332 1005 l 1,33,34
 1353 1151 1353 1151 1312.5 1204 c 128,-1,35
 1272 1257 1272 1257 1155 1257 c 0,36,37
 1053 1257 1053 1257 986 1179.5 c 128,-1,38
 919 1102 919 1102 896 946 c 2,39,-1
 879 836 l 1,40,-1
 1117 836 l 1,41,-1
 1084 615 l 1,0,-1
EndSplineSet
EndChar

StartChar: uni0465
Encoding: 1125 1125 529
Width: 1347
GlyphClass: 1
Flags: W
LayerCount: 2
Fore
SplineSet
975 468 m 1,0,-1
 752 468 l 1,1,2
 737 340 737 340 762 269.5 c 128,-1,3
 787 199 787 199 868 199 c 0,4,5
 926 199 926 199 964.5 244 c 128,-1,6
 1003 289 1003 289 1016 371 c 1,7,-1
 1271 371 l 1,8,-1
 1273 365 l 1,9,10
 1250 189 1250 189 1127 84 c 128,-1,11
 1004 -21 1004 -21 835 -21 c 0,12,13
 645 -21 645 -21 549 115 c 128,-1,14
 453 251 453 251 471 468 c 1,15,-1
 385 468 l 1,16,-1
 315 0 l 1,17,-1
 32 0 l 1,18,-1
 194 1082 l 1,19,-1
 477 1082 l 1,20,-1
 411 640 l 1,21,-1
 498 640 l 1,22,23
 549 853 549 853 678.5 977.5 c 128,-1,24
 808 1102 808 1102 1002 1102 c 0,25,26
 1171 1102 1171 1102 1262 987.5 c 128,-1,27
 1353 873 1353 873 1325 681 c 1,28,-1
 1062 681 l 1,29,30
 1076 774 1076 774 1053 827.5 c 128,-1,31
 1030 881 1030 881 969 881 c 0,32,33
 898 881 898 881 852 815.5 c 128,-1,34
 806 750 806 750 780 640 c 1,35,-1
 1001 640 l 1,36,-1
 975 468 l 1,0,-1
EndSplineSet
EndChar

StartChar: uni0466
Encoding: 1126 1126 530
Width: 1194
GlyphClass: 1
Flags: W
LayerCount: 2
Fore
SplineSet
758 393 m 1,0,-1
 691 393 l 1,1,-1
 632 0 l 1,2,-1
 400 0 l 1,3,-1
 459 393 l 1,4,-1
 401 393 l 1,5,-1
 232 0 l 1,6,-1
 -62 0 l 1,7,-1
 593 1456 l 1,8,-1
 886 1456 l 1,9,-1
 1105 0 l 1,10,-1
 809 0 l 1,11,-1
 758 393 l 1,0,-1
484 586 m 1,12,-1
 733 586 l 1,13,-1
 677 1021 l 1,14,-1
 672 1022 l 1,15,-1
 484 586 l 1,12,-1
EndSplineSet
EndChar

StartChar: uni0467
Encoding: 1127 1127 531
Width: 1012
GlyphClass: 1
Flags: W
LayerCount: 2
Fore
SplineSet
591 279 m 1,0,-1
 541 279 l 1,1,-1
 500 0 l 1,2,-1
 327 0 l 1,3,-1
 368 279 l 1,4,-1
 330 279 l 1,5,-1
 216 0 l 1,6,-1
 -71 0 l 1,7,-1
 434 1082 l 1,8,-1
 729 1082 l 1,9,-1
 909 0 l 1,10,-1
 623 0 l 1,11,-1
 591 279 l 1,0,-1
403 456 m 1,12,-1
 571 456 l 1,13,-1
 546 680 l 1,14,-1
 539 784 l 1,15,-1
 533 784 l 1,16,-1
 495 680 l 1,17,-1
 403 456 l 1,12,-1
EndSplineSet
EndChar

StartChar: uni0468
Encoding: 1128 1128 532
Width: 1689
GlyphClass: 1
Flags: W
LayerCount: 2
Fore
SplineSet
435 586 m 1,0,-1
 730 586 l 1,1,-1
 1122 1456 l 1,2,-1
 1415 1456 l 1,3,-1
 1634 0 l 1,4,-1
 1338 0 l 1,5,-1
 1287 393 l 1,6,-1
 1220 393 l 1,7,-1
 1161 0 l 1,8,-1
 929 0 l 1,9,-1
 988 393 l 1,10,-1
 930 393 l 1,11,-1
 761 0 l 1,12,-1
 467 0 l 1,13,-1
 643 392 l 1,14,-1
 406 392 l 1,15,-1
 348 0 l 1,16,-1
 67 0 l 1,17,-1
 285 1456 l 1,18,-1
 566 1456 l 1,19,-1
 435 586 l 1,0,-1
1013 586 m 1,20,-1
 1262 586 l 1,21,-1
 1206 1021 l 1,22,-1
 1201 1022 l 1,23,-1
 1013 586 l 1,20,-1
EndSplineSet
EndChar

StartChar: uni0469
Encoding: 1129 1129 533
Width: 1441
GlyphClass: 1
Flags: W
LayerCount: 2
Fore
SplineSet
418 456 m 1,0,-1
 589 456 l 1,1,-1
 881 1082 l 1,2,-1
 1176 1082 l 1,3,-1
 1356 0 l 1,4,-1
 1070 0 l 1,5,-1
 1038 279 l 1,6,-1
 988 279 l 1,7,-1
 947 0 l 1,8,-1
 774 0 l 1,9,-1
 815 279 l 1,10,-1
 777 279 l 1,11,-1
 663 0 l 1,12,-1
 376 0 l 1,13,-1
 507 280 l 1,14,-1
 392 280 l 1,15,-1
 350 0 l 1,16,-1
 67 0 l 1,17,-1
 229 1082 l 1,18,-1
 512 1082 l 1,19,-1
 418 456 l 1,0,-1
850 456 m 1,20,-1
 1018 456 l 1,21,-1
 993 680 l 1,22,-1
 986 784 l 1,23,-1
 980 784 l 1,24,-1
 942 680 l 1,25,-1
 850 456 l 1,20,-1
EndSplineSet
EndChar

StartChar: uni046A
Encoding: 1130 1130 534
Width: 1566
GlyphClass: 1
Flags: W
LayerCount: 2
Fore
SplineSet
15 0 m 1,0,-1
 66 343 l 2,1,2
 103 590 103 590 235.5 692.5 c 128,-1,3
 368 795 368 795 603 797 c 1,4,-1
 373 1456 l 1,5,-1
 1502 1456 l 1,6,-1
 1076 796 l 1,7,8
 1280 786 1280 786 1377 677.5 c 128,-1,9
 1474 569 1474 569 1441 343 c 2,10,-1
 1390 0 l 1,11,-1
 1109 0 l 1,12,-1
 1160 343 l 2,13,14
 1180 477 1180 477 1141.5 525.5 c 128,-1,15
 1103 574 1103 574 999 574 c 2,16,-1
 943 574 l 1,17,-1
 857 0 l 1,18,-1
 575 0 l 1,19,-1
 661 574 l 1,20,-1
 578 574 l 2,21,22
 479 574 479 574 423 522 c 128,-1,23
 367 470 367 470 348 343 c 2,24,-1
 297 0 l 1,25,-1
 15 0 l 1,0,-1
849 879 m 1,26,-1
 855 879 l 1,27,-1
 1063 1232 l 1,28,-1
 746 1232 l 1,29,-1
 849 879 l 1,26,-1
EndSplineSet
EndChar

StartChar: uni046B
Encoding: 1131 1131 535
Width: 1311
GlyphClass: 1
Flags: W
LayerCount: 2
Fore
SplineSet
11 0 m 1,0,-1
 39 186 l 2,1,2
 70 396 70 396 170.5 493.5 c 128,-1,3
 271 591 271 591 443 607 c 1,4,-1
 274 1082 l 1,5,-1
 1216 1082 l 1,6,-1
 904 605 l 1,7,8
 1056 582 1056 582 1126 480.5 c 128,-1,9
 1196 379 1196 379 1168 186 c 2,10,-1
 1140 0 l 1,11,-1
 858 0 l 1,12,-1
 886 186 l 2,13,14
 904 310 904 310 879 354.5 c 128,-1,15
 854 399 854 399 784 393 c 1,16,-1
 779 392 l 1,17,-1
 720 0 l 1,18,-1
 439 0 l 1,19,-1
 499 402 l 1,20,-1
 492 402 l 2,21,22
 421 402 421 402 379.5 354 c 128,-1,23
 338 306 338 306 321 186 c 2,24,-1
 293 0 l 1,25,-1
 11 0 l 1,0,-1
679 669 m 1,26,-1
 685 668 l 1,27,-1
 813 901 l 1,28,-1
 622 901 l 1,29,-1
 679 669 l 1,26,-1
EndSplineSet
EndChar

StartChar: uni046C
Encoding: 1132 1132 536
Width: 2091
GlyphClass: 1
Flags: W
LayerCount: 2
Fore
SplineSet
1150 575 m 1,0,-1
 302 575 l 1,1,-1
 336 798 l 1,2,-1
 1184 798 l 1,3,-1
 1150 575 l 1,0,-1
329 0 m 1,4,-1
 48 0 l 1,5,-1
 266 1456 l 1,6,-1
 547 1456 l 1,7,-1
 329 0 l 1,4,-1
582 0 m 1,8,-1
 633 343 l 2,9,10
 670 590 670 590 802.5 692.5 c 128,-1,11
 935 795 935 795 1170 797 c 1,12,-1
 940 1456 l 1,13,-1
 2069 1456 l 1,14,-1
 1643 796 l 1,15,16
 1847 786 1847 786 1944 677.5 c 128,-1,17
 2041 569 2041 569 2008 343 c 2,18,-1
 1957 0 l 1,19,-1
 1676 0 l 1,20,-1
 1727 343 l 2,21,22
 1747 477 1747 477 1708.5 525.5 c 128,-1,23
 1670 574 1670 574 1566 574 c 2,24,-1
 1510 574 l 1,25,-1
 1424 0 l 1,26,-1
 1142 0 l 1,27,-1
 1228 574 l 1,28,-1
 1145 574 l 2,29,30
 1046 574 1046 574 990 522 c 128,-1,31
 934 470 934 470 915 343 c 2,32,-1
 864 0 l 1,33,-1
 582 0 l 1,8,-1
1416 879 m 1,34,-1
 1422 879 l 1,35,-1
 1630 1232 l 1,36,-1
 1313 1232 l 1,37,-1
 1416 879 l 1,34,-1
EndSplineSet
EndChar

StartChar: uni046D
Encoding: 1133 1133 537
Width: 1812
GlyphClass: 1
Flags: W
LayerCount: 2
Fore
SplineSet
1059 410 m 1,0,-1
 189 410 l 1,1,-1
 219 612 l 1,2,-1
 1089 612 l 1,3,-1
 1059 410 l 1,0,-1
317 0 m 1,4,-1
 34 0 l 1,5,-1
 196 1082 l 1,6,-1
 479 1082 l 1,7,-1
 317 0 l 1,4,-1
517 0 m 1,8,-1
 545 186 l 2,9,10
 576 396 576 396 676.5 493.5 c 128,-1,11
 777 591 777 591 949 607 c 1,12,-1
 780 1082 l 1,13,-1
 1722 1082 l 1,14,-1
 1410 605 l 1,15,16
 1562 582 1562 582 1632 480.5 c 128,-1,17
 1702 379 1702 379 1674 186 c 2,18,-1
 1646 0 l 1,19,-1
 1364 0 l 1,20,-1
 1392 186 l 2,21,22
 1410 310 1410 310 1385 354.5 c 128,-1,23
 1360 399 1360 399 1290 393 c 1,24,-1
 1285 392 l 1,25,-1
 1226 0 l 1,26,-1
 945 0 l 1,27,-1
 1005 402 l 1,28,-1
 998 402 l 2,29,30
 927 402 927 402 885.5 354 c 128,-1,31
 844 306 844 306 827 186 c 2,32,-1
 799 0 l 1,33,-1
 517 0 l 1,8,-1
1185 669 m 1,34,-1
 1191 668 l 1,35,-1
 1319 901 l 1,36,-1
 1128 901 l 1,37,-1
 1185 669 l 1,34,-1
EndSplineSet
EndChar

StartChar: uni046E
Encoding: 1134 1134 538
Width: 918
GlyphClass: 1
Flags: W
LayerCount: 2
Fore
SplineSet
456 1456 m 2,0,1
 670 1456 670 1456 777.5 1361.5 c 128,-1,2
 885 1267 885 1267 857 1078 c 0,3,4
 838 953 838 953 772.5 869.5 c 128,-1,5
 707 786 707 786 604 744 c 1,6,7
 714 701 714 701 765.5 614.5 c 128,-1,8
 817 528 817 528 800 406 c 0,9,10
 768 198 768 198 635 89.5 c 128,-1,11
 502 -19 502 -19 299 -19 c 2,12,-1
 250 -19 l 2,13,14
 207 -19 207 -19 181.5 -45 c 128,-1,15
 156 -71 156 -71 149 -117 c 0,16,17
 140 -178 140 -178 169.5 -213.5 c 128,-1,18
 199 -249 199 -249 245 -274 c 1,19,-1
 144 -442 l 1,20,21
 0 -409 0 -409 -60 -315 c 128,-1,22
 -120 -221 -120 -221 -101 -79 c 0,23,24
 -78 68 -78 68 15.5 138.5 c 128,-1,25
 109 209 109 209 260 209 c 2,26,-1
 316 209 l 2,27,28
 393 209 393 209 448.5 262.5 c 128,-1,29
 504 316 504 316 517 402 c 0,30,31
 534 520 534 520 488.5 575.5 c 128,-1,32
 443 631 443 631 337 631 c 2,33,-1
 213 631 l 1,34,-1
 223 701 l 1,35,-1
 247 859 l 1,36,-1
 379 859 l 2,37,38
 459 859 459 859 508 911.5 c 128,-1,39
 557 964 557 964 571 1052 c 0,40,41
 584 1137 584 1137 547 1183 c 128,-1,42
 510 1229 510 1229 422 1229 c 2,43,-1
 209 1229 l 1,44,-1
 243 1456 l 1,45,-1
 456 1456 l 2,0,1
700 1783 m 1,46,-1
 810 1912 l 1,47,-1
 1064 1912 l 1,48,-1
 1062 1895 l 1,49,-1
 774 1643 l 1,50,-1
 583 1643 l 1,51,-1
 370 1896 l 1,52,-1
 372 1912 l 1,53,-1
 627 1912 l 1,54,-1
 700 1783 l 1,46,-1
EndSplineSet
EndChar

StartChar: uni046F
Encoding: 1135 1135 539
Width: 911
GlyphClass: 1
Flags: W
LayerCount: 2
Fore
SplineSet
407 1082 m 2,0,1
 612 1082 612 1082 718 1008.5 c 128,-1,2
 824 935 824 935 802 788 c 0,3,4
 788 699 788 699 738 637 c 128,-1,5
 688 575 688 575 607 540 c 1,6,7
 698 507 698 507 741.5 446.5 c 128,-1,8
 785 386 785 386 774 304 c 0,9,10
 750 146 750 146 629.5 63.5 c 128,-1,11
 509 -19 509 -19 321 -19 c 2,12,-1
 278 -19 l 2,13,14
 227 -19 227 -19 197 -45 c 128,-1,15
 167 -71 167 -71 160 -117 c 0,16,17
 151 -178 151 -178 175.5 -213.5 c 128,-1,18
 200 -249 200 -249 240 -274 c 1,19,-1
 141 -427 l 1,20,21
 28 -387 28 -387 -30.5 -295 c 128,-1,22
 -89 -203 -89 -203 -73 -79 c 0,23,24
 -53 52 -53 52 32 116 c 128,-1,25
 117 180 117 180 251 180 c 2,26,-1
 303 180 l 2,27,28
 379 180 379 180 431.5 217 c 128,-1,29
 484 254 484 254 494 314 c 0,30,31
 505 386 505 386 464 420 c 128,-1,32
 423 454 423 454 334 454 c 2,33,-1
 192 454 l 1,34,-1
 198 495 l 1,35,-1
 211 578 l 1,36,-1
 218 624 l 1,37,-1
 368 624 l 2,38,39
 431 624 431 624 469 661.5 c 128,-1,40
 507 699 507 699 517 762 c 0,41,42
 526 820 526 820 491.5 851.5 c 128,-1,43
 457 883 457 883 377 883 c 2,44,-1
 160 883 l 1,45,-1
 190 1082 l 1,46,-1
 407 1082 l 2,0,1
576 1439 m 1,47,-1
 686 1568 l 1,48,-1
 940 1568 l 1,49,-1
 938 1551 l 1,50,-1
 650 1299 l 1,51,-1
 459 1299 l 1,52,-1
 246 1552 l 1,53,-1
 248 1568 l 1,54,-1
 503 1568 l 1,55,-1
 576 1439 l 1,47,-1
EndSplineSet
EndChar

StartChar: uni0472
Encoding: 1138 1138 542
Width: 1232
GlyphClass: 1
Flags: W
LayerCount: 2
Fore
SplineSet
1144 524 m 2,0,1
 1103 257 1103 257 939 118 c 128,-1,2
 775 -21 775 -21 531 -21 c 0,3,4
 299 -21 299 -21 172 124.5 c 128,-1,5
 45 270 45 270 84 524 c 2,6,-1
 145 930 l 2,7,8
 184 1196 184 1196 347.5 1336.5 c 128,-1,9
 511 1477 511 1477 755 1477 c 0,10,11
 987 1477 987 1477 1115 1330 c 128,-1,12
 1243 1183 1243 1183 1205 930 c 2,13,-1
 1144 524 l 2,0,1
796 747 m 0,14,15
 818 747 818 747 850 767 c 128,-1,16
 882 787 882 787 907 818 c 1,17,-1
 924 933 l 2,18,19
 948 1098 948 1098 896.5 1176 c 128,-1,20
 845 1254 845 1254 721 1254 c 0,21,22
 603 1254 603 1254 526 1172.5 c 128,-1,23
 449 1091 449 1091 426 933 c 2,24,-1
 404 786 l 1,25,26
 434 824 434 824 473 845 c 128,-1,27
 512 866 512 866 560 866 c 0,28,29
 606 866 606 866 677 806.5 c 128,-1,30
 748 747 748 747 796 747 c 0,14,15
876 613 m 1,31,32
 846 584 846 584 810.5 569 c 128,-1,33
 775 554 775 554 734 554 c 0,34,35
 674 554 674 554 610.5 613.5 c 128,-1,36
 547 673 547 673 499 673 c 0,37,38
 466 673 466 673 424 633.5 c 128,-1,39
 382 594 382 594 368 543 c 1,40,-1
 365 524 l 2,41,42
 339 356 339 356 389 278 c 128,-1,43
 439 200 439 200 564 200 c 0,44,45
 682 200 682 200 760 282 c 128,-1,46
 838 364 838 364 863 524 c 2,47,-1
 876 613 l 1,31,32
EndSplineSet
EndChar

StartChar: uni0473
Encoding: 1139 1139 543
Width: 1007
GlyphClass: 1
Flags: W
LayerCount: 2
Fore
SplineSet
62 551 m 1,0,1
 99 804 99 804 237 953 c 128,-1,2
 375 1102 375 1102 588 1102 c 0,3,4
 790 1102 790 1102 888.5 947 c 128,-1,5
 987 792 987 792 952 551 c 1,6,-1
 948 528 l 1,7,8
 910 275 910 275 771.5 127 c 128,-1,9
 633 -21 633 -21 422 -21 c 0,10,11
 219 -21 219 -21 120.5 133 c 128,-1,12
 22 287 22 287 58 528 c 1,13,-1
 62 551 l 1,0,1
730 612 m 1,14,15
 721 558 721 558 701 517 c 128,-1,16
 681 476 681 476 660 466 c 1,17,-1
 654 468 l 2,18,19
 655 471 655 471 659 489 c 128,-1,20
 663 507 663 507 666 528 c 2,21,-1
 670 551 l 2,22,23
 693 705 693 705 668.5 793 c 128,-1,24
 644 881 644 881 555 881 c 0,25,26
 476 881 476 881 425 801.5 c 128,-1,27
 374 722 374 722 357 602 c 1,28,-1
 361 597 l 1,29,30
 373 618 373 618 397.5 632.5 c 128,-1,31
 422 647 422 647 447 647 c 0,32,33
 479 647 479 647 530 603 c 128,-1,34
 581 559 581 559 616 559 c 0,35,36
 639 559 639 559 661.5 590.5 c 128,-1,37
 684 622 684 622 691 668 c 1,38,-1
 730 612 l 1,14,15
327 390 m 1,39,40
 327 297 327 297 356.5 248 c 128,-1,41
 386 199 386 199 455 199 c 0,42,43
 525 199 525 199 573 264 c 128,-1,44
 621 329 621 329 642 435 c 1,45,-1
 638 440 l 1,46,47
 628 426 628 426 609.5 418 c 128,-1,48
 591 410 591 410 572 410 c 0,49,50
 529 410 529 410 482.5 454 c 128,-1,51
 436 498 436 498 402 498 c 0,52,53
 379 498 379 498 356.5 466 c 128,-1,54
 334 434 334 434 328 390 c 1,55,-1
 327 390 l 1,39,40
EndSplineSet
EndChar

StartChar: uni0474
Encoding: 1140 1140 544
Width: 1154
GlyphClass: 1
Flags: W
LayerCount: 2
Fore
SplineSet
542 372 m 1,0,-1
 544 315 l 1,1,-1
 550 314 l 1,2,-1
 570 369 l 1,3,-1
 846 1135 l 1,4,5
 916 1306 916 1306 1002.5 1390.5 c 128,-1,6
 1089 1475 1089 1475 1209 1475 c 0,7,8
 1234 1475 1234 1475 1256 1470 c 128,-1,9
 1278 1465 1278 1465 1294 1455 c 1,10,-1
 1242 1239 l 1,11,12
 1239 1240 1239 1240 1224 1242 c 128,-1,13
 1209 1244 1209 1244 1200 1244 c 0,14,15
 1166 1244 1166 1244 1136 1211 c 128,-1,16
 1106 1178 1106 1178 1089 1118 c 1,17,-1
 648 0 l 1,18,-1
 355 0 l 1,19,-1
 153 1456 l 1,20,-1
 449 1456 l 1,21,-1
 542 372 l 1,0,-1
EndSplineSet
EndChar

StartChar: uni0475
Encoding: 1141 1141 545
Width: 918
GlyphClass: 1
Flags: W
LayerCount: 2
Fore
SplineSet
407 400 m 1,0,-1
 408 333 l 1,1,-1
 414 332 l 1,2,-1
 435 400 l 1,3,-1
 553 773 l 1,4,5
 620 937 620 937 708.5 1019.5 c 128,-1,6
 797 1102 797 1102 918 1102 c 0,7,8
 942 1102 942 1102 964 1097 c 128,-1,9
 986 1092 986 1092 1003 1083 c 1,10,-1
 950 867 l 1,11,12
 946 868 946 868 931 870.5 c 128,-1,13
 916 873 916 873 908 873 c 0,14,15
 875 873 875 873 845.5 841 c 128,-1,16
 816 809 816 809 802 759 c 1,17,-1
 501 0 l 1,18,-1
 227 0 l 1,19,-1
 95 1082 l 1,20,-1
 392 1082 l 1,21,-1
 407 400 l 1,0,-1
EndSplineSet
EndChar

StartChar: uni047A
Encoding: 1146 1146 550
Width: 1232
GlyphClass: 1
Flags: W
LayerCount: 2
Fore
SplineSet
793 1126 m 1,0,-1
 615 1126 l 1,1,-1
 683 1577 l 1,2,-1
 861 1577 l 1,3,-1
 793 1126 l 1,0,-1
607 -136 m 1,4,-1
 428 -136 l 1,5,-1
 497 324 l 1,6,-1
 676 324 l 1,7,-1
 607 -136 l 1,4,-1
1144 524 m 2,8,9
 1103 257 1103 257 939 118 c 128,-1,10
 775 -21 775 -21 531 -21 c 0,11,12
 299 -21 299 -21 172 124.5 c 128,-1,13
 45 270 45 270 84 524 c 2,14,-1
 145 930 l 2,15,16
 184 1196 184 1196 347.5 1336.5 c 128,-1,17
 511 1477 511 1477 755 1477 c 0,18,19
 987 1477 987 1477 1115 1330 c 128,-1,20
 1243 1183 1243 1183 1205 930 c 2,21,-1
 1144 524 l 2,8,9
924 933 m 2,22,23
 948 1098 948 1098 896.5 1176 c 128,-1,24
 845 1254 845 1254 721 1254 c 0,25,26
 603 1254 603 1254 526 1172.5 c 128,-1,27
 449 1091 449 1091 426 933 c 2,28,-1
 365 524 l 2,29,30
 339 356 339 356 389 278 c 128,-1,31
 439 200 439 200 564 200 c 0,32,33
 682 200 682 200 760 282 c 128,-1,34
 838 364 838 364 863 524 c 2,35,-1
 924 933 l 2,22,23
EndSplineSet
EndChar

